<?xml version="1.0" encoding="utf-8"?>
<!-- Generator: Adobe Illustrator 22.1.0, SVG Export Plug-In . SVG Version: 6.00 Build 0)  -->
<svg version="1.1" id="icons" xmlns="http://www.w3.org/2000/svg" xmlns:xlink="http://www.w3.org/1999/xlink" x="0px" y="0px"
	 viewBox="0 0 47.9 42" style="enable-background:new 0 0 47.9 42;" xml:space="preserve">
<style type="text/css">
	.st0{fill:none;stroke:#FFFFFF;stroke-width:2;stroke-miterlimit:10;}
	.st1{fill:none;stroke:#FFFFFF;stroke-width:2;stroke-linejoin:round;stroke-miterlimit:10;}
</style>
<g>
	<path class="st0" d="M23.9,1c11,0,20,9,20,20v1h2l-5,7l-4-7h2v-1c0-8.3-6.7-15-15-15c-5.3,0-10,2.8-12.7,7"/>
	<path class="st0" d="M13.9,3.7c-0.7,0.4-1.4,0.9-2,1.3"/>
	<path class="st0" d="M17.8,1.9c-0.7,0.2-1.3,0.5-1.9,0.7"/>
	<path class="st0" d="M21.9,1.1c-0.6,0.1-1.3,0.2-1.9,0.3"/>
	<path class="st0" d="M23.9,41c-11,0-19.9-9-19.9-20v-1h-2l5-7l4,7h-2v1c0,8.3,6.5,15,14.8,15c5.3,0,10-2.8,12.7-7"/>
	<path class="st0" d="M33.9,38.3c0.7-0.4,1.4-0.9,2-1.3"/>
	<path class="st0" d="M30,40.1c0.7-0.2,1.3-0.5,1.9-0.7"/>
	<path class="st0" d="M25.9,40.9c0.6-0.1,1.3-0.2,1.9-0.3"/>
	<path class="st1" d="M32.4,14.6l-3.5,3.5L26,15.3l3.5-3.5c-1.4-1.4-4.5-1.2-6.4,0.7c-1.4,1.4-2.1,3.3-1.2,5.3
		c0.3,0.7,0.1,1.5-0.5,2.1l-6,6c-0.7,0.7-0.9,1.8-0.3,2.6c0.7,1,2.2,1.1,3,0.3l6.1-6.1c0.5-0.5,1.3-0.8,2.1-0.5c2,0.8,4,0.1,5.3-1.2
		C33.5,19.1,33.8,16.1,32.4,14.6z"/>
</g>
</svg>
