<?xml version="1.0" encoding="utf-8"?>
<!-- Generator: Adobe Illustrator 22.1.0, SVG Export Plug-In . SVG Version: 6.00 Build 0)  -->
<svg version="1.1" id="icons" xmlns="http://www.w3.org/2000/svg" xmlns:xlink="http://www.w3.org/1999/xlink" x="0px" y="0px"
	 viewBox="0 0 41.1 44" style="enable-background:new 0 0 41.1 44;" xml:space="preserve">
<style type="text/css">
	.st0{fill:none;stroke:#FFFFFF;stroke-width:2;stroke-miterlimit:10;}
</style>
<g>
	<path class="st0" d="M9,26v-2l-6-7l-1.8-3.1C0.6,12.3,1.4,9.5,3,9l3,5l4,4c0.6,0.7,2,1,2.9,1h2.2c0.9,0,2.2-0.3,2.9-1l4-4l3-5
		c1.6,0.5,2.5,3.3,1.8,4.9L25,17l-6,7v10"/>
	<path class="st0" d="M14,9c1.8,0,3,1.3,3,3v1c0,1.7-1.2,3-3,3s-3-1.3-3-3v-1C11,10.3,12.2,9,14,9z"/>
	<path class="st0" d="M27,32c-1.8,0-3-1.3-3-3v-1c0-1.7,1.2-3,3-3c1.8,0,3,1.3,3,3v1C30,30.7,28.8,32,27,32z"/>
	<path class="st0" d="M21.1,44v-5c0-3.3,3.5-4,6-4h1.1c0.8,0,1.8-0.5,2.9-1l4-2l3-7l0,0c1.6,0.5,2.5,4.3,1.8,5.9L38,35l-6,5v4"/>
	<path class="st0" d="M11,35c1.8,0,3-1.3,3-3v-1c0-1.7-1.2-3-3-3s-3,1.3-3,3v1C8,33.7,9.2,35,11,35z"/>
	<path class="st0" d="M5,44v-2c0-3.3,3.6-4,6-4s6,0.7,6,4v2"/>
	<line class="st0" x1="14" y1="5" x2="14" y2="0"/>
	<line class="st0" x1="18.1" y1="6" x2="21.1" y2="3"/>
	<line class="st0" x1="10.1" y1="6" x2="7.1" y2="3"/>
</g>
</svg>
