<?xml version="1.0" encoding="utf-8"?>
<!-- Generator: Adobe Illustrator 22.1.0, SVG Export Plug-In . SVG Version: 6.00 Build 0)  -->
<svg version="1.1" id="icons" xmlns="http://www.w3.org/2000/svg" xmlns:xlink="http://www.w3.org/1999/xlink" x="0px" y="0px"
	 viewBox="0 0 48 43" style="enable-background:new 0 0 48 43;" xml:space="preserve">
<style type="text/css">
	.st0{fill:none;stroke:#FFFFFF;stroke-width:2;stroke-miterlimit:10;}
</style>
<g>
	<path class="st0" d="M44,36H4c-1.7,0-3-1.3-3-3V4c0-1.7,1.3-3,3-3h40c1.7,0,3,1.3,3,3v29C47,34.7,45.7,36,44,36z"/>
	<line class="st0" x1="29" y1="38" x2="29" y2="42"/>
	<line class="st0" x1="20" y1="42" x2="20" y2="38"/>
	<line class="st0" x1="33" y1="42" x2="16" y2="42"/>
	<line class="st0" x1="1" y1="30" x2="47" y2="30"/>
	<line class="st0" x1="23" y1="33" x2="26" y2="33"/>
	<path class="st0" d="M29,11h6c0.6,0,1,0.4,1,1v2c0,0.6-0.4,1-1,1h-4"/>
	<path class="st0" d="M17,15h-4c-0.6,0-1-0.4-1-1v-2c0-0.6,0.4-1,1-1h9"/>
	<path class="st0" d="M34.3,15.1l-2.1,9.1c-0.1,0.4-0.5,0.8-1,0.8H16.8c-0.5,0-0.9-0.3-1-0.8l-2-9.2"/>
	<line class="st0" x1="28" y1="6" x2="24" y2="15"/>
	<line class="st0" x1="20" y1="17" x2="20" y2="22"/>
	<line class="st0" x1="24" y1="17" x2="24" y2="22"/>
	<line class="st0" x1="28" y1="17" x2="28" y2="22"/>
</g>
</svg>
