<?xml version="1.0" encoding="utf-8"?>
<!-- Generator: Adobe Illustrator 22.1.0, SVG Export Plug-In . SVG Version: 6.00 Build 0)  -->
<svg version="1.1" id="icons" xmlns="http://www.w3.org/2000/svg" xmlns:xlink="http://www.w3.org/1999/xlink" x="0px" y="0px"
	 viewBox="0 0 47.9 42" style="enable-background:new 0 0 47.9 42;" xml:space="preserve">
<style type="text/css">
	.st0{fill:none;stroke:#FFFFFF;stroke-width:2;stroke-miterlimit:10;}
</style>
<g>
	<path class="st0" d="M23.9,1c-11,0-20,9-20,20v1h-2l5,7l4-7h-2v-1c0-3.9,1.5-7.5,4-10.2"/>
	<path class="st0" d="M34,3.7c0.7,0.4,1.4,0.9,2,1.3"/>
	<path class="st0" d="M30,1.9c0.7,0.2,1.3,0.5,1.9,0.7"/>
	<path class="st0" d="M26,1.1c0.6,0.1,1.3,0.2,1.9,0.3"/>
	<path class="st0" d="M24,41c11,0,19.9-9,19.9-20v-1h2l-5-7l-4,7h2v1c0,5.6-3,10.5-7.6,13.1"/>
	<path class="st0" d="M13.9,38.3c-0.7-0.4-1.4-0.9-2-1.3"/>
	<path class="st0" d="M17.9,40.1c-0.7-0.2-1.3-0.5-1.9-0.7"/>
	<path class="st0" d="M22,40.9c-0.6-0.1-1.3-0.2-1.9-0.3"/>
	<circle class="st0" cx="23.9" cy="22" r="9"/>
	<line class="st0" x1="23.9" y1="13" x2="23.9" y2="10"/>
	<line class="st0" x1="20.9" y1="10" x2="26.9" y2="10"/>
	<line class="st0" x1="17.9" y1="15" x2="15.9" y2="13"/>
	<line class="st0" x1="29.9" y1="15" x2="31.9" y2="13"/>
	<line class="st0" x1="23.9" y1="16" x2="23.9" y2="22"/>
</g>
</svg>
