<?xml version="1.0" standalone="no"?>
<!DOCTYPE svg PUBLIC "-//W3C//DTD SVG 20010904//EN"
 "http://www.w3.org/TR/2001/REC-SVG-20010904/DTD/svg10.dtd">
<svg version="1.0" xmlns="http://www.w3.org/2000/svg"
 width="981.000000pt" height="796.000000pt" viewBox="0 0 981.000000 796.000000"
 preserveAspectRatio="xMidYMid meet">
<metadata>
Created by potrace 1.16, written by Peter Selinger 2001-2019
</metadata>
<g transform="translate(0.000000,796.000000) scale(0.100000,-0.100000)"
fill="#000000" stroke="none">
<path d="M7553 7949 c-22 -4 -58 -17 -80 -27 -53 -28 -544 -525 -574 -582 -33
-62 -34 -186 -2 -246 22 -41 1954 -2005 2022 -2055 20 -15 53 -32 75 -39 50
-16 140 -9 191 15 54 27 551 529 585 593 34 63 35 166 3 232 -16 32 -307 334
-1014 1050 -545 553 -1008 1015 -1029 1028 -46 28 -120 41 -177 31z"/>
<path d="M4090 7319 c-226 -26 -432 -127 -598 -291 -141 -140 -148 -153 -583
-1168 -459 -1071 -454 -1056 -414 -1245 57 -271 295 -465 568 -465 169 0 289
50 408 169 92 92 93 94 289 555 84 198 170 388 192 423 49 77 157 179 235 220
98 52 162 66 282 61 117 -6 182 -25 267 -80 28 -19 415 -403 889 -883 461
-467 1033 -1046 1270 -1285 336 -339 437 -446 454 -484 87 -190 12 -396 -177
-484 -46 -22 -72 -26 -137 -27 -71 0 -88 4 -147 33 -60 29 -113 80 -574 548
-280 284 -521 522 -536 530 -59 31 -145 3 -166 -54 -38 -103 -63 -71 511 -653
591 -598 582 -587 582 -738 0 -72 -5 -95 -27 -143 -87 -187 -289 -262 -475
-177 -38 18 -159 134 -578 556 l-530 534 -46 -1 c-59 0 -108 -32 -128 -83 -30
-79 -37 -70 524 -637 463 -468 516 -525 547 -587 29 -60 33 -76 32 -148 -1
-144 -70 -258 -194 -321 -114 -57 -273 -40 -367 39 -21 18 -258 255 -527 527
-320 323 -503 501 -528 513 -94 44 -196 -49 -168 -152 8 -29 119 -147 527
-561 474 -481 521 -531 548 -590 39 -86 41 -195 6 -283 -28 -71 -106 -153
-176 -187 -74 -35 -191 -39 -270 -10 -55 21 -80 43 -299 260 l-239 237 26 44
c84 145 81 344 -8 495 -93 158 -299 254 -484 225 -75 -11 -170 -48 -203 -78
-25 -23 -22 -8 7 35 67 98 87 278 45 402 -68 202 -242 330 -449 330 -85 0
-181 -24 -240 -60 -18 -12 -36 -19 -39 -15 -3 3 4 22 15 43 62 113 77 279 34
396 -101 282 -413 407 -673 271 -27 -14 -52 -24 -55 -21 -3 2 9 33 25 68 142
298 -40 645 -364 691 -95 14 -178 1 -275 -44 l-71 -33 -111 115 c-62 63 -385
389 -720 726 -641 646 -631 637 -700 619 -68 -17 -110 -94 -89 -163 9 -30 136
-164 628 -663 339 -344 660 -669 713 -722 l95 -98 -235 -237 c-244 -247 -284
-294 -320 -384 -26 -67 -36 -203 -20 -279 37 -173 177 -321 346 -365 122 -31
244 -15 360 49 l64 35 -30 -47 c-16 -26 -39 -78 -51 -115 -27 -90 -22 -234 11
-317 44 -111 153 -225 258 -271 141 -60 321 -46 444 36 50 33 53 32 24 -11
-46 -68 -68 -142 -73 -249 -3 -84 0 -110 18 -165 75 -225 298 -366 523 -330
70 11 142 38 187 70 41 29 44 25 15 -18 -66 -97 -87 -275 -46 -403 26 -81 84
-173 142 -223 24 -21 78 -55 119 -74 67 -33 85 -37 171 -40 107 -5 181 11 259
55 25 14 158 138 297 276 l252 251 243 -240 c231 -229 247 -243 328 -282 106
-51 182 -66 302 -60 318 16 567 276 570 594 l1 94 85 0 c231 0 425 123 531
337 41 82 61 170 61 269 l0 81 108 5 c160 8 277 57 387 163 118 114 175 244
183 416 l4 105 57 -4 c31 -2 89 3 130 12 278 59 471 283 488 567 7 119 -13
218 -64 322 -31 61 -64 99 -209 247 l-173 175 652 653 652 652 -983 983 -984
984 -546 163 c-301 90 -732 218 -959 286 -226 67 -443 134 -481 148 -139 50
-314 71 -452 55z"/>
</g>
</svg>
