<svg width="26" height="30" viewBox="0 0 26 30" fill="none" xmlns="http://www.w3.org/2000/svg">
<path fill-rule="evenodd" clip-rule="evenodd" d="M0.50725 0.14405C0.34661 0.229024 0.186666 0.37795 0.117332 0.50712C0.00405497 0.718478 -0.000124111 1.18355 2.52685e-06 13.6758C6.58456e-05 25.8782 0.00646105 26.6383 0.11081 26.8459C0.298677 27.2199 0.572278 27.3537 1.14899 27.3537C1.42246 27.3537 1.64718 27.3609 1.64844 27.3695C1.64965 27.3782 1.70347 27.7973 1.76799 28.3007C1.88101 29.1822 1.89266 29.2226 2.08332 29.393L2.28138 29.5699H3.26079H4.24021L4.43776 29.3934C4.6281 29.2233 4.63956 29.1834 4.75119 28.3012C4.81489 27.7975 4.8689 27.3782 4.87124 27.3695C4.87352 27.3609 8.40861 27.3537 12.727 27.3537C17.0453 27.3537 20.5804 27.3609 20.5827 27.3695C20.585 27.3782 20.639 27.7975 20.7027 28.3012C20.8143 29.1834 20.8258 29.2233 21.0161 29.3934L21.2137 29.5699H22.1931H23.1725L23.371 29.3925C23.5607 29.2231 23.5737 29.18 23.661 28.4269C23.7982 27.2452 23.7162 27.3699 24.3722 27.3442C24.8704 27.3247 24.9578 27.3033 25.1089 27.1638C25.4764 26.8246 25.454 27.6983 25.454 13.6764C25.454 0.756976 25.454 0.75476 25.3237 0.499269C25.2314 0.318367 25.1158 0.208572 24.9279 0.123282C24.6701 0.00620527 24.3226 0.00272267 12.7211 0.00139297L0.779647 0L0.50725 0.14405ZM12.0938 9.30786V16.7162H6.96494H1.83612V9.30786V1.89956H6.96494H12.0938V9.30786ZM23.6178 9.30786V16.7162H18.489H13.3601V9.30786V1.89956H18.489H23.6178V9.30786ZM21.1484 4.78057L19.7881 6.14192H19.2205H18.6529L19.5524 5.23475C20.1362 4.64589 20.4518 4.28086 20.4518 4.19449C20.4518 4.03436 20.2934 3.86245 20.1459 3.86245C20.0871 3.86245 19.5267 4.37533 18.9005 5.00218L17.7621 6.14192H15.9446C14.1383 6.14192 14.1266 6.14281 14.0286 6.28268C13.9017 6.46377 13.9042 6.496 14.0566 6.64847C14.176 6.76783 14.2677 6.77511 15.6546 6.77511H17.126L16.2245 7.67823C15.3359 8.5683 15.2223 8.73863 15.399 8.91528C15.6109 9.12715 15.7777 9.01286 16.906 7.88319L18.0127 6.77511H18.5794H19.1462L18.501 7.43078C18.1461 7.79138 17.8558 8.13127 17.8558 8.18611C17.8558 8.32921 18.0317 8.48472 18.1936 8.48472C18.2875 8.48472 18.6084 8.20814 19.1855 7.62991L20.0385 6.77511H21.5292C22.7758 6.77511 23.0428 6.75896 23.1604 6.67652C23.3252 6.56116 23.3422 6.3819 23.2017 6.2414C23.1181 6.15788 22.9074 6.14192 21.8885 6.14192H20.6748L21.7896 5.01801C22.4028 4.39983 22.9204 3.8475 22.9398 3.79058C22.9898 3.64381 22.8133 3.41921 22.6481 3.41921C22.5509 3.41921 22.0966 3.83161 21.1484 4.78057ZM2.29347 6.17719C2.12872 6.29256 2.11175 6.47181 2.25219 6.61232C2.34077 6.7009 2.84409 6.71179 6.83926 6.71179H11.3268L11.4253 6.57103C11.5522 6.38994 11.5497 6.35771 11.3973 6.20524C11.273 6.08101 11.1862 6.0786 6.85243 6.0786C2.95604 6.0786 2.41751 6.09025 2.29347 6.17719ZM9.18908 10.5999L8.19472 11.5873H7.63188H7.0691L7.58692 11.0569C7.87167 10.7651 8.10468 10.4926 8.10468 10.4511C8.10468 10.2761 7.9669 10.131 7.80069 10.131C7.66443 10.131 7.47371 10.2855 6.90162 10.8592L6.17555 11.5873H4.23521C2.0956 11.5873 2.06356 11.5931 2.19083 11.9552L2.25067 12.1255L3.87967 12.1425C4.77557 12.1518 5.50861 12.1805 5.50861 12.2063C5.50861 12.2322 4.93874 12.8227 4.24224 13.5186C3.21546 14.5444 2.97586 14.8164 2.97586 14.9562C2.97586 15.1239 3.12149 15.2598 3.30119 15.2598C3.34545 15.2598 4.08172 14.5617 4.93748 13.7085L6.49335 12.1572H7.0591H7.62492L6.5668 13.222C5.85326 13.94 5.50861 14.3314 5.50861 14.4236C5.50861 14.6091 5.77772 14.7839 5.93177 14.6985C5.99503 14.6634 6.60219 14.0773 7.2809 13.396L8.51505 12.1572L9.90864 12.1563C10.6752 12.1557 11.3329 12.1343 11.3702 12.1088C11.4846 12.0304 11.5269 11.838 11.4581 11.7094C11.3974 11.596 11.3141 11.5873 10.287 11.5873C9.67872 11.5873 9.1811 11.5655 9.1811 11.5388C9.1811 11.5121 9.49453 11.1777 9.87761 10.7959C10.5432 10.1323 10.65 9.96416 10.5257 9.77547C10.5001 9.73659 10.4126 9.6841 10.3313 9.65871C10.202 9.61831 10.0591 9.73602 9.18908 10.5999ZM13.9921 11.7164C13.8994 11.8894 13.9702 12.086 14.14 12.127C14.216 12.1454 16.2864 12.1526 18.7407 12.143L23.2032 12.1255L23.2631 11.9552C23.3984 11.5704 23.6124 11.5873 18.6101 11.5873C14.0978 11.5873 14.0606 11.5883 13.9921 11.7164ZM12.0938 21.75V25.5175H6.96494H1.83612V21.75V17.9825H6.96494H12.0938V21.75ZM23.6178 21.75V25.5175H18.489H13.3601V21.75V17.9825H18.489H23.6178V21.75ZM9.7461 20.4471L9.56101 20.6322V21.4967V22.3613L9.7461 22.5464C9.88312 22.6834 9.99127 22.7314 10.1625 22.7314C10.3338 22.7314 10.442 22.6834 10.579 22.5464L10.7641 22.3613V21.4967V20.6322L10.579 20.4471C10.442 20.3101 10.3338 20.262 10.1625 20.262C9.99127 20.262 9.88312 20.3101 9.7461 20.4471ZM14.8749 20.4471L14.6898 20.6322V21.4967V22.3613L14.8749 22.5464C15.0119 22.6834 15.1201 22.7314 15.2914 22.7314C15.4626 22.7314 15.5708 22.6834 15.7078 22.5464L15.8929 22.3613V21.4967V20.6322L15.7078 20.4471C15.5708 20.3101 15.4626 20.262 15.2914 20.262C15.1201 20.262 15.0119 20.3101 14.8749 20.4471ZM3.57574 27.6861C3.50685 28.2942 3.50216 28.3035 3.26383 28.3035C3.02094 28.3035 3.00891 28.2815 2.94483 27.7178L2.90342 27.3537H3.25839H3.61342L3.57574 27.6861ZM22.5091 27.7178C22.445 28.2815 22.433 28.3035 22.1901 28.3035C21.9542 28.3035 21.9474 28.2907 21.8829 27.726C21.8646 27.5651 21.8675 27.4155 21.8894 27.3936C21.9113 27.3716 22.0691 27.3537 22.2399 27.3537H22.5505L22.5091 27.7178Z" fill="#C1C1C1"/>
</svg>
