<svg width="29" height="47" viewBox="0 0 29 47" fill="none" xmlns="http://www.w3.org/2000/svg">
<path fill-rule="evenodd" clip-rule="evenodd" d="M2.87425 0.161565C2.57542 0.394388 2.33309 0.889585 2.33309 1.26713C2.33309 1.69171 2.5298 2.08592 3.02534 2.65422C3.26814 2.9327 3.50973 3.25068 3.56223 3.36088C3.69798 3.64627 3.58165 3.99785 3.25624 4.28508C2.95333 4.55252 2.92619 4.82649 3.18655 4.98815C3.55228 5.21518 4.27612 4.49259 4.35213 3.82459C4.41104 3.30665 4.2437 2.93712 3.59986 2.16325C2.96169 1.39638 2.92879 1.14993 3.40491 0.70537C3.81255 0.324789 3.8093 0.0429897 3.39674 0.00294309C3.21861 -0.0142724 3.02413 0.0447389 2.87425 0.161565ZM6.06845 4.42179C5.92823 4.56071 5.92163 5.52837 6.05999 5.66545C6.13535 5.74011 5.99225 5.78411 5.5257 5.8295C3.8959 5.98812 2.98176 6.20244 2.4957 6.54003C2.22679 6.72673 2.16035 7.01111 2.35632 7.13677C2.4287 7.18317 2.31841 7.22865 2.06381 7.25728C1.59531 7.31003 1.38782 7.52508 1.55312 7.78663C1.60915 7.87519 1.7791 7.96017 1.93093 7.97536L2.2069 8.00297L2.31776 9.05708C2.3788 9.63688 2.49356 10.3909 2.57291 10.7326C2.77427 11.6005 3.29118 12.6312 3.66787 12.9158L3.97674 13.1492H7.09688H10.217L10.5037 12.9102C10.8615 12.6119 11.3808 11.5523 11.571 10.7326C11.6504 10.3909 11.7651 9.63688 11.8262 9.05708L11.937 8.00297L12.213 7.97536C12.3648 7.96017 12.5348 7.87519 12.5908 7.78663C12.7561 7.52508 12.5486 7.31003 12.0801 7.25728C11.8255 7.22865 11.7152 7.18317 11.7876 7.13677C11.9836 7.01111 11.9172 6.72673 11.6483 6.54003C11.1622 6.20244 10.2481 5.98812 8.61825 5.8295C8.1517 5.78411 8.0086 5.74011 8.08396 5.66545C8.22232 5.52837 8.21572 4.56071 8.0755 4.42179C7.92367 4.27136 6.22028 4.27136 6.06845 4.42179ZM7.44365 5.30558C7.44365 5.44735 7.49383 5.61306 7.55516 5.67382C7.64185 5.75972 7.53453 5.7843 7.07198 5.7843C6.60942 5.7843 6.5021 5.75972 6.5888 5.67382C6.65012 5.61306 6.7003 5.44735 6.7003 5.30558C6.7003 5.06622 6.72687 5.04781 7.07198 5.04781C7.41708 5.04781 7.44365 5.06622 7.44365 5.30558ZM15.697 5.20486C15.2408 5.72262 15.2113 6.39448 15.6189 6.9903C15.9371 7.45558 15.9654 7.71648 15.7386 8.09688C15.3937 8.67521 16.0468 8.93463 16.4299 8.3714C16.7453 7.90778 16.7208 7.30727 16.3656 6.78777C16.0473 6.32249 16.0191 6.06159 16.2459 5.68119C16.3679 5.47663 16.3824 5.37334 16.3061 5.25274C16.1661 5.03142 15.8704 5.00822 15.697 5.20486ZM18.5547 5.38595C18.2124 5.88483 18.2258 6.45441 18.5923 6.9903C18.9106 7.45558 18.9388 7.71648 18.712 8.09688C18.3672 8.67521 19.0202 8.93463 19.4033 8.3714C19.7187 7.90778 19.6942 7.30727 19.339 6.78777C19.0208 6.32249 18.9925 6.06159 19.2193 5.68119C19.3413 5.47663 19.3558 5.37334 19.2795 5.25274C19.093 4.95796 18.8128 5.00942 18.5547 5.38595ZM21.6439 5.20486C21.4202 5.45868 21.3092 5.71148 21.2881 6.01445C21.2555 6.48544 21.2804 6.57299 21.5657 6.9903C21.884 7.45558 21.9122 7.71648 21.6854 8.09688C21.3406 8.67521 21.9936 8.93463 22.3767 8.3714C22.6921 7.90778 22.6677 7.30727 22.3124 6.78777C21.9942 6.32249 21.9659 6.06159 22.1927 5.68119C22.3147 5.47663 22.3292 5.37334 22.253 5.25274C22.1129 5.03142 21.8173 5.00822 21.6439 5.20486ZM9.01548 6.61644C9.91995 6.70841 11.1109 6.9996 11.2952 7.17387C11.348 7.22377 9.65067 7.25673 7.06733 7.2559C4.17271 7.25488 2.79713 7.22432 2.8906 7.16282C3.16146 6.98487 4.24732 6.70602 4.98129 6.62592C6.04735 6.50965 7.92172 6.50523 9.01548 6.61644ZM11.1151 8.61518C10.9411 10.4142 10.6405 11.5695 10.2125 12.0839L9.93891 12.4127H7.07198H4.20504L3.93149 12.0839C3.50768 11.5746 3.20746 10.4193 3.02989 8.61518L2.96875 7.99377H7.07198H11.1752L11.1151 8.61518ZM13.487 10.337C13.3283 10.5266 13.4353 10.9171 13.8201 11.5526C14.2634 12.2846 14.651 12.6708 15.2024 12.9294C15.6639 13.146 15.6889 13.1474 18.9657 13.1474C22.2267 13.1474 22.2696 13.145 22.7289 12.9326C23.2638 12.6852 23.7627 12.1736 24.1754 11.4493L24.4638 10.943L26.6526 10.9184C28.6199 10.8962 28.8518 10.8774 28.944 10.7326C29.0187 10.6151 29.0187 10.5278 28.9439 10.4104C28.8478 10.2594 28.3624 10.2478 21.2206 10.2257C14.6214 10.2054 13.5849 10.2203 13.487 10.337ZM23.5187 11.0137C23.5187 11.1926 22.9554 11.9439 22.6703 12.1455L22.3572 12.3667L19.0867 12.394C15.1367 12.4272 15.2753 12.4631 14.4606 11.1929L14.2983 10.9397H18.9085C21.4441 10.9397 23.5187 10.9731 23.5187 11.0137ZM2.35251 13.9953C2.20328 14.1432 2.21006 14.3907 2.36691 14.5197C2.45834 14.5949 3.78077 14.6173 7.1189 14.6C11.4076 14.5779 11.7517 14.5645 11.8467 14.415C11.9215 14.2976 11.9215 14.2103 11.8467 14.0928C11.7517 13.9434 11.4068 13.93 7.1045 13.9079C3.57328 13.8897 2.43799 13.9106 2.35251 13.9953ZM14.2462 13.9953C14.097 14.1432 14.1037 14.3907 14.2606 14.5197C14.352 14.5949 15.6744 14.6173 19.0126 14.6C23.3013 14.5779 23.6453 14.5645 23.7404 14.415C23.8152 14.2976 23.8152 14.2103 23.7404 14.0928C23.6453 13.9434 23.3005 13.93 18.9982 13.9079C15.467 13.8897 14.3317 13.9106 14.2462 13.9953ZM0.121608 15.4691C-0.0405361 15.6298 -0.0405361 45.2836 0.121608 45.4443C0.195851 45.5178 0.603209 45.5548 1.3409 45.5548C2.32538 45.5548 2.43558 45.5705 2.33067 45.6958C2.16723 45.8909 2.34647 46.4613 2.66425 46.7571C3.02599 47.0938 3.70848 47.0758 4.08378 46.7195C4.39404 46.4251 4.5428 45.8904 4.37146 45.6859C4.27659 45.5726 5.45239 45.5548 13.0188 45.5548C20.7638 45.5548 21.7627 45.5706 21.6611 45.6918C21.4886 45.8978 21.6228 46.4052 21.9257 46.6928C22.3922 47.1357 23.0901 47.0953 23.5318 46.5998C23.7462 46.3595 23.8401 45.8547 23.7014 45.6891C23.6038 45.5726 23.7363 45.5548 24.6967 45.5548C25.4344 45.5548 25.8418 45.5178 25.916 45.4443C26.0782 45.2836 26.0782 15.6298 25.916 15.4691C25.754 15.3086 0.28366 15.3086 0.121608 15.4691ZM25.2842 30.4567V44.8183H13.0188H0.75346V30.4567V16.0952H13.0188H25.2842V30.4567ZM3.11826 17.6977C2.73766 17.8619 2.35409 18.3305 2.27994 18.7216C2.18275 19.2351 2.312 19.6558 2.68674 20.0461C3.27938 20.6633 4.1478 20.6712 4.75996 20.0647C5.91318 18.922 4.61575 17.0514 3.11826 17.6977ZM7.57839 17.6977C7.19779 17.8619 6.81422 18.3305 6.74007 18.7216C6.6399 19.2508 6.77175 19.6643 7.16489 20.0538C7.77603 20.6593 8.57049 20.6663 9.20132 20.0717C10.3862 18.9549 9.08294 17.0484 7.57839 17.6977ZM11.2719 17.6786C11.2007 17.7492 11.1604 18.1083 11.1604 18.6729C11.1604 19.2375 11.2007 19.5965 11.2719 19.6671C11.4288 19.8225 14.6089 19.8225 14.7657 19.6671C14.9175 19.5167 14.9175 17.829 14.7657 17.6786C14.6875 17.6011 14.1669 17.5681 13.0188 17.5681C11.8707 17.5681 11.3502 17.6011 11.2719 17.6786ZM17.242 17.6977C16.3045 18.1022 16.0831 19.3369 16.8175 20.0647C17.4297 20.6712 18.2981 20.6633 18.8908 20.0461C20.0145 18.8757 18.7351 17.0533 17.242 17.6977ZM21.7021 17.6977C20.7528 18.1073 20.5391 19.3579 21.2964 20.0717C21.918 20.6574 22.7035 20.6574 23.3251 20.0717C24.5133 18.9518 23.2109 17.0466 21.7021 17.6977ZM4.2253 18.5473C4.49281 18.8124 4.52599 19.0033 4.36524 19.3527C4.04634 20.0463 2.98352 19.7421 2.98352 18.9573C2.98352 18.7021 3.43623 18.3046 3.72688 18.3046C3.87676 18.3046 4.08034 18.4038 4.2253 18.5473ZM8.50154 18.4087C9.04001 18.6517 9.01232 19.4613 8.45777 19.6889C7.8735 19.9286 7.29043 19.3538 7.53193 18.7761C7.70243 18.3682 8.08823 18.2221 8.50154 18.4087ZM14.1338 18.6729V19.0411H13.0188H11.9038V18.6729V18.3046H13.0188H14.1338V18.6729ZM18.349 18.5473C18.7556 18.9502 18.5939 19.5563 18.0327 19.7328C17.7432 19.8238 17.3244 19.6144 17.1997 19.3162C17.0707 19.0077 17.1399 18.7357 17.4108 18.4856C17.6847 18.2328 18.0563 18.2572 18.349 18.5473ZM22.6905 18.4227C23.073 18.7137 23.1502 19.1804 22.8657 19.4829C22.4661 19.9079 21.8706 19.8203 21.6552 19.305C21.3964 18.6861 22.1701 18.0268 22.6905 18.4227ZM2.728 22.4699L2.24017 22.9595V23.8358C2.24017 24.3946 2.28059 24.7521 2.35167 24.8226C2.51354 24.9829 23.5241 24.9829 23.686 24.8226C23.7571 24.752 23.7975 24.3933 23.7975 23.8298V22.9475L23.2976 22.4583C22.7832 21.955 22.5601 21.8915 22.3678 22.1939C22.2922 22.313 22.2958 22.4026 22.3819 22.5392C22.498 22.7232 22.4803 22.7236 13.0188 22.7236C3.5573 22.7236 3.53965 22.7232 3.6557 22.5392C3.74156 22.4029 3.74537 22.3127 3.67029 22.1939C3.47841 21.8908 3.23376 21.9624 2.728 22.4699ZM23.0541 23.8283V24.1965H13.0188H2.98352V23.8283V23.4601H13.0188H23.0541V23.8283ZM2.35167 26.5165C2.19009 26.6766 2.19009 43.0747 2.35167 43.2348C2.51354 43.3952 23.5241 43.3952 23.686 43.2348C23.8475 43.0747 23.8475 26.6766 23.686 26.5165C23.5241 26.3561 2.51354 26.3561 2.35167 26.5165ZM23.0541 34.8757V42.6088H13.0188H2.98352V34.8757V27.1425H13.0188H23.0541V34.8757ZM12.3912 34.6229C9.87452 37.1167 7.81533 39.2212 7.81533 39.2996C7.81533 39.4822 7.99764 39.6628 8.18199 39.6628C8.37024 39.6628 17.4789 30.639 17.4789 30.4525C17.4789 30.2689 17.2968 30.0885 17.1115 30.0885C17.0322 30.0885 14.9081 32.1289 12.3912 34.6229ZM10.4759 32.3778C8.95889 33.8825 8.82666 34.0393 8.92377 34.219C9.14473 34.6281 9.38855 34.4699 10.9988 32.8723C12.5903 31.2936 12.7643 31.035 12.3745 30.8282C12.2756 30.7758 12.1811 30.7329 12.1644 30.7329C12.1478 30.7329 11.3879 31.4731 10.4759 32.3778ZM15.0388 36.1425C13.432 37.7365 13.2716 37.979 13.6804 38.1958C13.8601 38.291 14.0237 38.1552 15.548 36.645C17.0723 35.1348 17.2094 34.9727 17.1132 34.7946C16.893 34.3869 16.648 34.5461 15.0388 36.1425ZM3.80614 45.7619C3.74667 45.8759 3.66862 46.0312 3.63266 46.1071C3.5967 46.1831 3.47182 46.2452 3.3552 46.2452C3.23859 46.2452 3.1137 46.1831 3.07774 46.1071C3.04178 46.0312 2.96373 45.8759 2.90426 45.7619C2.79787 45.5582 2.8053 45.5548 3.3552 45.5548C3.9051 45.5548 3.91253 45.5582 3.80614 45.7619ZM23.1334 45.7619C23.0739 45.8759 22.9958 46.0312 22.9599 46.1071C22.9239 46.1831 22.799 46.2452 22.6824 46.2452C22.5658 46.2452 22.4409 46.1831 22.405 46.1071C22.369 46.0312 22.291 45.8759 22.2315 45.7619C22.1251 45.5582 22.1325 45.5548 22.6824 45.5548C23.2323 45.5548 23.2398 45.5582 23.1334 45.7619Z" fill="#C1C1C1"/>
</svg>
