<svg width="30" height="21" viewBox="0 0 30 21" fill="none" xmlns="http://www.w3.org/2000/svg">
<path fill-rule="evenodd" clip-rule="evenodd" d="M2.25775 2.25785L0 4.51566L0.0241289 6.03861C0.0510332 7.73397 0.0918711 7.96461 0.497305 8.71051L0.690733 9.0665V14.5785C0.690733 18.4666 0.709254 20.1436 0.75349 20.2707C0.870397 20.606 0.94267 20.6173 2.97918 20.6173C4.90202 20.6173 5.04402 20.6011 5.15396 20.3703C5.26141 20.1448 5.26667 20.0737 5.18942 19.89C5.05427 19.5686 4.901 19.5411 3.24137 19.5411H1.7669V14.841V10.1409L2.12091 10.3337C2.94435 10.782 3.96139 10.9316 4.85931 10.7364C5.88598 10.5133 6.85476 9.84293 7.43323 8.95554L7.52046 8.8217L7.8014 9.20629C8.86165 10.6578 10.8891 11.2211 12.5474 10.5248C13.2177 10.2434 14.0644 9.54477 14.3712 9.02011C14.4304 8.91884 14.4933 8.83603 14.511 8.83603C14.5288 8.83603 14.5917 8.91889 14.6509 9.02011C14.9577 9.54477 15.8044 10.2434 16.4747 10.5248C18.133 11.2211 20.1604 10.6578 21.2207 9.20629L21.5016 8.8217L21.5889 8.95554C22.1062 9.74919 22.8897 10.3447 23.8284 10.6579C24.1656 10.7704 24.3393 10.7901 24.9896 10.7901C25.8408 10.7901 26.2145 10.7019 26.9012 10.3389L27.2552 10.1518V14.8464V19.5411H26.3773H25.4993V15.8672V12.1933L25.35 12.0439L25.2007 11.8946H20.7982H16.3957L16.2463 12.0439L16.097 12.1933V15.8639V19.5345L14.5063 19.552L12.9157 19.5694L12.7443 19.7613C12.6003 19.9225 12.5782 19.9852 12.6056 20.1544C12.6236 20.2651 12.6908 20.4081 12.755 20.4723C12.8714 20.5887 12.8845 20.5889 20.3608 20.6039C26.0379 20.6152 27.8893 20.6026 28.0126 20.5517C28.3417 20.4158 28.3314 20.6101 28.3314 14.5888V9.0665L28.5248 8.71051C28.9302 7.96461 28.9711 7.73397 28.998 6.03861L29.0221 4.51566L26.7643 2.25785L24.5065 9.76271e-05H19.1095C13.1912 9.76271e-05 13.4539 -0.0151386 13.3318 0.33507C13.253 0.561009 13.3222 0.788421 13.5129 0.930816C13.6684 1.04699 13.7128 1.04806 18.8919 1.06296L24.1141 1.07797L25.6701 2.63473L27.2261 4.1915H14.511H1.79602L3.35284 2.63388L4.90967 1.07627H7.95631C11.3345 1.07627 11.3297 1.07678 11.4765 0.727362C11.5189 0.626599 11.5413 0.504539 11.5262 0.456168C11.4594 0.2415 11.3736 0.121422 11.2453 0.0629687C11.1492 0.0191855 10.1066 9.76271e-05 7.81142 9.76271e-05H4.51556L2.25775 2.25785ZM27.9342 6.27304C27.9335 7.36553 27.8914 7.61996 27.618 8.18466C27.3958 8.64356 26.8177 9.21869 26.3456 9.45058C25.969 9.63551 25.337 9.79694 24.9896 9.79694C24.6355 9.79694 24.0069 9.63443 23.6303 9.44548C22.7754 9.01654 22.0443 7.91233 22.0443 7.05004C22.0443 6.53013 21.7868 6.23787 21.3938 6.31161C21.1059 6.36559 21.0191 6.50878 20.9614 7.02387C20.8349 8.15493 20.266 8.98851 19.2972 9.46236C17.3997 10.3905 15.2553 9.15503 15.0441 7.01215C15.0103 6.66839 14.9779 6.57545 14.8466 6.44415C14.6363 6.23379 14.3858 6.23379 14.1755 6.44415C14.0442 6.57545 14.0118 6.66839 13.978 7.01215C13.8045 8.77242 12.2661 10.008 10.5745 9.74551C9.24766 9.53962 8.18157 8.40131 8.0701 7.07145C8.02955 6.58796 7.90143 6.36287 7.63878 6.3136C7.2346 6.23776 6.97784 6.52385 6.97784 7.05004C6.97784 7.91233 6.24673 9.01654 5.39179 9.44548C5.01525 9.63443 4.38665 9.79694 4.03253 9.79694C3.67847 9.79694 3.04982 9.63443 2.67315 9.44548C2.21244 9.21444 1.62553 8.63847 1.40956 8.20556C1.137 7.65915 1.08863 7.36858 1.0879 6.27304L1.08722 5.26767H14.511H27.9349L27.9342 6.27304ZM20.2884 16.2276V19.5411H18.7025H17.1165V16.2276V12.9142H18.7025H20.2884V16.2276ZM24.4798 16.2276V19.5411H22.8939H21.3079V16.2276V12.9142H22.8939H24.4798V16.2276ZM3.67207 14.1396C3.46658 14.3452 3.46658 14.655 3.67207 14.8605C3.81424 15.0027 3.84969 15.0099 4.4084 15.0099C4.73125 15.0099 4.99542 15.0176 4.99542 15.0269C4.99542 15.1535 5.63042 18.1548 5.67471 18.2376C5.83144 18.5305 5.77332 18.5257 8.97935 18.5089C11.8734 18.4937 11.9623 18.49 12.0709 18.38C12.1489 18.3008 12.2944 17.8191 12.5538 16.7815C12.758 15.9646 12.9251 15.2299 12.9251 15.1487C12.9251 15.0611 12.8578 14.9338 12.7596 14.8356L12.594 14.67H10.0151C8.20734 14.67 7.39398 14.6893 7.29475 14.7345C7.11752 14.8152 6.96295 15.129 7.00934 15.3138C7.02842 15.39 7.10766 15.512 7.18538 15.585L7.32669 15.7179L9.53625 15.7345C11.231 15.7473 11.74 15.7671 11.7207 15.8195C11.7069 15.857 11.61 16.2383 11.5054 16.6666L11.3151 17.4454H8.93393H6.55281L6.23149 15.846C5.82719 13.8334 5.95531 13.9903 4.71681 13.9903C3.82489 13.9903 3.82081 13.9909 3.67207 14.1396ZM6.83341 18.9411C6.25732 19.192 6.13503 19.9664 6.60617 20.38C7.39761 21.0749 8.51904 19.9998 7.84201 19.1952C7.58095 18.885 7.189 18.7862 6.83341 18.9411ZM10.2913 18.9761C9.99339 19.1267 9.854 19.3287 9.82262 19.655C9.78716 20.0241 9.92667 20.2982 10.2449 20.4847C10.4439 20.6012 10.5459 20.6257 10.7421 20.6036C11.6081 20.5059 11.8276 19.3796 11.0568 18.9889C10.7465 18.8316 10.5825 18.8288 10.2913 18.9761Z" fill="#C1C1C1"/>
</svg>
