<svg width="25" height="22" viewBox="0 0 25 22" fill="none" xmlns="http://www.w3.org/2000/svg">
<path fill-rule="evenodd" clip-rule="evenodd" d="M11.6067 0.0175242C10.8579 0.103546 9.90763 0.342795 6.55329 1.28953C4.46492 1.87894 2.59974 2.43319 2.40838 2.52115C1.90863 2.7509 1.52133 3.02315 1.61826 3.07667C1.66065 3.10007 4.12648 3.80568 7.09794 4.64476L12.5006 6.17025L17.9027 4.64813C20.8739 3.81092 23.3426 3.11237 23.3886 3.09582C23.5131 3.05101 23.2277 2.83836 22.6907 2.57561C22.3541 2.41101 21.3076 2.0933 18.4469 1.28738C16.3586 0.699021 14.4112 0.175056 14.1194 0.122968C13.6144 0.0328635 12.0459 -0.0329632 11.6067 0.0175242ZM0.251668 4.85008C-0.00502203 5.49069 -0.012393 5.69512 0.00631297 11.6611C0.0257448 17.8636 -0.00234183 17.3831 0.385179 18.1417C0.619534 18.6004 1.19428 19.1707 1.65283 19.3994C1.95408 19.5496 7.89777 21.2728 9.48359 21.6696C9.91533 21.7776 11.2742 21.9991 11.509 21.9997C11.6016 22 11.6067 21.6244 11.6067 14.8821C11.6067 10.9673 11.594 7.76422 11.5784 7.76422C11.5628 7.76422 9.094 7.0708 6.09223 6.22328C3.0904 5.37575 0.569725 4.66656 0.490714 4.64719C0.36167 4.61563 0.337325 4.63632 0.251668 4.85008ZM19.8708 5.94496C17.3064 6.6706 14.8 7.38079 14.3009 7.52315L13.3935 7.78204V14.891C13.3935 20.725 13.4067 22 13.4669 22C13.6529 22 14.8171 21.8298 15.187 21.7485C15.4137 21.6987 17.2655 21.1892 19.3022 20.6163C21.8696 19.8942 23.1111 19.5198 23.3505 19.3956C23.8149 19.1547 24.3877 18.5867 24.615 18.1417C25.0026 17.3831 24.9745 17.8636 24.9939 11.6611C25.009 6.85627 24.9994 5.97084 24.9277 5.56402C24.834 5.03194 24.6875 4.61739 24.5947 4.62241C24.5609 4.62418 22.4352 5.21938 19.8708 5.94496ZM5.456 8.91721C6.10708 9.13278 6.58595 9.42318 7.05673 9.888C7.63231 10.4563 8.03301 11.2892 8.03301 11.9173C8.03301 12.5154 7.71562 12.9997 7.17064 13.2328C7.00106 13.3054 6.86252 13.3771 6.8628 13.3923C6.86308 13.4075 6.98983 13.5048 7.14451 13.6084C7.68514 13.9709 8.10962 14.5574 8.32047 15.2333C8.41618 15.54 8.43332 15.7039 8.41076 16.0951C8.36358 16.913 7.99739 17.4823 7.31537 17.7983C7.02903 17.931 6.94092 17.9441 6.35785 17.94C5.80901 17.9363 5.65518 17.9142 5.29893 17.7876C4.19595 17.3957 3.30789 16.6003 2.84342 15.5881C2.67188 15.2143 2.51369 14.5792 2.57657 14.5171C2.61443 14.4797 3.88442 14.6942 4.10253 14.7748C4.18327 14.8046 4.23146 14.8848 4.25575 15.0295C4.33951 15.5284 4.75042 16.0984 5.18172 16.3141C5.6377 16.5421 6.02036 16.5227 6.3277 16.2561C6.56596 16.0493 6.65871 15.7841 6.65374 15.3235C6.64358 14.3766 6.00752 13.659 5.10455 13.5757C4.68364 13.5368 4.69626 13.5653 4.79643 12.8787C4.89851 12.1787 4.84351 12.2398 5.34131 12.2735C5.86083 12.3087 6.07179 12.2273 6.21072 11.938C6.33055 11.6885 6.3248 11.2676 6.19782 10.9921C5.96949 10.4967 5.2547 10.1062 4.82988 10.2447C4.55186 10.3354 4.29182 10.6533 4.29182 10.9024C4.29182 10.9634 4.26842 11.0275 4.23978 11.045C4.17523 11.0844 2.6725 10.3843 2.6725 10.3148C2.6725 10.2872 2.72013 10.1276 2.77842 9.96028C2.99508 9.33804 3.31665 8.9944 3.86365 8.80073C4.2505 8.66378 4.8152 8.70505 5.456 8.91721ZM20.7018 9.09532C21.6819 9.30389 22.4496 10.1594 22.6866 11.3071C22.7964 11.8387 22.8011 12.914 22.696 13.4564C22.4102 14.9312 21.5359 16.2065 20.2148 17.0755C19.4379 17.5866 19.041 17.7288 16.0595 18.5645C15.9665 18.5906 15.9622 18.3681 15.9757 14.242L15.99 9.89203L17.1068 9.57222C17.721 9.39631 18.3869 9.21279 18.5865 9.16435C19.313 8.98805 20.0802 8.96306 20.7018 9.09532ZM18.5327 10.6636C18.3649 10.7098 18.0948 10.7857 17.9324 10.8324L17.6373 10.9172V13.7763V16.6354L18.2096 16.4705C19.9785 15.9608 20.8578 14.9793 21.0469 13.3032C21.1842 12.0873 20.8439 11.0703 20.1865 10.7314C19.8823 10.5746 18.9892 10.5379 18.5327 10.6636Z" fill="#C1C1C1"/>
</svg>
