<svg width="29" height="29" viewBox="0 0 29 29" fill="none" xmlns="http://www.w3.org/2000/svg">
<path fill-rule="evenodd" clip-rule="evenodd" d="M19.3804 0.102091C19.2595 0.176573 19.18 0.2847 19.14 0.428794C19.1045 0.556688 19.08 1.30168 19.0799 2.26355L19.0795 3.88297L16.5794 5.54871C15.2044 6.46487 14.0383 7.27704 13.9881 7.35357C13.913 7.46821 13.8969 7.6686 13.8969 8.49199C13.8969 9.20764 13.918 9.53061 13.9711 9.62995C14.143 9.95116 13.6992 9.93196 21.3239 9.94822C26.873 9.96011 28.4007 9.94816 28.5739 9.89158C28.9412 9.77167 28.9915 9.59829 28.9915 8.45075C28.9916 7.50582 28.9877 7.47342 28.8553 7.31601C28.7803 7.22692 27.5963 6.41571 26.2241 5.51331L23.7292 3.87266L23.7125 2.10383L23.6957 0.335054L23.5387 0.178046L23.3818 0.0210944L21.4714 0.00591472C19.6566 -0.008472 19.5519 -0.00365755 19.3804 0.102091ZM22.5913 2.37168V3.61778H21.4301H20.269V2.37168V1.12559H21.4301H22.5913V2.37168ZM25.4233 6.33987L27.8305 7.92751L27.847 8.37836L27.8634 8.82922L21.4466 8.81478L15.0297 8.80039V8.37559V7.95078L17.4086 6.35426L19.7875 4.75773L21.4018 4.75495L23.0161 4.75217L25.4233 6.33987ZM0.2019 14.1184C0.121527 14.193 0.040361 14.3395 0.0215563 14.4441C0.0027516 14.5488 -0.00529137 17.788 0.00365785 21.6424L0.0199703 28.6504L0.177035 28.8074L0.334043 28.9645H14.4916H28.6492L28.8063 28.8074L28.9633 28.6504L28.9796 21.6424C28.9886 17.788 28.9805 14.5488 28.9617 14.4441C28.9429 14.3395 28.8618 14.193 28.7814 14.1184L28.6353 13.983H14.4916H0.348033L0.2019 14.1184ZM13.8686 17.8912V20.6666H7.49653H1.12446V17.8912V15.1158H7.49653H13.8686V17.8912ZM27.8588 16.5037V17.8917L21.4443 17.8773L15.0297 17.8629L15.0146 16.4894L14.9994 15.1158H21.4291H27.8588V16.5037ZM17.6592 16.1876C17.4422 16.4046 17.4351 16.6802 17.6402 16.924C17.761 17.0675 17.8287 17.0983 18.0241 17.0983C18.3055 17.0983 18.4715 16.9956 18.5684 16.7617C18.7972 16.2092 18.0864 15.7604 17.6592 16.1876ZM21.0576 16.1876C20.8347 16.4106 20.8317 16.6891 21.0497 16.9331C21.3218 17.2376 21.789 17.1565 21.9475 16.7773C22.0132 16.62 22.0172 16.5386 21.9667 16.3855C21.8361 15.9901 21.359 15.8862 21.0576 16.1876ZM24.4398 16.1714C24.3255 16.2856 24.2905 16.377 24.2905 16.5602C24.2905 16.8981 24.4945 17.0983 24.839 17.0983C25.1751 17.0983 25.3666 16.9027 25.3666 16.5596C25.3666 16.2268 25.1617 16.0221 24.8286 16.0221C24.6454 16.0221 24.554 16.0571 24.4398 16.1714ZM3.74562 16.2924C3.3945 16.5652 3.49634 17.1162 3.9237 17.2557C4.09628 17.3121 4.89305 17.3247 7.50208 17.3124C10.7905 17.2968 10.8616 17.2941 11.0147 17.1798C11.3077 16.961 11.3295 16.5931 11.0652 16.3287L10.9284 16.192L7.39996 16.1932C4.14437 16.1944 3.86179 16.2021 3.74562 16.2924ZM27.8588 23.442V27.86H21.4301H15.0014V23.442V19.024H21.4301H27.8588V23.442ZM16.583 20.3224L16.4174 20.488V23.5432V26.5984L16.5598 26.7408C16.6382 26.8191 16.7815 26.8991 16.8784 26.9185C16.9753 26.9379 19.0658 26.9537 21.524 26.9537C26.4205 26.9537 26.2909 26.9624 26.4674 26.6211C26.5445 26.472 26.5561 26.0728 26.5561 23.5666C26.5561 21.6568 26.5355 20.6246 26.4952 20.5089C26.3865 20.1971 26.2552 20.1567 25.3545 20.1581C24.6735 20.1592 24.5262 20.1749 24.4245 20.2572C24.137 20.4902 24.103 20.8084 24.3377 21.071C24.4879 21.2391 24.5279 21.2524 24.9608 21.2774L25.4233 21.3042V23.5625V25.8209H21.4868H17.5502V23.5553V21.2897L18.8955 21.2895C20.0627 21.2895 20.2669 21.2764 20.4389 21.1904C20.7098 21.0551 20.8118 20.8302 20.7284 20.552C20.6103 20.1577 20.6055 20.1568 18.5674 20.1568H16.7485L16.583 20.3224ZM22.0582 20.3311C21.8531 20.5749 21.8601 20.8505 22.0771 21.0675C22.3558 21.3461 22.7862 21.2848 22.9638 20.9413C23.1643 20.5535 22.903 20.1568 22.447 20.1568C22.2461 20.1568 22.1799 20.1865 22.0582 20.3311ZM13.8686 24.8297V27.86H7.49653H1.12446V24.8297V21.7994H7.49653H13.8686V24.8297ZM3.89985 23.0622C3.62469 23.157 3.46746 23.473 3.55837 23.7485C3.68717 24.1387 3.51101 24.1217 7.41214 24.1217H10.9284L11.0652 23.985C11.3295 23.7206 11.3077 23.3527 11.0147 23.1339C10.8614 23.0194 10.7941 23.017 7.47824 23.0056C4.96186 22.9969 4.04746 23.0114 3.89985 23.0622Z" fill="#C1C1C1"/>
</svg>
