<svg width="29" height="28" viewBox="0 0 29 28" fill="none" xmlns="http://www.w3.org/2000/svg">
<path fill-rule="evenodd" clip-rule="evenodd" d="M20.0049 0.078245C18.9143 0.348668 18.1338 1.12057 17.7867 2.27188C17.65 2.72542 17.6502 3.67011 17.7871 4.04971C17.875 4.2934 17.8728 4.33228 17.7543 4.64542C17.6395 4.94865 17.4396 5.19428 17.0292 5.53567C16.959 5.59417 16.9015 5.69557 16.9015 5.76107C16.9015 6.02469 17.6204 6.45368 18.2653 6.57483C18.4616 6.61171 18.6222 6.65648 18.6222 6.67434C18.6222 6.69221 18.4785 6.74057 18.3029 6.78182C17.3354 7.00905 16.4419 7.77633 15.9159 8.83165C15.4987 9.66856 15.4716 9.838 15.4419 11.7935L15.4154 13.5402H14.1612H12.9069V12.2672C12.9069 11.4557 12.8819 10.9399 12.838 10.8446C12.762 10.6798 12.6248 10.626 12.277 10.6248L12.0466 10.6239V8.63006C12.0466 6.33308 12.0251 6.1931 11.6079 5.77656C11.1939 5.36318 11.0361 5.33821 8.83568 5.33821H6.93765L6.95713 5.17113C6.97581 5.01062 6.99198 5.00333 7.36753 4.98577C7.58262 4.97574 7.82223 4.92629 7.89997 4.87592C8.22623 4.66455 8.34668 3.96854 8.12047 3.60182C7.91595 3.27022 7.68986 3.21177 6.61194 3.21177C5.91492 3.21177 5.59321 3.23577 5.43957 3.29926C5.14496 3.42095 4.97977 3.71233 4.97952 4.11095C4.97909 4.69627 5.2203 4.94962 5.83878 5.01353C6.16824 5.04762 6.20837 5.06639 6.20837 5.18687C6.20837 5.31531 6.17875 5.32339 5.60919 5.35091C4.95304 5.38262 4.65283 5.49077 4.35262 5.80348C3.97824 6.19347 3.96786 6.26418 3.94604 8.57344L3.92601 10.6847H3.63477C3.10528 10.6847 3.11376 10.6604 3.10362 12.2111L3.09477 13.5706L1.6072 13.601C0.375281 13.6261 0.109674 13.647 0.0614938 13.7225C-0.0301965 13.8661 -0.0150176 16.3509 0.0782706 16.4729C0.13149 16.5425 0.268534 16.5788 0.523817 16.5909L0.892544 16.6083L0.907232 22.1979L0.921981 27.7874L1.05233 27.8937C1.1756 27.9942 1.90741 28 14.4979 28C26.4497 28 27.8271 27.9903 27.9496 27.9054L28.0862 27.8109V22.2248V16.6387H28.4454C29.0202 16.6387 29.0135 16.6576 28.9939 15.0851L28.9773 13.7564L28.8237 13.6796C28.7131 13.6243 28.2692 13.6025 27.2412 13.6019L25.8124 13.601L25.8113 11.9454C25.8101 10.0199 25.7663 9.72585 25.3573 8.89459C24.8861 7.93709 24.0252 7.15942 23.1062 6.86117C22.8934 6.79209 22.6756 6.73407 22.622 6.73224C22.5684 6.73042 22.7234 6.67738 22.9664 6.61444C23.7548 6.41012 24.3375 6.0547 24.3375 5.77808C24.3375 5.72826 24.2022 5.56623 24.0369 5.41792C23.8411 5.24228 23.6772 5.01815 23.5667 4.77476C23.4087 4.42676 23.4024 4.38234 23.4742 4.12547C23.591 3.70729 23.6253 2.86461 23.5416 2.46672C23.4282 1.92679 23.0807 1.30265 22.6547 0.873473C21.926 0.139487 20.9453 -0.154874 20.0049 0.078245ZM21.3306 0.874445C21.4803 0.925541 21.6685 1.0171 21.7488 1.07798L21.8949 1.18861L21.4108 1.56572C20.8577 1.99672 19.8397 2.51308 19.0002 2.78849C18.6842 2.89213 18.4169 2.96826 18.4061 2.95763C18.3953 2.947 18.4122 2.80161 18.4437 2.63453C18.5965 1.82199 19.2611 1.07214 20.0357 0.838357C20.3051 0.757066 21.0473 0.777723 21.3306 0.874445ZM22.6169 1.96665C23.1274 3.00921 22.9775 4.10317 22.2135 4.91067C21.4653 5.70147 20.2734 5.80335 19.3668 5.15406C19.0327 4.91481 18.7148 4.47573 18.5678 4.05032L18.448 3.70413L19.0729 3.51403C19.8986 3.26274 21.0543 2.70173 21.6642 2.25602C21.9346 2.05845 22.1938 1.85091 22.2402 1.79483C22.3762 1.63043 22.4742 1.67508 22.6169 1.96665ZM7.46801 4.00104C7.48939 4.06757 7.48958 4.14959 7.46856 4.18331C7.44564 4.21995 7.07334 4.24461 6.54274 4.24461H5.65528V4.06235V3.88008H6.54225C7.37386 3.88008 7.43162 3.88761 7.46801 4.00104ZM18.9909 5.91405C18.9909 5.96995 18.9352 6.00652 18.8502 6.00652C18.715 6.00652 18.0035 5.84048 17.9618 5.79916C17.9506 5.7881 18.0283 5.64102 18.1344 5.4723L18.3273 5.16554L18.6591 5.49356C18.8416 5.67401 18.9909 5.8632 18.9909 5.91405ZM23.1534 5.4935L23.3519 5.76283L23.1344 5.85269C23.0148 5.90208 22.7802 5.96047 22.6132 5.98234C22.3445 6.01758 22.3095 6.00925 22.3095 5.9101C22.3095 5.80961 22.8407 5.21123 22.9217 5.22047C22.9399 5.22253 23.0441 5.34538 23.1534 5.4935ZM10.9424 6.15944C11.2993 6.34189 11.3091 6.40878 11.3091 8.64635V10.6847H7.99055H4.672V8.67375C4.672 6.47416 4.69093 6.34262 5.03342 6.15859C5.2809 6.02566 10.6822 6.02639 10.9424 6.15944ZM20.6195 6.27919C20.8223 6.27883 21.1196 6.25519 21.2801 6.22676L21.572 6.175V6.51103V6.84707L21.2801 6.95838C20.9194 7.09599 20.2798 7.09726 19.9588 6.96111C19.7315 6.86463 19.7284 6.85868 19.7284 6.52069V6.17809L19.9896 6.22901C20.1332 6.25702 20.4167 6.27962 20.6195 6.27919ZM20.2047 7.76703C20.6656 7.84802 21.1701 7.77444 21.6793 7.55178C21.8653 7.47042 22.0417 7.4039 22.0713 7.4039C22.1009 7.4039 22.1251 7.70464 22.1251 8.07221V8.74052H20.6195H19.1138V8.11273C19.1138 7.7674 19.1298 7.46915 19.1492 7.44989C19.1687 7.43063 19.3278 7.47893 19.5026 7.55718C19.6775 7.6355 19.9934 7.72991 20.2047 7.76703ZM18.342 9.82524C18.2875 10.0104 18.1586 10.3274 18.0555 10.5296C17.8055 11.02 17.0505 11.7639 16.5826 11.9808C16.3904 12.0699 16.2175 12.1428 16.1986 12.1428C16.1262 12.1428 16.168 10.5535 16.2515 10.128C16.3611 9.56971 16.4741 9.30305 16.8188 8.78864C17.1515 8.29196 17.5314 7.95258 18.0305 7.70597L18.4071 7.51976L18.4241 8.50418C18.4372 9.26848 18.4189 9.56387 18.342 9.82524ZM23.3101 7.68586C23.7929 7.92749 24.4514 8.61779 24.7219 9.1658C25.0456 9.8216 25.1344 10.2683 25.1355 11.2467C25.136 11.7062 25.1121 12.0821 25.0824 12.0821C24.968 12.0821 24.6026 11.9016 24.3514 11.7211C23.7489 11.2882 23.2888 10.6689 23.0523 9.97276C22.9422 9.64845 22.924 9.44832 22.924 8.56019C22.924 7.99104 22.9388 7.52541 22.9568 7.52541C22.9749 7.52541 23.1338 7.59759 23.3101 7.68586ZM22.2298 9.92482C22.4141 10.7276 22.9905 11.6184 23.6942 12.1883C23.9812 12.4207 24.7194 12.8134 25.0106 12.8887C25.1184 12.9166 25.1364 12.9698 25.1364 13.2611V13.601H20.6502H16.164V13.2637C16.164 12.9302 16.1665 12.9255 16.3945 12.8383C16.8146 12.6775 17.2645 12.4245 17.6046 12.1578C18.2275 11.6694 18.8344 10.7206 19.033 9.92494L19.132 9.52827L20.6391 9.54449L22.1462 9.56072L22.2298 9.92482ZM12.1695 12.5078V13.6018L8.00592 13.5862L3.84237 13.5706L3.82559 12.4922L3.80881 11.4138H7.98914H12.1695V12.5078ZM28.2878 15.0743C28.3073 15.4836 28.303 15.8391 28.2783 15.8642C28.2536 15.8894 22.0402 15.903 14.4708 15.8946L0.708181 15.8793L0.717337 15.697C0.722377 15.5968 0.729321 15.2482 0.732701 14.9224L0.738908 14.33H14.4957H28.2525L28.2878 15.0743ZM27.3488 21.9548V27.2709H14.5047H1.66073V21.9548V16.6387H14.5047H27.3488V21.9548Z" fill="#C1C1C1"/>
</svg>
