<svg width="29" height="24" viewBox="0 0 29 24" fill="none" xmlns="http://www.w3.org/2000/svg">
<path fill-rule="evenodd" clip-rule="evenodd" d="M1.76742 0.0888453C1.63386 0.141861 1.42548 0.282273 1.30432 0.400878C0.881728 0.814638 0.905687 0.376692 0.905687 7.67948C0.905687 12.4785 0.923189 14.2774 0.971447 14.4384C1.05652 14.7225 1.3655 15.0807 1.66224 15.2394C1.89129 15.3619 1.9498 15.3653 4.12004 15.3821L6.34318 15.3993V15.8777V16.3561H3.67926C1.57223 16.3561 0.977224 16.3721 0.833074 16.4325C0.53758 16.5564 0.275673 16.8132 0.133506 17.1185C0.00175947 17.4013 0.000513378 17.4228 3.61269e-06 19.4434C-0.000336231 20.5974 0.0233395 21.5663 0.0545485 21.675C0.186238 22.1342 0.56556 22.4816 1.06479 22.6002C1.23369 22.6404 1.35881 22.7016 1.35881 22.7442C1.35881 22.785 1.4214 22.8809 1.49786 22.9573C1.62797 23.0875 1.67538 23.0964 2.23674 23.0964C2.79811 23.0964 2.84551 23.0875 2.97562 22.9573C3.05208 22.8809 3.11467 22.7789 3.11467 22.7308C3.11467 22.6521 4.26861 22.6432 14.4994 22.6432C24.7303 22.6432 25.8842 22.6521 25.8842 22.7308C25.8842 22.7789 25.9468 22.8809 26.0232 22.9573C26.1533 23.0875 26.2008 23.0964 26.7621 23.0964C27.3235 23.0964 27.3709 23.0875 27.501 22.9573C27.5775 22.8809 27.64 22.785 27.64 22.7442C27.64 22.7016 27.7652 22.6404 27.9341 22.6002C28.4333 22.4816 28.8126 22.1342 28.9443 21.675C28.9755 21.5663 28.9992 20.5974 28.9989 19.4434C28.9983 17.4228 28.9971 17.4013 28.8654 17.1185C28.6637 16.6853 28.205 16.3561 27.8031 16.3561H27.64V15.5991C27.64 14.9191 27.6281 14.827 27.5226 14.6929L27.4053 14.5436H24.4924C21.655 14.5436 21.5766 14.5466 21.4662 14.6569C21.3637 14.7594 21.3529 14.8457 21.3529 15.5636V16.357L17.912 16.3424L14.4711 16.3278L14.4547 15.8605L14.4382 15.3932H16.5051C17.7854 15.3932 18.6818 15.3697 18.8604 15.3314C19.236 15.2509 19.5827 14.9816 19.7639 14.6299C19.9013 14.3631 19.9095 14.2958 19.9271 13.2922L19.9456 12.2354L20.7521 12.2111C21.6926 12.1828 21.8834 12.1084 22.0852 11.6916C22.2003 11.454 22.2026 11.3765 22.2026 7.68424V3.91922L22.0751 3.66649C21.8663 3.25239 21.612 3.15888 20.6948 3.15888H19.9473L19.9271 2.06855C19.9099 1.14344 19.8909 0.948196 19.8021 0.779974C19.656 0.503341 19.438 0.28097 19.1723 0.137556L18.9457 0.0153258L10.4779 0.0038844C2.62025 -0.00676404 1.99268 -0.000646857 1.76742 0.0888453ZM18.9001 0.973288L19.059 1.11002L19.0739 7.60171C19.0904 14.839 19.1157 14.3684 18.7047 14.4874C18.5555 14.5306 16.0501 14.5438 10.2606 14.532L2.0287 14.5153L1.89197 14.3564L1.7553 14.1975V7.68259V1.16774L1.92086 1.00217L2.08642 0.836614H10.4138H18.7411L18.9001 0.973288ZM2.85724 1.93856L2.71819 2.07755V7.42952V12.7814L2.85367 12.939C2.97556 13.0807 3.03237 13.0987 3.42053 13.1183C4.16195 13.1557 4.47404 13.0274 4.47404 12.6853C4.47404 12.4051 4.35261 12.3099 3.95482 12.2782L3.59612 12.2497L3.58162 7.4494L3.56717 2.64911H9.3448C15.047 2.64911 15.1239 2.64764 15.2358 2.53583C15.4044 2.36716 15.3868 2.06402 15.1998 1.91692C15.0509 1.79979 15.0351 1.7995 9.02342 1.7995H2.99623L2.85724 1.93856ZM16.5178 1.91692C16.4115 2.00052 16.3686 2.08701 16.3686 2.21757C16.3686 2.52264 16.4817 2.6166 16.8878 2.64889L17.2465 2.67743V7.46356V12.2497L11.4589 12.2641L5.67131 12.2785L5.55412 12.4275C5.40148 12.6215 5.40624 12.7458 5.57361 12.9404L5.71034 13.0993H11.7742H17.8381L17.9671 12.9703L18.0961 12.8413L18.113 7.58942C18.1243 4.07617 18.1104 2.27036 18.071 2.13453C17.9917 1.86073 17.8315 1.7995 17.1948 1.7995C16.7466 1.7995 16.6445 1.81723 16.5178 1.91692ZM21.3392 7.67597L21.3246 11.3434L20.6308 11.3594L19.9369 11.3753V7.69188V4.00849H20.6453H21.3538L21.3392 7.67597ZM6.93791 4.57121C6.548 4.66614 6.23075 4.92301 6.02396 5.31122C5.92682 5.49366 5.91838 5.66568 5.91838 7.46804V9.42661L6.08966 9.70359C6.18385 9.85595 6.37083 10.0578 6.50518 10.1522L6.74941 10.3239H10.3882H14.0269L14.2996 10.154C14.4893 10.0358 14.6259 9.88926 14.7483 9.67255L14.9242 9.36102V7.46356C14.9242 5.5887 14.9226 5.56288 14.7917 5.297C14.7188 5.149 14.5659 4.9507 14.4519 4.8564C14.0459 4.52058 14.0106 4.51769 10.3968 4.52403C8.58791 4.52726 7.03137 4.54844 6.93791 4.57121ZM13.8157 5.45073C13.9039 5.49632 13.9918 5.57483 14.0111 5.62529C14.0304 5.6757 14.0463 6.50974 14.0463 7.47869C14.0463 9.20957 14.0442 9.24276 13.9232 9.37156L13.8 9.50263H10.4444C8.59878 9.50263 7.04751 9.48677 6.9971 9.46745C6.76368 9.3779 6.73961 9.18872 6.74052 7.45224C6.74142 5.6778 6.7557 5.57636 7.024 5.44059C7.13173 5.3861 7.92051 5.36933 10.41 5.36871C13.1488 5.36798 13.6805 5.38078 13.8157 5.45073ZM8.00598 7.74535C7.86257 7.80431 7.70256 8.01677 7.70256 8.14824C7.70256 8.19938 7.7554 8.30842 7.81997 8.39049L7.93733 8.53974H10.3971C12.7814 8.53974 12.8603 8.53628 12.9701 8.42645C13.1228 8.27381 13.1198 7.96716 12.9642 7.82635C12.8515 7.72428 12.7175 7.71782 10.4862 7.70695C9.18886 7.70061 8.07276 7.71788 8.00598 7.74535ZM13.5932 15.8747V16.3561H10.393H7.19279V15.8747V15.3932H10.393H13.5932V15.8747ZM26.7904 15.8747V16.3561H24.4965H22.2026V15.8747V15.3932H24.4965H26.7904V15.8747ZM19.9936 19.4997V21.7936H10.5869H1.18017L1.01461 21.6281L0.849046 21.4625V19.4731V17.4838L0.988099 17.3448L1.12709 17.2057H10.5604H19.9936V19.4997ZM28.0108 17.3448L28.1498 17.4838V18.7325V19.9811H24.4965H20.8432V18.5934V17.2057H24.3574H27.8718L28.0108 17.3448ZM1.92935 18.3179C1.78299 18.504 1.77993 18.683 1.92023 18.8562L2.02847 18.9899L10.3635 19.0047L18.6984 19.0194L18.8703 18.8475C19.0082 18.7096 19.035 18.645 19.0057 18.5212C18.9856 18.4363 18.9165 18.3222 18.8521 18.2678C18.7416 18.1744 18.2552 18.1686 10.3908 18.1686H2.04671L1.92935 18.3179ZM28.1498 21.1466C28.1498 21.4203 28.1277 21.4847 27.9843 21.6281L27.8187 21.7936H24.3309H20.8432V21.3122V20.8307H24.4965H28.1498V21.1466Z" fill="#C1C1C1"/>
</svg>
