<svg width="29" height="29" viewBox="0 0 29 29" fill="none" xmlns="http://www.w3.org/2000/svg">
<path fill-rule="evenodd" clip-rule="evenodd" d="M0.219524 0.0803944C0.147107 0.124556 0.0681212 0.197593 0.0439545 0.242787C0.0131369 0.300333 0 4.56559 0 14.5123C0 28.5556 0.000826353 28.7007 0.0812167 28.8029C0.230513 28.9927 0.321437 29.0048 1.5037 28.9917L2.60905 28.9793L2.75037 28.8251L2.89174 28.6707V27.8646V27.0584H14.5H26.1083V27.824C26.1083 28.6798 26.1402 28.8264 26.3508 28.9353C26.455 28.9892 26.6562 29 27.5541 29C28.7084 29 28.7939 28.9867 28.9355 28.7845C28.9936 28.7015 29 27.2937 29 14.4963C29 0.4443 28.9992 0.299094 28.9188 0.196891C28.7695 0.00710911 28.6786 -0.00495367 27.4963 0.00818315L26.391 0.0204938L26.2496 0.17479L26.1083 0.329127V1.13526V1.94144H14.5H2.89174V1.18335C2.89174 0.743432 2.87286 0.37114 2.84679 0.296285C2.82205 0.225354 2.74083 0.129637 2.66635 0.0835753C2.53919 0.00500226 2.46372 -0.000161622 1.44099 3.62073e-06C0.434711 0.000127553 0.34106 0.00628286 0.219524 0.0803944ZM1.90028 14.4999V28.0499H1.42521H0.950142V14.4999V0.949986H1.42521H1.90028V14.4999ZM28.0499 14.4999V28.0499H27.5748H27.0997V14.4999V0.949986H27.5748H28.0499V14.4999ZM26.1083 3.38732V3.88305H14.5H2.89174V3.38732V2.89159H14.5H26.1083V3.38732ZM26.1083 8.94362V13.054H24.9103H23.7123V12.0832C23.7123 11.1426 23.7148 11.1124 23.7942 11.1124C23.8393 11.1124 23.9369 11.0582 24.0111 10.9919L24.146 10.8715L24.1582 9.69333L24.1703 8.51519L24.0479 8.37828L23.9256 8.24134L19.8594 8.23043L15.7933 8.21948L15.6787 8.30967C15.4686 8.47491 15.4501 8.58397 15.4501 9.66255C15.4501 10.2636 15.4675 10.6983 15.4942 10.7689C15.5567 10.9339 15.6889 11.0626 15.8271 11.0929L15.9459 11.119V12.0865V13.054H14.5025H13.0592L13.0463 11.6805L13.0335 10.3069L12.9056 10.0384C12.7573 9.72679 12.5241 9.4781 12.2535 9.34297L12.0627 9.24767V8.63648C12.0627 7.94712 12.0309 7.85802 11.7521 7.76602C11.551 7.69963 11.3852 7.74776 11.2382 7.91519L11.1125 8.05833V8.65502V9.25176L10.9416 9.33901C10.7107 9.45678 10.4122 9.76599 10.2863 10.0177L10.183 10.2243L10.1707 11.6391L10.1583 13.054H8.94377H7.72916L7.71677 11.6598L7.70442 10.2656L7.588 10.0285C7.45065 9.74877 7.17184 9.45612 6.94149 9.34991L6.77708 9.27411L6.77365 8.73707C6.76972 8.11406 6.72655 7.95063 6.53128 7.81935C6.35352 7.69979 6.20488 7.69975 6.0277 7.81914C5.80876 7.9667 5.78476 8.05329 5.7841 8.69778L5.78348 9.27816L5.64475 9.32831C5.43498 9.40419 5.09231 9.75699 4.9654 10.0278L4.85399 10.2656L4.84209 11.6598L4.83019 13.054H3.86097H2.89174V8.94362V4.8332H14.5H26.1083V8.94362ZM23.2075 9.65623L23.1959 10.1416L19.8187 10.1522L16.4416 10.1628V9.66681V9.17083H19.8304H23.2191L23.2075 9.65623ZM6.59998 10.3037L6.75427 10.445L6.76724 11.7495L6.78026 13.054H6.28185H5.78348V11.8106C5.78348 10.4504 5.79917 10.3479 6.02642 10.2244C6.22294 10.1176 6.42775 10.1459 6.59998 10.3037ZM11.9222 10.3027L12.0627 10.4432V11.7486V13.054H11.5876H11.1125V11.792C11.1125 10.4142 11.1222 10.3509 11.3506 10.2269C11.4128 10.1932 11.5353 10.1649 11.6227 10.1639C11.7497 10.1626 11.8101 10.1906 11.9222 10.3027ZM22.7208 12.0832V13.054H19.8291H16.9373V12.0832V11.1124H19.8291H22.7208V12.0832ZM26.1083 14.4999V14.9956H14.5H2.89174V14.4999V14.0042H14.5H26.1083V14.4999ZM26.1083 20.0562V24.1666H24.6624H23.2165V23.1958C23.2165 22.2372 23.2176 22.225 23.3033 22.225C23.449 22.225 23.6598 21.9766 23.6909 21.7681C23.706 21.6673 23.7123 21.1538 23.7049 20.6272C23.6925 19.7309 23.6861 19.6622 23.605 19.5531C23.5574 19.489 23.4737 19.4136 23.4191 19.3855C23.2751 19.3115 17.3332 19.3115 17.1892 19.3855C17.1345 19.4136 17.0509 19.489 17.0033 19.5531C16.9222 19.6621 16.9158 19.7314 16.9029 20.6249C16.8861 21.7897 16.9004 21.9072 17.0815 22.0883C17.1567 22.1635 17.2573 22.225 17.305 22.225C17.3907 22.225 17.3917 22.2372 17.3917 23.1958V24.1666H15.4708H13.5499V23.1958C13.5499 22.2372 13.5509 22.225 13.6366 22.225C13.6843 22.225 13.7866 22.1618 13.8638 22.0846L14.0043 21.9441V20.784V19.6238L13.8837 19.4889L13.7632 19.3539L9.69459 19.343L5.626 19.3321L5.49938 19.4386C5.42977 19.4972 5.35376 19.6137 5.33051 19.6974C5.26362 19.9381 5.27523 21.7433 5.34472 21.9096C5.40982 22.0654 5.59283 22.225 5.70643 22.225C5.77943 22.225 5.78348 22.276 5.78348 23.1958V24.1666H4.33761H2.89174V20.0562V15.9458H14.5H26.1083V20.0562ZM13.0451 20.7688L13.0335 21.2542L9.65634 21.2648L6.2792 21.2754V20.7794V20.2834H9.66799H13.0567L13.0451 20.7688ZM22.7208 20.7792V21.2749H20.3041H17.8875V20.7792V20.2834H20.3041H22.7208V20.7792ZM12.5584 23.1958V24.1666H9.66667H6.77493V23.1958V22.225H9.66667H12.5584V23.1958ZM22.2251 23.1958V24.1666H20.3041H18.3832V23.1958V22.225H20.3041H22.2251V23.1958ZM26.1083 25.6221V26.1082H14.5H2.89174V25.6228V25.1374L14.5 25.1367L26.1083 25.1359V25.6221Z" fill="#C1C1C1"/>
</svg>
