<svg width="29" height="29" viewBox="0 0 29 29" fill="none" xmlns="http://www.w3.org/2000/svg">
<path fill-rule="evenodd" clip-rule="evenodd" d="M0.145363 0.14502C0.00101755 0.289025 0 0.386697 0 14.4894V28.6887L0.168185 28.8464C0.392845 29.0569 0.611108 29.0452 0.794193 28.813C0.924584 28.6476 0.944862 28.5209 0.944862 27.8704V27.1188H5.1604H9.37594V27.8704C9.37594 28.5209 9.39622 28.6476 9.52661 28.813C9.72089 29.0594 9.97585 29.0594 10.1701 28.813C10.3005 28.6476 10.3208 28.5209 10.3208 27.8704V27.1188H14.5363H18.7519V27.8704C18.7519 28.5209 18.7722 28.6476 18.9025 28.813C19.0968 29.0594 19.3518 29.0594 19.5461 28.813C19.6765 28.6476 19.6967 28.5209 19.6967 27.8704V27.1188H23.9123H28.1278V27.8704C28.1278 28.5209 28.1481 28.6476 28.2785 28.813C28.4377 29.0149 28.6274 29.0529 28.8594 28.929C28.9977 28.8552 29 28.6177 29 14.547C29 0.778686 28.995 0.235513 28.8671 0.120004C28.7444 0.00920879 27.6439 0 14.5124 0C0.387612 0 0.289709 0.00101515 0.145363 0.14502ZM9.37594 9.86464V18.7867L9.55437 18.9647C9.65249 19.0626 9.78477 19.1427 9.84837 19.1427C9.91197 19.1427 10.0442 19.0626 10.1424 18.9647L10.3208 18.7867V9.86464V0.942632H14.5363H18.7519V2.93666C18.7519 4.83403 18.7589 4.93772 18.8972 5.07571C19.0831 5.26112 19.3655 5.26112 19.5514 5.07571C19.6897 4.93772 19.6967 4.83403 19.6967 2.93666V0.942632H23.9123H28.1278V13.5957V26.2487H23.9123H19.6967V16.384V6.51932L19.5183 6.34138C19.2934 6.11688 19.1553 6.11688 18.9303 6.34138L18.7519 6.51932V16.384V26.2487H14.5363H10.3208V23.312C10.3208 20.472 10.316 20.3706 10.1754 20.2303C9.97789 20.0333 9.63309 20.0414 9.48911 20.2465C9.3912 20.3859 9.37594 20.8022 9.37594 23.3282V26.2487H5.1604H0.944862V13.5957V0.942632H5.1604H9.37594V9.86464ZM2.62919 2.63313C2.42408 2.85095 2.42953 3.01048 2.64961 3.22996L2.82797 3.40798H5.1604H7.49283L7.67119 3.22996C7.88887 3.01287 7.89418 2.90396 7.69895 2.65641L7.54836 2.46535H5.16781H2.78727L2.62919 2.63313ZM11.9978 2.65641C11.8026 2.90396 11.8079 3.01287 12.0256 3.22996L12.2039 3.40798H14.5363H16.8688L17.0471 3.22996C17.2648 3.01287 17.2701 2.90396 17.0749 2.65641L16.9243 2.46535H14.5363H12.1484L11.9978 2.65641ZM21.4015 2.64336C21.3034 2.74125 21.2231 2.87322 21.2231 2.93666C21.2231 3.00011 21.3034 3.13208 21.4015 3.22996L21.5799 3.40798H23.8992C26.1355 3.40798 26.2254 3.40261 26.41 3.25766C26.6463 3.07218 26.6552 2.83101 26.4333 2.62298C26.2677 2.46788 26.2276 2.46535 23.9225 2.46535H21.5799L21.4015 2.64336ZM2.58434 4.5118C2.52213 4.60041 2.47118 4.72367 2.47118 4.78567C2.47118 4.84767 2.52213 4.97093 2.58434 5.05954C2.69736 5.22059 2.69976 5.22073 5.09659 5.22073C6.51373 5.22073 7.54988 5.1918 7.62802 5.15011C7.82142 5.04685 7.87884 4.73216 7.74227 4.5242L7.62824 4.35061H5.16287C2.69758 4.35061 2.69744 4.35061 2.58434 4.5118ZM11.9603 4.5118C11.808 4.72868 11.8178 4.90147 11.9925 5.07571C12.132 5.21486 12.2347 5.22073 14.5363 5.22073C16.838 5.22073 16.9407 5.21486 17.0802 5.07571C17.2549 4.90147 17.2647 4.72868 17.1124 4.5118C16.9993 4.35061 16.9991 4.35061 14.5363 4.35061C12.0736 4.35061 12.0734 4.35061 11.9603 4.5118ZM21.3684 4.49563C21.2885 4.57539 21.2231 4.70591 21.2231 4.78567C21.2231 4.86543 21.2885 4.99595 21.3684 5.07571C21.5079 5.21486 21.6107 5.22073 23.9123 5.22073C26.2139 5.22073 26.3167 5.21486 26.4561 5.07571C26.6308 4.90147 26.6406 4.72868 26.4883 4.5118C26.3752 4.35068 26.3739 4.35061 23.9445 4.35061C21.6107 4.35061 21.508 4.35641 21.3684 4.49563ZM2.66269 6.31368C2.4235 6.50133 2.41928 6.69827 2.64961 6.92798L2.82797 7.106H5.1604H7.49283L7.67119 6.92798C7.89621 6.70356 7.89621 6.5658 7.67119 6.34138L7.49283 6.16336H5.17348C2.93714 6.16336 2.84731 6.16873 2.66269 6.31368ZM12.0256 6.34138C11.9274 6.43926 11.8471 6.57123 11.8471 6.63468C11.8471 6.69813 11.9274 6.83009 12.0256 6.92798L12.2039 7.106H14.5363H16.8688L17.0471 6.92798C17.1453 6.83009 17.2256 6.69813 17.2256 6.63468C17.2256 6.57123 17.1453 6.43926 17.0471 6.34138L16.8688 6.16336H14.5363H12.2039L12.0256 6.34138ZM21.4015 6.34138C21.3034 6.43926 21.2231 6.57123 21.2231 6.63468C21.2231 6.69813 21.3034 6.83009 21.4015 6.92798L21.5799 7.106H23.8992C26.1355 7.106 26.2254 7.10063 26.41 6.95568C26.52 6.8694 26.6015 6.73279 26.6015 6.63468C26.6015 6.53657 26.52 6.39996 26.41 6.31368C26.2254 6.16873 26.1355 6.16336 23.8992 6.16336H21.5799L21.4015 6.34138ZM3.39096 12.2875C2.86831 12.4734 2.47438 13.0201 2.47438 13.5594C2.47438 14.0643 2.89935 14.684 3.36625 14.8599C3.80431 15.025 4.47618 14.9003 4.82025 14.5899C5.18075 14.2647 5.33782 13.5553 5.15575 13.0747C4.98473 12.6231 4.35698 12.1831 3.88847 12.1865C3.76855 12.1874 3.54469 12.2328 3.39096 12.2875ZM12.8073 12.2636C12.31 12.4067 11.8454 13.07 11.8492 13.6319C11.852 14.0698 12.3075 14.6961 12.7422 14.8599C13.2024 15.0335 13.8189 14.9166 14.1988 14.5839C14.5549 14.2721 14.7133 13.5542 14.5317 13.0747C14.4218 12.7845 14.1116 12.4754 13.7732 12.3192C13.4566 12.1729 13.1781 12.1569 12.8073 12.2636ZM22.2043 12.2692C21.248 12.6027 20.9443 13.7249 21.6065 14.4775C21.8892 14.7987 22.201 14.9371 22.6417 14.9371C23.422 14.9371 23.985 14.3519 23.985 13.5405C23.985 12.6426 23.0493 11.9745 22.2043 12.2692ZM4.11378 13.1798C4.39724 13.3687 4.37282 13.8329 4.0709 13.9941C3.63917 14.2245 3.20352 13.6238 3.53633 13.257C3.65785 13.123 3.9666 13.0818 4.11378 13.1798ZM13.5152 13.195C13.6839 13.285 13.7628 13.593 13.6642 13.7768C13.433 14.2079 12.792 14.062 12.792 13.578C12.792 13.2104 13.1696 13.0104 13.5152 13.195ZM22.9674 13.2694C23.0474 13.3491 23.1128 13.4811 23.1128 13.5627C23.1128 13.7318 22.8074 14.067 22.6534 14.067C22.4597 14.067 22.1679 13.7731 22.1679 13.578C22.1679 13.1649 22.6689 12.9716 22.9674 13.2694ZM2.58434 20.2465C2.52213 20.3351 2.47118 20.4584 2.47118 20.5204C2.47118 20.5824 2.52213 20.7056 2.58434 20.7942C2.69744 20.9554 2.69874 20.9554 5.1282 20.9554C7.46201 20.9554 7.56471 20.9496 7.70426 20.8104C7.78421 20.7307 7.84962 20.6001 7.84962 20.5204C7.84962 20.4406 7.78421 20.3101 7.70426 20.2303C7.56471 20.0911 7.46201 20.0853 5.1282 20.0853C2.69874 20.0853 2.69744 20.0854 2.58434 20.2465ZM11.9603 20.2465C11.808 20.4634 11.8178 20.6362 11.9925 20.8104C12.132 20.9496 12.2347 20.9554 14.5363 20.9554C16.838 20.9554 16.9407 20.9496 17.0802 20.8104C17.2549 20.6362 17.2647 20.4634 17.1124 20.2465C16.9993 20.0853 16.9991 20.0853 14.5363 20.0853C12.0736 20.0853 12.0734 20.0853 11.9603 20.2465ZM21.3684 20.2303C21.2885 20.3101 21.2231 20.4406 21.2231 20.5204C21.2231 20.6001 21.2885 20.7307 21.3684 20.8104C21.5079 20.9496 21.6107 20.9554 23.9123 20.9554C26.2139 20.9554 26.3167 20.9496 26.4561 20.8104C26.6308 20.6362 26.6406 20.4634 26.4883 20.2465C26.3752 20.0854 26.3739 20.0853 23.9445 20.0853C21.6107 20.0853 21.508 20.0911 21.3684 20.2303ZM2.66269 22.0484C2.55265 22.1347 2.47118 22.2713 2.47118 22.3694C2.47118 22.4675 2.55265 22.6041 2.66269 22.6904C2.84731 22.8353 2.93714 22.8407 5.17348 22.8407H7.49283L7.67119 22.6627C7.89621 22.4383 7.89621 22.3005 7.67119 22.0761L7.49283 21.8981H5.17348C2.93714 21.8981 2.84731 21.9034 2.66269 22.0484ZM12.0256 22.0761C11.9274 22.174 11.8471 22.3059 11.8471 22.3694C11.8471 22.4328 11.9274 22.5648 12.0256 22.6627L12.2039 22.8407H14.5363H16.8688L17.0471 22.6627C17.1453 22.5648 17.2256 22.4328 17.2256 22.3694C17.2256 22.3059 17.1453 22.174 17.0471 22.0761L16.8688 21.8981H14.5363H12.2039L12.0256 22.0761ZM21.4015 22.0761C21.3034 22.174 21.2231 22.3059 21.2231 22.3694C21.2231 22.4328 21.3034 22.5648 21.4015 22.6627L21.5799 22.8407H23.8992C26.1355 22.8407 26.2254 22.8353 26.41 22.6904C26.52 22.6041 26.6015 22.4675 26.6015 22.3694C26.6015 22.2713 26.52 22.1347 26.41 22.0484C26.2254 21.9034 26.1355 21.8981 23.8992 21.8981H21.5799L21.4015 22.0761ZM2.58434 23.9445C2.52213 24.0331 2.47118 24.1564 2.47118 24.2184C2.47118 24.2804 2.52213 24.4037 2.58434 24.4923C2.69744 24.6534 2.69874 24.6535 5.1282 24.6535C7.46201 24.6535 7.56471 24.6477 7.70426 24.5084C7.78421 24.4287 7.84962 24.2982 7.84962 24.2184C7.84962 24.1386 7.78421 24.0081 7.70426 23.9284C7.56471 23.7891 7.46201 23.7833 5.1282 23.7833C2.69874 23.7833 2.69744 23.7834 2.58434 23.9445ZM11.9925 23.9284C11.8178 24.1026 11.808 24.2754 11.9603 24.4923C12.0734 24.6535 12.0736 24.6535 14.5363 24.6535C16.9991 24.6535 16.9993 24.6535 17.1124 24.4923C17.2647 24.2754 17.2549 24.1026 17.0802 23.9284C16.9407 23.7892 16.838 23.7833 14.5363 23.7833C12.2347 23.7833 12.132 23.7892 11.9925 23.9284ZM21.3694 23.9274C21.1894 24.1069 21.183 24.2986 21.3503 24.5021C21.4762 24.6554 21.5019 24.6567 23.9459 24.6371L26.4143 24.6172L26.5261 24.4178C26.6267 24.2383 26.6267 24.1985 26.5261 24.019L26.4143 23.8196L23.965 23.8005C21.5939 23.782 21.511 23.7861 21.3694 23.9274Z" fill="#C1C1C1"/>
</svg>
