<svg width="26" height="25" viewBox="0 0 26 25" fill="none" xmlns="http://www.w3.org/2000/svg">
<path fill-rule="evenodd" clip-rule="evenodd" d="M11.3957 0.234605C11.1596 0.374936 10.7023 0.769442 10.3795 1.11156C10.0565 1.45354 9.73568 1.73347 9.66673 1.73347C9.59763 1.73347 8.7095 2.5895 7.69315 3.63576C6.6768 4.68202 5.78967 5.53806 5.72185 5.53806C5.65404 5.53806 4.71405 6.45994 3.63288 7.58668C2.5517 8.71343 1.61015 9.63531 1.54048 9.63531C1.47096 9.63531 1.09585 9.96704 0.706915 10.3725L0 11.1097V12.2707C0 13.7393 0.213129 14.0167 1.44588 14.1528L2.27945 14.2447L2.31692 19.3303C2.3504 23.8813 2.38003 24.4464 2.59786 24.7079C2.82638 24.9819 3.01942 25 5.71786 25H8.59439L8.6424 21.19C8.67645 18.4843 8.73871 17.3493 8.85724 17.2742C8.94899 17.216 9.06809 16.988 9.12194 16.7675C9.17579 16.5469 9.27352 16.3665 9.3392 16.3665C9.40473 16.3665 9.54207 16.1874 9.64422 15.9683C9.74651 15.7494 9.983 15.492 10.1699 15.3963C10.3568 15.3006 10.5492 15.167 10.5973 15.0993C10.7745 14.8505 11.5943 14.4642 11.945 14.4642C12.1438 14.4642 12.3461 14.3984 12.3945 14.3179C12.443 14.2374 12.6673 14.1716 12.8932 14.1716C13.119 14.1716 13.3433 14.2374 13.3918 14.3179C13.4402 14.3984 13.6365 14.4642 13.8282 14.4642C14.1637 14.4642 15.1331 14.9175 15.3035 15.1542C15.3491 15.2174 15.5102 15.3393 15.6617 15.4252C15.8131 15.5111 16.0055 15.7086 16.0891 15.8642C16.1727 16.0197 16.2914 16.1852 16.3529 16.232C16.5833 16.407 17.0247 17.4028 17.0247 17.7474C17.0247 17.9442 17.0888 18.1459 17.1671 18.1956C17.2555 18.2517 17.3096 19.5629 17.3096 21.643V25H20.1368C22.6867 25 22.987 24.974 23.198 24.7346C23.4038 24.5009 23.4363 23.857 23.4694 19.3569L23.5068 14.2447L24.3302 14.1538C25.1528 14.0631 25.7151 13.7343 25.7151 13.3441C25.7151 13.2358 25.7792 13.1472 25.8575 13.1472C25.937 13.1472 26 12.7513 26 12.2518V11.3564L23.1359 8.48383C21.5606 6.90391 20.1982 5.58415 20.1085 5.55108C20.0187 5.51801 18.7969 4.34912 17.3936 2.95372C15.9902 1.55831 14.7614 0.416493 14.663 0.416493C14.5646 0.416493 14.4573 0.334256 14.4247 0.23358C14.3235 -0.078396 11.9207 -0.0776644 11.3957 0.234605Z" fill="#C1C1C1"/>
</svg>
