<svg width="29" height="30" viewBox="0 0 29 30" fill="none" xmlns="http://www.w3.org/2000/svg">
<path fill-rule="evenodd" clip-rule="evenodd" d="M0.598097 0.0802598C0.386997 0.17451 0.143216 0.430242 0.0636358 0.640889C-0.0212119 0.865355 -0.0212119 28.1346 0.0636358 28.3591C0.145595 28.5761 0.389999 28.8277 0.610445 28.922C0.834402 29.0178 2.51804 29.0316 2.76092 28.9396C3.21189 28.7687 3.39886 28.3849 3.40056 27.6265L3.40181 27.0742H14.5034H25.6049L25.6062 27.6265C25.6079 28.3849 25.7949 28.7687 26.2458 28.9396C26.4858 29.0305 28.1713 29.0179 28.3972 28.9235C28.6407 28.8218 28.9331 28.4808 28.9742 28.2507C28.9924 28.1488 29 21.8954 28.9912 14.3543L28.9751 0.643041L28.8335 0.43398C28.5817 0.062248 28.3643 0 27.3183 0C26.809 0 26.3348 0.0267344 26.2458 0.0604355C26.0191 0.146303 25.833 0.332594 25.712 0.594727C25.6129 0.809395 25.6074 1.07889 25.6062 5.73486L25.6049 10.6484H25.1235H24.6421V6.89028C24.6421 4.19509 24.6235 3.07768 24.5766 2.93959C24.4647 2.61074 24.1922 2.28556 23.8864 2.11604L23.5942 1.9541L19.9975 1.93626C17.4912 1.9238 16.312 1.93762 16.1077 1.98186C15.7302 2.06359 15.4019 2.30391 15.201 2.64557L15.0415 2.91699L15.0131 6.76855L14.9848 10.6201H14.5034H14.0219L13.9936 6.76855L13.9653 2.91699L13.8057 2.64557C13.6049 2.30391 13.2766 2.06359 12.8991 1.98186C12.6948 1.93762 11.5155 1.9238 9.00923 1.93626C5.42292 1.95405 5.41187 1.95444 5.1784 2.07933C4.88036 2.23878 4.63725 2.48182 4.50047 2.75727C4.39863 2.96236 4.39223 3.17386 4.37773 6.81104L4.36238 10.6484H3.88212H3.40181L3.40056 5.73486C3.39937 1.07889 3.39382 0.809395 3.29476 0.594727C3.17377 0.332594 2.98765 0.146303 2.76092 0.0604355C2.52269 -0.0298496 0.809593 -0.0141035 0.598097 0.0802598ZM2.43892 14.5V28.0371H1.70259H0.966261V14.5V0.962891H1.70259H2.43892V14.5ZM28.0405 14.5V28.0371H27.3042H26.5678V14.5V0.962891H27.3042H28.0405V14.5ZM7.25337 4.47642C7.25337 6.18606 7.26991 6.30076 7.55408 6.56272C7.71126 6.70761 8.10072 6.78153 8.36172 6.71599C8.44543 6.69498 8.66435 6.53435 8.8482 6.35899L9.18244 6.04016L9.42152 6.26762C9.85318 6.67827 9.96448 6.74023 10.2704 6.74023C10.6175 6.74023 10.8868 6.5881 11.014 6.32013C11.0909 6.15791 11.1049 5.87879 11.1049 4.50854V2.88867H11.8724C12.6686 2.88867 12.9187 2.94599 12.9955 3.1461C13.0149 3.19651 13.0307 4.90519 13.0307 6.94312V10.6484H9.17915H5.32759V6.93412V3.21979L5.49315 3.05423L5.65871 2.88867H6.45604H7.25337V4.47642ZM10.142 4.22454V5.56041L9.8824 5.33187C9.371 4.88169 8.99966 4.88293 8.5202 5.33645L8.21626 5.62385V4.25626V2.88867H9.17915H10.142V4.22454ZM17.9018 4.50854C17.9018 5.87879 17.9159 6.15791 17.9928 6.32013C18.1199 6.5881 18.3892 6.74023 18.7363 6.74023C19.0423 6.74023 19.1536 6.67827 19.5852 6.26762L19.8243 6.04016L20.1585 6.35899C20.3424 6.53435 20.5613 6.69498 20.645 6.71599C20.906 6.78153 21.2955 6.70761 21.4527 6.56272C21.7368 6.30076 21.7534 6.18606 21.7534 4.47642V2.88867H22.5507H23.348L23.5136 3.05423L23.6792 3.21979V6.93412V10.6484H19.8276H15.976V6.92097C15.976 4.02409 15.9918 3.17374 16.0468 3.10476C16.1912 2.9239 16.3507 2.89213 17.123 2.89037L17.9018 2.88867V4.50854ZM20.7905 4.25626V5.62385L20.4866 5.33645C20.0066 4.88254 19.6045 4.88321 19.1102 5.33895L18.8647 5.56522V4.22692V2.88867H19.8276H20.7905V4.25626ZM6.42953 7.89882C6.29801 8.03028 6.29048 8.07316 6.29048 8.68862C6.29048 9.29161 6.30034 9.35086 6.42472 9.49546C6.52701 9.61435 6.60976 9.65156 6.77193 9.65156C6.93409 9.65156 7.01684 9.61435 7.11913 9.49546C7.24352 9.35086 7.25337 9.29161 7.25337 8.68862C7.25337 8.07316 7.24584 8.03028 7.11432 7.89882C7.01837 7.80281 6.91234 7.75977 6.77193 7.75977C6.63151 7.75977 6.52548 7.80281 6.42953 7.89882ZM8.35532 7.89882C8.2238 8.03028 8.21626 8.07316 8.21626 8.68862C8.21626 9.29161 8.22612 9.35086 8.3505 9.49546C8.45279 9.61435 8.53555 9.65156 8.69771 9.65156C8.85987 9.65156 8.94262 9.61435 9.04492 9.49546C9.1693 9.35086 9.17915 9.29161 9.17915 8.68862C9.17915 8.07316 9.17162 8.03028 9.0401 7.89882C8.94415 7.80281 8.83812 7.75977 8.69771 7.75977C8.5573 7.75977 8.45127 7.80281 8.35532 7.89882ZM17.0621 7.89083C16.9497 8.01046 16.9389 8.08171 16.9389 8.70227C16.9389 9.33545 16.9478 9.39068 17.0664 9.49926C17.2525 9.66969 17.4199 9.70339 17.6047 9.60778C17.8396 9.48629 17.9018 9.29388 17.9018 8.68884C17.9018 8.12974 17.8254 7.86444 17.6444 7.79494C17.4436 7.71791 17.1844 7.76061 17.0621 7.89083ZM18.9821 7.90901C18.879 8.04002 18.8647 8.13654 18.8647 8.69881C18.8647 9.2911 18.8748 9.35114 18.9989 9.49546C19.1726 9.69733 19.4872 9.71132 19.6731 9.52537C19.7902 9.40829 19.7993 9.34791 19.7993 8.68777C19.7993 8.00842 19.7932 7.97143 19.6655 7.86806C19.4621 7.7033 19.1282 7.72329 18.9821 7.90901ZM25.6049 12.0928V12.5742H14.5034H3.40181V12.0928V11.6113H14.5034H25.6049V12.0928ZM25.6049 18.8613V24.1855H25.1235H24.6421V20.4261C24.6421 16.3559 24.6466 16.4203 24.333 16.0092C24.254 15.9057 24.0555 15.7468 23.8918 15.6561L23.5942 15.4912L19.9975 15.4734C17.4912 15.4609 16.312 15.4747 16.1077 15.519C15.7302 15.6007 15.4019 15.841 15.201 16.1827L15.0415 16.4541L15.0131 20.3057L14.9848 24.1572H14.5034H14.0219L13.9936 20.3057L13.9653 16.4541L13.8057 16.1827C13.6049 15.841 13.2766 15.6007 12.8991 15.519C12.6948 15.4747 11.5155 15.4609 9.00923 15.4734L5.41255 15.4912L5.11496 15.6561C4.95127 15.7468 4.75274 15.9057 4.67379 16.0092C4.36017 16.4203 4.3647 16.3559 4.3647 20.4261V24.1855H3.88325H3.40181V18.8613V13.5371H14.5034H25.6049V18.8613ZM7.25349 18.0259C7.25354 19.8134 7.26917 19.8984 7.64408 20.1488C8.05382 20.4225 8.48429 20.2951 9.00691 19.7455L9.20289 19.5395L9.56086 19.8942L9.91877 20.249H10.2843C10.6315 20.249 10.6606 20.2383 10.8633 20.0358L11.0766 19.8225L11.0932 18.1241L11.1097 16.4258H11.8748C12.6684 16.4258 12.9188 16.4833 12.9955 16.6832C13.0149 16.7336 13.0307 18.4423 13.0307 20.4802V24.1855H9.17915H5.32759V20.4523V16.7191L5.50187 16.5724C5.67106 16.43 5.69898 16.4258 6.46477 16.4258H7.25337L7.25349 18.0259ZM10.142 17.7683V19.1109L9.92964 18.9074C9.39637 18.3964 9.00476 18.3958 8.48531 18.9049L8.21626 19.1686V17.7972V16.4258H9.17915H10.142V17.7683ZM17.9136 18.1241L17.9301 19.8225L18.1435 20.0358C18.3461 20.2383 18.3752 20.249 18.7224 20.249H19.088L19.4459 19.8942L19.8039 19.5395L19.9998 19.7455C20.5225 20.2951 20.9529 20.4225 21.3627 20.1488C21.7376 19.8984 21.7532 19.8134 21.7533 18.0259L21.7534 16.4258H22.5507H23.348L23.5136 16.5913L23.6792 16.7569V20.4712V24.1855H19.8276H15.976V20.4581C15.976 17.5612 15.9918 16.7109 16.0468 16.6419C16.1911 16.4611 16.3508 16.4292 17.1206 16.4275L17.8971 16.4258L17.9136 18.1241ZM20.7905 17.7972V19.1686L20.5214 18.9049C20.002 18.3958 19.6104 18.3964 19.0771 18.9074L18.8647 19.1109V17.7683V16.4258H19.8276H20.7905V17.7972ZM6.64562 21.2842C6.57612 21.2953 6.46782 21.3699 6.4049 21.4499C6.30543 21.5763 6.29048 21.679 6.29048 22.2359C6.29048 22.8283 6.30056 22.8882 6.42483 23.0327C6.60846 23.2462 6.93788 23.2433 7.12435 23.0265C7.24204 22.8897 7.25337 22.8207 7.25337 22.2409C7.25337 21.7706 7.23151 21.5741 7.16932 21.4853C7.07303 21.3478 6.83044 21.2547 6.64562 21.2842ZM8.5087 21.3293C8.25733 21.4351 8.21626 21.5647 8.21626 22.2529C8.21626 22.8202 8.22793 22.8901 8.34529 23.0265C8.53175 23.2433 8.86117 23.2462 9.0448 23.0327C9.16907 22.8882 9.17915 22.8283 9.17915 22.2359C9.17915 21.6836 9.16375 21.5758 9.06718 21.453C8.92965 21.2782 8.73362 21.2348 8.5087 21.3293ZM17.3071 21.2849C17.2448 21.2977 17.1365 21.361 17.0664 21.4257C16.9476 21.5352 16.9389 21.5903 16.9389 22.2314C16.9389 22.8735 16.9475 22.9274 17.0664 23.0344C17.2476 23.1976 17.3642 23.2265 17.5621 23.1575C17.8256 23.0656 17.9018 22.8578 17.9018 22.2314C17.9018 21.8639 17.8749 21.6356 17.8186 21.5268C17.7306 21.3567 17.4966 21.2461 17.3071 21.2849ZM19.2198 21.2833C19.1503 21.2949 19.042 21.3699 18.9791 21.4499C18.8799 21.5761 18.8647 21.679 18.8647 22.2265C18.8647 22.9114 18.9178 23.0677 19.1847 23.1692C19.3781 23.2428 19.6987 23.1012 19.7713 22.9102C19.8518 22.6986 19.8406 21.6939 19.7559 21.5275C19.6773 21.3728 19.4106 21.2513 19.2198 21.2833ZM25.6049 25.6299V26.1113H14.5034H3.40181V25.6299V25.1484H14.5034H25.6049V25.6299Z" fill="#C1C1C1"/>
</svg>
