<svg width="29" height="29" viewBox="0 0 29 29" fill="none" xmlns="http://www.w3.org/2000/svg">
<path fill-rule="evenodd" clip-rule="evenodd" d="M0.141489 0.141463C0.00907915 0.273873 2.55051e-05 0.377212 2.55051e-05 1.75478C2.55051e-05 2.82241 0.0242865 3.25889 0.0884401 3.34412C0.155352 3.43303 0.314498 3.46642 0.742708 3.48141L1.30856 3.50122L1.3273 5.53476L1.34612 7.56829H0.8145C-0.0168087 7.56829 2.55051e-05 7.53201 2.55051e-05 9.32308C2.55051e-05 10.4785 0.0214571 10.8243 0.0998278 10.9314C0.180886 11.0423 0.307072 11.0728 0.771778 11.0938L1.34393 11.1199V19.9429C1.34393 28.4006 1.3493 28.7708 1.4733 28.8829C1.59262 28.9909 2.60125 29 14.5451 29C25.6108 29 27.5075 28.9854 27.6249 28.8996C27.7594 28.8013 27.7626 28.6171 27.7807 19.96L27.7992 11.1207L28.3012 11.0924C28.6915 11.0704 28.8252 11.0341 28.9016 10.9295C28.9781 10.8248 29 10.4684 29 9.32308C29 7.55507 29.0056 7.56829 28.2573 7.56829H27.7976V5.51707V3.46585H28.3256C28.7752 3.46585 28.8644 3.44555 28.9268 3.32906C28.9704 3.24743 29 2.60505 29 1.7376C29 0.377212 28.9908 0.273732 28.8585 0.141463C28.718 0.000919513 28.6228 0 14.5 0C0.377237 0 0.282033 0.000919513 0.141489 0.141463ZM28.2769 1.75061L28.2966 2.75854H14.5019H0.707342V1.7801C0.707342 1.24191 0.728632 0.780312 0.754661 0.754283C0.780691 0.728254 6.97947 0.715027 14.5297 0.724788L28.2573 0.742683L28.2769 1.75061ZM27.0195 4.30579V5.14573L26.8092 5.18782C26.661 5.21745 26.5856 5.2826 26.554 5.40864C26.4903 5.66257 26.5613 5.79561 26.8064 5.88099L27.0195 5.95533V6.76181V7.56829H14.5354H2.05124V6.76047V5.95271L2.264 5.90596C2.70141 5.8099 2.70155 5.27581 2.26422 5.18831L2.05124 5.14573V4.30579V3.46585H14.5354H27.0195V4.30579ZM3.46588 5.30488C3.29845 5.4723 3.28869 5.58264 3.42478 5.76881C3.50867 5.88361 3.62729 5.90942 4.14978 5.92626C4.86933 5.94953 5.11619 5.86288 5.14978 5.57536C5.18565 5.26824 4.9511 5.16341 4.22815 5.16341C3.70162 5.16341 3.58584 5.18492 3.46588 5.30488ZM6.04878 5.27842C5.88511 5.4421 5.94028 5.74292 6.15368 5.85036C6.25093 5.89931 6.55331 5.93941 6.82563 5.93941C7.41263 5.93941 7.66592 5.83402 7.69591 5.57741C7.73474 5.24582 7.56152 5.16341 6.82563 5.16341C6.30886 5.16341 6.13854 5.1886 6.04878 5.27842ZM8.64096 5.27637C8.52878 5.35496 8.48634 5.44585 8.50147 5.57536C8.53507 5.86288 8.78193 5.94953 9.50148 5.92626C10.024 5.90942 10.1426 5.88361 10.2265 5.76881C10.3626 5.58264 10.3528 5.4723 10.1854 5.30488C10.0654 5.18492 9.94964 5.16341 9.42311 5.16341C8.96901 5.16341 8.75894 5.19376 8.64096 5.27637ZM11.1756 5.30488C11.0082 5.4723 10.9984 5.58264 11.1345 5.76881C11.2184 5.88361 11.337 5.90942 11.8595 5.92626C12.5791 5.94953 12.8259 5.86288 12.8595 5.57536C12.8954 5.26824 12.6608 5.16341 11.9379 5.16341C11.4114 5.16341 11.2956 5.18492 11.1756 5.30488ZM13.7626 5.29908C13.5983 5.48058 13.6459 5.74059 13.8634 5.85022C13.9607 5.89924 14.2884 5.93984 14.5916 5.9404C15.0829 5.94132 15.1619 5.92258 15.3159 5.7686C15.429 5.6555 15.4734 5.55152 15.4443 5.46799C15.3568 5.21703 15.1963 5.16341 14.5328 5.16341C13.9844 5.16341 13.8665 5.18421 13.7626 5.29908ZM16.3362 5.29292C16.2116 5.39386 16.1868 5.46473 16.2242 5.61376C16.2862 5.86055 16.5067 5.94146 17.1171 5.94146C17.7274 5.94146 17.948 5.86055 18.0099 5.61376C18.0473 5.46473 18.0226 5.39386 17.898 5.29292C17.6661 5.1052 16.5681 5.1052 16.3362 5.29292ZM18.9384 5.2398C18.7585 5.34463 18.7784 5.69581 18.9719 5.83133C19.1671 5.96813 20.1117 5.98086 20.3707 5.85022C20.5882 5.74059 20.6358 5.48058 20.4715 5.29908C20.3674 5.18393 20.2515 5.16377 19.7055 5.16554C19.3517 5.16674 19.0065 5.20012 18.9384 5.2398ZM21.5141 5.27637C21.4019 5.35496 21.3595 5.44585 21.3746 5.57536C21.4082 5.86288 21.6551 5.94953 22.3746 5.92626C22.8971 5.90942 23.0157 5.88361 23.0996 5.76881C23.2357 5.58264 23.226 5.4723 23.0585 5.30488C22.9386 5.18492 22.8228 5.16341 22.2963 5.16341C21.8422 5.16341 21.6321 5.19376 21.5141 5.27637ZM24.0488 5.30488C23.8814 5.4723 23.8716 5.58264 24.0077 5.76881C24.0916 5.88361 24.2102 5.90942 24.7327 5.92626C25.4522 5.94953 25.6991 5.86288 25.7327 5.57536C25.7686 5.26824 25.534 5.16341 24.8111 5.16341C24.2845 5.16341 24.1687 5.18492 24.0488 5.30488ZM28.2927 9.33659V10.3268H14.5H0.707342V9.33659V8.34634H14.5H28.2927V9.33659ZM4.29726 19.6811L4.27929 28.2573L3.16527 28.2768L2.05124 28.2963V19.7005V11.1049H3.18323H4.31522L4.29726 19.6811ZM13.5805 18.4256V25.7463H9.30124H5.02197V18.4256V11.1049H9.30124H13.5805V18.4256ZM23.9781 16.1273V21.1498L19.1506 21.1316L14.3232 21.1134L14.305 16.1091L14.2869 11.1049H19.1324H23.9781V16.1273ZM27.0195 19.7005V28.2962L25.8701 28.2768L24.7207 28.2573L24.7028 19.6811L24.6848 11.1049H25.8522H27.0195V19.7005ZM8.58656 12.7571C7.97311 12.958 7.49206 13.3947 7.1343 14.0756L6.96709 14.3939L6.94701 19.052C6.93208 22.5003 6.94814 23.7357 7.00868 23.8087C7.12928 23.9541 11.4727 23.9546 11.5933 23.8093C11.6533 23.7371 11.6695 22.4764 11.655 19.0172L11.6354 14.3232L11.4712 14.0156C11.2227 13.5497 10.7801 13.1099 10.3467 12.8979C9.88102 12.67 9.05438 12.6039 8.58656 12.7571ZM10.1724 13.6293C10.3687 13.7507 10.5857 13.9705 10.714 14.178L10.9281 14.5242L10.9473 18.8621L10.9666 23.2H9.30279H7.63904V19.0582C7.63904 16.1089 7.66309 14.8208 7.72258 14.5847C7.82224 14.1886 8.38272 13.5855 8.77075 13.4566C9.17915 13.3208 9.79657 13.3969 10.1724 13.6293ZM16.7969 15.846C16.6966 15.9569 16.6819 16.0291 16.7329 16.1625C16.8317 16.4215 19.6518 19.3098 19.8058 19.3098C19.9801 19.3098 20.1585 19.1224 20.1585 18.9394C20.1585 18.7831 19.9501 18.5495 18.2324 16.7811C17.6368 16.1679 17.129 15.7024 17.0557 15.7024C16.9848 15.7024 16.8683 15.7671 16.7969 15.846ZM16.1669 17.8476C15.8809 18.0567 15.998 18.294 16.7723 19.0746C17.1759 19.4814 17.564 19.8463 17.6346 19.8854C17.81 19.9823 18.108 19.7848 18.1054 19.5734C18.1031 19.387 16.5772 17.7534 16.4056 17.7535C16.345 17.7536 16.2375 17.796 16.1669 17.8476ZM23.9781 25.0749V28.2937L19.1506 28.2755L14.3232 28.2573L14.3048 25.0567L14.2864 21.8561H19.1322H23.9781V25.0749ZM13.5805 27.3732V28.2927H9.30124H5.02197V27.3732V26.4537H9.30124H13.5805V27.3732Z" fill="#C1C1C1"/>
</svg>
