<svg width="25" height="24" viewBox="0 0 25 24" fill="none" xmlns="http://www.w3.org/2000/svg">
<path fill-rule="evenodd" clip-rule="evenodd" d="M1.0479 0.126898C1.0479 0.196743 0.908234 0.289006 0.737425 0.331832C0.566617 0.374659 0.390269 0.543952 0.345659 0.707928C0.301048 0.871904 0.20494 1.00599 0.132186 1.00599C0.0583833 1.00599 0 3.05849 0 5.64977V10.2936L0.427545 10.6868L0.855239 11.0801L6.02904 11.037C8.8747 11.0134 11.259 10.9403 11.3275 10.8744C11.3961 10.8086 11.4723 8.51971 11.4969 5.78788L11.5418 0.82103L11.132 0.410443L10.7225 0H5.88518C3.18593 0 1.0479 0.0560479 1.0479 0.126898ZM13.7256 0.403114L13.3234 0.806084V5.47617C13.3234 10.3913 13.3763 10.8246 13.997 10.9847C14.1617 11.0272 16.4927 11.0629 19.1769 11.0639L24.0573 11.0659L24.5287 10.6334L25 10.2012V5.61887C25 1.67842 24.9686 1.0251 24.7754 0.953964C24.6519 0.908551 24.5509 0.777054 24.5509 0.661796C24.5509 0.546539 24.3385 0.350515 24.0787 0.22606C23.6792 0.0347784 22.8783 0 18.8672 0H14.1278L13.7256 0.403114ZM10.3055 1.19727C10.6296 1.52838 10.6328 1.58026 10.5936 5.832L10.5539 10.1317L6.075 10.1698C1.64611 10.2075 1.59207 10.2045 1.24716 9.89332L0.898204 9.57859V5.57461C0.898204 1.62036 0.902395 1.56632 1.23503 1.22515L1.57186 0.879808L5.77485 0.871042L9.97769 0.862275L10.3055 1.19727ZM23.6057 1.17471C23.9519 1.48714 23.9521 1.48872 23.9521 5.55636C23.9521 9.19904 23.9251 9.65576 23.6943 9.91459C23.4467 10.1921 23.2596 10.2036 19.0087 10.2036C15.7644 10.2036 14.5328 10.1575 14.4012 10.0311C14.2698 9.90496 14.2216 8.74132 14.2216 5.69303C14.2216 1.61404 14.2283 1.52062 14.547 1.19483C14.8723 0.862563 14.8762 0.862275 19.0659 0.862275C23.1651 0.862275 23.2669 0.869317 23.6057 1.17471ZM0.402246 13.1935L0 13.5965V18.1295C0 21.9647 0.0362275 22.7322 0.235479 23.1156C0.36512 23.3649 0.569311 23.5689 0.689371 23.5689C0.809431 23.5689 0.946407 23.6659 0.993713 23.7844C1.06781 23.9698 1.74835 24 5.85299 24H10.6262L11.0765 23.5476L11.5269 23.095L11.5249 18.4099C11.5238 15.833 11.4867 13.5952 11.4424 13.4371C11.2754 12.841 10.8251 12.7904 5.68683 12.7904H0.804491L0.402246 13.1935ZM13.718 13.1692L13.3234 13.5482L13.3277 18.307L13.3322 23.0659L13.7747 23.5329L14.2174 24H18.9939C23.1015 24 23.7825 23.9698 23.8566 23.7844C23.9039 23.6659 24.0475 23.5689 24.1756 23.5689C24.3037 23.5689 24.4726 23.4072 24.5509 23.2096C24.6292 23.012 24.7623 22.8503 24.8466 22.8503C24.9481 22.8503 25 21.3185 25 18.3234C25 15.3094 24.9484 13.7964 24.8457 13.7964C24.7606 13.7964 24.6494 13.6833 24.5984 13.5449C24.3129 12.7723 24.4457 12.7904 19.084 12.7904H14.1127L13.718 13.1692ZM10.4491 13.8251C10.5807 13.9515 10.6287 15.1338 10.6287 18.2483C10.6287 22.3292 10.6168 22.5088 10.3277 22.7465C10.0581 22.968 9.58338 22.994 5.80883 22.994C1.68443 22.994 1.58353 22.9871 1.24461 22.6816C0.898503 22.3693 0.898204 22.3656 0.898204 18.3435C0.898204 14.4082 0.905539 14.3105 1.22365 13.9852L1.54925 13.6527H5.90928C9.1009 13.6527 10.3177 13.699 10.4491 13.8251ZM23.6057 13.9651C23.9518 14.2774 23.9521 14.2812 23.9521 18.3032C23.9521 22.2385 23.9448 22.3362 23.6266 22.6615C23.3013 22.9937 23.2975 22.994 19.1078 22.994C15.0085 22.994 14.9067 22.987 14.568 22.6816L14.2216 22.369V18.1834C14.2216 15.1194 14.2698 13.9513 14.4012 13.8251C14.5326 13.699 15.7448 13.6527 18.9201 13.6527C23.169 13.6527 23.2663 13.6592 23.6057 13.9651Z" fill="#C1C1C1"/>
</svg>
