<svg width="25" height="24" viewBox="0 0 25 24" fill="none" xmlns="http://www.w3.org/2000/svg">
<path fill-rule="evenodd" clip-rule="evenodd" d="M19.92 0.090028C19.6951 0.287366 19.3329 0.629543 18.0226 1.88209C16.6072 3.2352 14.3864 5.35138 13.4961 6.19542C13.3208 6.36159 13.1774 6.50234 13.1774 6.50819C13.1774 6.52056 13.9506 7.26857 14.0041 7.30801C14.0389 7.33364 14.0408 7.33398 14.0647 7.31872C14.1733 7.24959 14.5539 6.89127 17.0833 4.47653C19.1187 2.53346 19.8746 1.81889 19.9759 1.74203L20.0025 1.72181L20.0478 1.75743C20.1249 1.81815 20.9896 2.65747 21.6493 3.31203C21.9953 3.6553 22.493 4.14894 22.7553 4.40902C23.0175 4.66909 23.2321 4.88504 23.2321 4.88892C23.2321 4.89639 22.1917 5.88181 22.1793 5.88601C22.1754 5.88736 21.8316 5.5489 21.4153 5.13386C20.9991 4.71882 20.6542 4.37919 20.6489 4.37911C20.6398 4.37898 20.3945 4.60439 20.119 4.86607L19.9916 4.98707L20.6082 5.58903C21.2324 6.1984 21.5068 6.47756 21.5068 6.50323C21.5068 6.52605 21.3231 6.71625 21.0896 6.93525L20.8722 7.13912L20.7606 7.03284C20.6992 6.97438 20.5152 6.79854 20.3518 6.64207C20.0458 6.34907 19.8835 6.20497 19.8596 6.20497C19.8331 6.20497 19.7071 6.31432 19.4604 6.55144L19.2112 6.79094L19.7096 7.27591L20.208 7.76089L19.7477 8.20828L19.2874 8.65566L19.0282 8.40159C18.8856 8.26185 18.539 7.92007 18.258 7.64208C17.977 7.3641 17.7439 7.13665 17.7401 7.13665C17.7363 7.13665 17.5925 7.27655 17.4205 7.44754L17.1078 7.75843L17.8696 8.51C18.2885 8.92337 18.6313 9.26495 18.6313 9.26907C18.6313 9.28842 17.9754 9.89801 17.9604 9.8926C17.9561 9.89104 17.73 9.67651 17.458 9.41587L16.9634 8.942L16.7646 9.12851C16.5205 9.35746 16.3853 9.49156 16.3699 9.52001C16.3599 9.53859 16.3615 9.54567 16.3816 9.57125C16.4814 9.69825 17.9356 11.1039 18.1687 11.2986C18.2109 11.3339 18.2231 11.3396 18.2451 11.3342C18.2622 11.33 18.4071 11.197 18.6598 10.9533C19.007 10.6186 20.809 8.89764 22.9879 6.81978C23.6492 6.18915 24.6608 5.2292 24.9236 4.98291L25 4.91129L24.9431 4.85239C24.773 4.67619 24.1074 4.01375 22.4077 2.32919C21.8674 1.79371 21.2379 1.16902 21.0088 0.940994C20.3381 0.273438 20.0562 0 20.0388 0C20.0299 0 19.9764 0.0405093 19.92 0.090028ZM5.22644 2.88053C3.80243 4.26785 2.90977 5.14743 2.87608 5.19648C2.86206 5.21689 2.86741 5.22334 3.06165 5.42009C3.34138 5.70343 9.72213 11.9043 11.7115 13.8261C14.6945 16.7078 16.2293 18.1758 16.5761 18.4791L16.6728 18.5637L17.2423 18.8052C17.5555 18.9381 18.0059 19.1303 18.2431 19.2325C18.4803 19.3346 18.9289 19.5262 19.2399 19.6583C19.551 19.7903 20.0147 19.9873 20.2703 20.096C20.526 20.2047 20.8689 20.3504 21.0323 20.4198C21.1958 20.4891 21.5516 20.6414 21.8231 20.7581C22.4641 21.0336 22.7315 21.1398 22.7845 21.1398C22.8015 21.1398 22.8026 21.1353 22.7968 21.0924C22.7932 21.0663 22.7651 20.9793 22.7343 20.899C22.7034 20.8188 22.5962 20.5309 22.4959 20.2593C22.3957 19.9877 22.2395 19.5664 22.149 19.323C22.0585 19.0796 21.8098 18.409 21.5964 17.8328C21.3829 17.2566 21.1586 16.6528 21.0979 16.4912C21.0372 16.3295 20.8884 15.9268 20.7673 15.5963C20.6461 15.2658 20.529 14.9465 20.5069 14.8867L20.4668 14.7781L18.5259 12.8836C11.1159 5.65102 9.39183 3.96875 8.15006 2.75932L6.75027 1.39597L5.22644 2.88053ZM7.25941 3.32981C7.68553 3.7436 7.9344 3.99636 7.9344 4.01538C7.9344 4.0399 6.93922 5.02594 6.06463 5.86796L5.52239 6.39002L4.91998 5.80441L4.31758 5.21882L4.34907 5.18316C4.46977 5.04659 5.99267 3.54471 6.42731 3.13363C6.715 2.86153 6.73805 2.84189 6.75766 2.85209C6.76924 2.85811 6.99504 3.07309 7.25941 3.32981ZM7.47432 11.9464C7.14483 12.2602 5.56834 13.7621 3.97099 15.284C2.37365 16.806 0.82734 18.2791 0.534757 18.5576C0.242174 18.8362 0.00154187 19.0692 1.78472e-05 19.0754C-0.00362446 19.0903 0.54994 19.6464 1.92965 21.014C4.44345 23.5056 4.94367 24 4.95094 24C4.95897 24 5.15616 23.8235 5.356 23.6375C5.58599 23.4234 5.75241 23.2658 6.43434 22.6164C6.69266 22.3704 7.24907 21.8422 7.67081 21.4425C8.09255 21.0429 8.64465 20.5188 8.8977 20.2779C9.65819 19.5538 12.7018 16.6667 13 16.3866L13.0766 16.3147L12.9134 16.1534C12.7335 15.9757 11.5415 14.7902 11.3661 14.6145C11.2197 14.4679 11.0507 14.3199 11.0298 14.3199C11.0011 14.3199 10.9171 14.3904 10.7468 14.5576C10.5569 14.744 10.4263 14.892 10.427 14.92C10.4273 14.9328 10.6167 15.1268 10.9828 15.4891L11.5381 16.0388L11.1715 16.3929C10.9699 16.5876 10.7802 16.7673 10.7499 16.7922L10.695 16.8376L10.6686 16.8214C10.654 16.8125 10.2703 16.443 9.81585 16.0004C9.36136 15.5578 8.98573 15.1957 8.98111 15.1957C8.96628 15.1957 8.38766 15.7688 8.38057 15.7905C8.375 15.8076 8.38506 15.8237 8.43559 15.8785C8.53489 15.9863 8.71252 16.1666 9.21323 16.6677C10.0052 17.4604 10.0086 17.4639 9.99743 17.4833C9.97496 17.5224 9.80544 17.6953 9.59498 17.894L9.36251 18.1134L8.78087 17.5536C8.46097 17.2457 8.19571 16.9938 8.1914 16.9938C8.18036 16.9938 7.56058 17.571 7.56058 17.5813C7.56058 17.5897 7.71627 17.7466 8.19321 18.2189C8.41935 18.4429 8.69162 18.7306 8.69162 18.7455C8.69162 18.749 8.54605 18.8919 8.36812 19.0631C8.05155 19.3677 7.80483 19.5932 7.78804 19.5932C7.75422 19.5932 6.30715 18.1876 6.16945 18.021C6.13947 17.9847 6.12262 17.9721 6.10423 17.9721C6.07119 17.9721 6.00035 18.0196 5.90183 18.1079C5.76269 18.2325 5.45188 18.535 5.45188 18.5458C5.45188 18.5515 5.8294 18.935 6.29082 19.3981L7.12976 20.2401L6.79647 20.5642C6.61316 20.7424 6.46034 20.8872 6.45688 20.8859C6.45342 20.8846 6.24273 20.676 5.98869 20.4224C5.73465 20.1687 5.47543 19.9109 5.41266 19.8494L5.29853 19.7377L4.98221 20.045C4.80824 20.2141 4.66591 20.3559 4.66591 20.3602C4.66591 20.3645 4.87636 20.5742 5.13359 20.8261C5.58321 21.2665 5.77777 21.4667 5.77777 21.489C5.77777 21.5401 5.18709 22.1028 5.00084 22.229L4.95392 22.2608L4.80272 22.1169C4.55489 21.8809 2.36037 19.7136 1.85026 19.201L1.75208 19.1024L2.20977 18.6653C2.46149 18.4249 3.12034 17.7965 3.67386 17.2689C4.90023 16.0999 6.05656 14.9954 6.99412 14.0975C7.38135 13.7266 7.89905 13.2341 8.14457 13.003C8.81266 12.374 8.94083 12.2491 8.94083 12.2271C8.94083 12.2153 8.89121 12.1557 8.81313 12.0736C8.66186 11.9147 8.09854 11.3758 8.0837 11.3758C8.07802 11.3758 7.8038 11.6326 7.47432 11.9464ZM19.7509 14.7812C19.8689 14.8674 19.9533 14.9737 20.0308 15.1335C20.0813 15.2379 20.1232 15.3484 20.3755 16.0429C20.5755 16.5936 20.7464 17.0562 20.9557 17.6134C21.1512 18.1339 21.2167 18.3175 21.277 18.5133L21.3265 18.6737L20.8529 19.1341L20.3793 19.5944L20.0492 19.4551C19.8677 19.3785 19.3784 19.1712 18.962 18.9943C18.5455 18.8175 17.9681 18.5738 17.6788 18.4527C17.0755 18.2001 16.9828 18.1577 16.8635 18.0801C16.7708 18.0199 16.6028 17.8679 16.4869 17.7396C16.4265 17.6726 16.4184 17.6599 16.4332 17.6547C16.4571 17.6463 16.7528 17.6587 17.3176 17.6921C18.1536 17.7414 18.3577 17.749 18.4189 17.733C18.4494 17.7251 18.4482 17.7177 18.3552 17.3665C18.2371 16.9203 18.1193 16.3797 18.1364 16.363C18.1425 16.3571 18.3709 16.39 18.6395 16.4354C19.3144 16.5497 19.4288 16.5672 19.5347 16.572L19.6473 16.5771L19.6475 15.884C19.6477 15.252 19.658 14.7693 19.6718 14.7476C19.6809 14.7333 19.6913 14.7376 19.7509 14.7812Z" fill="#C1C1C1"/>
</svg>
