<svg width="29" height="19" viewBox="0 0 29 19" fill="none" xmlns="http://www.w3.org/2000/svg">
<path fill-rule="evenodd" clip-rule="evenodd" d="M3.55816 0.0752458C3.48144 0.115643 3.38994 0.189062 3.35489 0.238445C3.29835 0.318138 3.08567 0.834188 2.58473 2.1071C2.28837 2.86019 2.11997 3.28684 1.93641 3.7497C1.45494 4.96373 1.35394 5.21858 1.20535 5.59364C1.11763 5.81512 0.833462 6.53045 0.573866 7.18325C-0.0268594 8.69405 -0.035494 8.72156 0.0237022 8.93851C0.0780442 9.13761 0.231705 9.26355 0.583231 9.39704C0.713179 9.44638 1.09594 9.59385 1.4338 9.72475C1.77171 9.85565 2.10343 9.97366 2.171 9.98697C2.32896 10.0182 2.56502 9.9409 2.67881 9.82076C2.72787 9.76896 2.95331 9.25927 3.17975 8.68807C3.40618 8.11687 3.71608 7.33479 3.86836 6.9501C4.02065 6.56542 4.31251 5.83102 4.51699 5.31811C4.72143 4.80519 4.92363 4.29016 4.96629 4.17359C5.0089 4.05702 5.27889 3.37031 5.5662 2.64757C5.99823 1.5607 6.08491 1.30573 6.0676 1.17292C6.03684 0.937237 5.93078 0.807991 5.67737 0.697439C5.15629 0.470019 3.88237 -0.00164886 3.7937 4.33446e-06C3.74091 0.000979293 3.63489 0.0348486 3.55816 0.0752458ZM24.0169 0.738387C23.6701 0.896119 22.2923 1.73547 22.2173 1.83471C22.1585 1.91228 22.1325 2.01113 22.1342 2.14932C22.1366 2.33253 22.2081 2.47021 22.9217 3.66492C24.479 6.27208 25.4101 7.83481 25.9117 8.68316C26.6617 9.95187 26.6156 9.9403 27.9223 9.18568C28.4392 8.88713 28.8587 8.61605 28.9103 8.54721C28.9679 8.47032 29 8.36358 29 8.24866C29 8.06062 28.931 7.94003 26.2072 3.36819C24.6629 0.776029 24.6811 0.804981 24.5519 0.739065C24.3999 0.661493 24.1865 0.661238 24.0169 0.738387ZM11.7523 0.976362C11.3693 1.04999 10.7282 1.33053 9.80792 1.82703C9.49518 1.99579 9.08463 2.21689 8.89562 2.31837C8.3565 2.60785 8.22217 2.64252 7.94655 2.56347C7.75431 2.50832 7.64528 2.42994 7.26665 2.07459C6.76309 1.60203 6.65647 1.56252 6.38218 1.74679C6.21293 1.86052 6.22612 1.83068 5.28852 4.21598C5.17854 4.49575 4.99378 4.9631 4.87792 5.25452C4.67164 5.7735 4.20992 6.94425 3.85363 7.85181C3.43917 8.90757 3.27748 9.39441 3.25913 9.64179L3.24027 9.89617L4.45152 11.1679C5.11767 11.8673 5.6769 12.445 5.69417 12.4516C5.72871 12.4649 6.25374 11.925 6.25365 11.8763C6.25361 11.8597 6.01683 11.597 5.72742 11.2926C5.04889 10.5788 4.60016 10.0857 4.34662 9.77507C4.17109 9.55998 4.14772 9.5089 4.17195 9.39356C4.21796 9.1747 4.55153 8.20208 4.81374 7.52236C5.22477 6.4569 5.32834 6.19871 6.52665 3.25162C6.60011 3.07095 6.67211 2.9231 6.68663 2.9231C6.70115 2.9231 6.87547 3.01869 7.07402 3.13551C7.69382 3.50019 8.11017 3.61719 8.42871 3.51613C8.67456 3.43813 9.63016 2.97121 10.2918 2.60577C10.6107 2.42964 11.0986 2.17145 11.3758 2.03203C12.0462 1.69495 12.1623 1.69537 12.916 2.03775L13.1989 2.16628L13.5279 1.96183C13.7088 1.84937 13.8514 1.74111 13.8448 1.72123C13.8211 1.64976 13.0229 1.22905 12.6812 1.10794C12.2678 0.961483 12.0156 0.925749 11.7523 0.976362ZM16.3488 1.51055C15.7243 1.61021 15.2035 1.77036 14.7125 2.01368C13.3503 2.68877 10.3564 4.52593 9.40472 5.27072C9.11312 5.49894 9.03283 5.58953 8.92419 5.81292C8.75777 6.15517 8.72546 6.37098 8.78685 6.73014C8.84269 7.0568 9.05448 7.472 9.23194 7.60273C9.39445 7.72248 9.81204 7.74194 10.2357 7.64957C10.492 7.59366 10.7987 7.46149 11.5375 7.08859C12.0691 6.82026 12.5234 6.58687 12.5471 6.56991C12.5707 6.55291 12.8753 6.39264 13.224 6.21367C14.019 5.80571 14.6668 5.45812 14.9798 5.27152C15.2622 5.10319 15.4245 5.09069 15.6135 5.22273C15.6886 5.27521 16.0346 5.62437 16.3824 5.99876C16.7301 6.3731 17.4975 7.19333 18.0875 7.8215C19.9998 9.85726 20.2211 10.0931 21.3282 11.2746C21.9287 11.9153 22.5464 12.5705 22.7009 12.7305L22.9819 13.0215L23.1014 12.8895C23.2562 12.7185 23.3177 12.7204 23.2907 12.8952C23.279 12.971 23.2575 13.1379 23.2428 13.2661C23.2075 13.5767 22.9977 13.9985 22.7636 14.2296C22.4846 14.5048 22.1577 14.6407 21.7803 14.6383C21.3096 14.6354 21.1894 14.5539 20.5768 13.8222C18.5472 11.3987 18.4041 11.2359 18.264 11.1902C18.092 11.1342 18.0012 11.1629 17.8202 11.3307C17.7064 11.4361 17.6805 11.4924 17.6805 11.6349C17.6805 11.8499 17.6243 11.7764 19.0293 13.3976C19.6412 14.1037 20.1822 14.7488 20.2314 14.8312C20.2936 14.9353 20.3211 15.054 20.3211 15.2196C20.3211 15.5149 20.1551 15.8064 19.8774 15.9989C19.7057 16.1181 19.665 16.1274 19.32 16.1274C19.0989 16.1274 18.8904 16.1035 18.8064 16.0686C18.709 16.028 18.2578 15.5504 17.3579 14.5353C16.6391 13.7244 16.0314 13.049 16.0076 13.0344C15.9359 12.9908 15.625 13.0933 15.5328 13.1909C15.4832 13.2434 15.4467 13.3406 15.4467 13.42C15.4467 13.5622 15.4671 13.5875 17.4094 15.8494L17.8623 16.3769L17.8361 16.5913C17.769 17.1402 17.5743 17.4169 17.1742 17.5316C16.9514 17.5955 16.6029 17.5922 16.4239 17.5244C16.3528 17.4975 15.8516 18.2202 15.9069 18.2698C15.9707 18.3272 16.2417 18.3948 16.5744 18.4363C17.6631 18.5724 18.4925 18.0775 18.6684 17.1867L18.7187 16.932L19.2413 16.9304C19.7136 16.929 19.7917 16.9174 20.0514 16.8108C20.523 16.617 20.8478 16.206 21.0131 15.5935L21.0867 15.3211L21.5513 15.3368C22.3253 15.3629 22.9851 15.1578 23.4019 14.7613C23.8489 14.3362 24.0473 13.4636 23.9396 12.3964L23.9053 12.0565L25.0351 10.8958C25.6564 10.2574 26.1712 9.70839 26.1791 9.67583C26.1869 9.64324 26.1747 9.59364 26.1519 9.56562C26.1291 9.5376 25.6667 8.77073 25.1245 7.86148C21.7999 2.28696 22.0779 2.73854 21.9909 2.77151C21.6136 2.91437 20.3428 2.90487 19.764 2.7549C19.1215 2.58843 18.7267 2.39989 18.2963 2.05386C17.7579 1.62111 16.993 1.40772 16.3488 1.51055ZM7.39591 11.7027C7.30351 11.7241 7.16819 11.7783 7.0952 11.8232C6.88574 11.9519 5.95338 12.9596 5.8639 13.154C5.51525 13.9117 6.33772 14.7848 7.1495 14.5187C7.33762 14.457 7.44682 14.3663 7.93185 13.8683C8.24188 13.55 8.53241 13.2183 8.57747 13.1312C8.69947 12.8952 8.68749 12.5331 8.54856 12.258C8.41273 11.989 8.19639 11.8138 7.88894 11.7237C7.63033 11.6479 7.63244 11.648 7.39591 11.7027ZM10.5921 12.3137C10.4225 12.3652 10.2765 12.4996 9.41786 13.3937C8.87852 13.9554 8.41002 14.4664 8.37673 14.5293C8.34344 14.5923 8.31629 14.7583 8.31637 14.8981C8.31659 15.3132 8.59461 15.7065 9.02449 15.8999C9.24779 16.0003 9.62655 16.0028 9.80689 15.9049C9.96897 15.8169 11.8116 13.9062 11.9036 13.7307C11.9385 13.664 11.9671 13.5073 11.9671 13.3825C11.9671 12.708 11.216 12.1242 10.5921 12.3137ZM13.127 13.6014C13.0443 13.6182 12.938 13.653 12.8907 13.6787C12.6828 13.7919 10.5196 16.0651 10.4392 16.2549C10.2997 16.5844 10.3942 17.0308 10.6688 17.3394C10.9733 17.6817 11.5612 17.7971 11.9178 17.5846C12.0588 17.5006 12.7304 16.8238 14.0601 15.4255C14.3246 15.1475 14.4245 14.9358 14.4223 14.6578C14.4172 14.0159 13.753 13.4741 13.127 13.6014ZM14.609 15.9212C14.4196 15.9771 14.3195 16.0605 13.76 16.6283C13.0314 17.3677 12.9117 17.5542 12.9131 17.9479C12.916 18.7329 13.7197 19.2338 14.4242 18.8895C14.5943 18.8064 14.8031 18.6204 15.2482 18.1553C15.5761 17.8127 15.8801 17.4547 15.9238 17.3598C15.9736 17.2516 16.0036 17.0877 16.0042 16.9208C16.0059 16.4454 15.7274 16.0677 15.2669 15.921C15.0063 15.8379 14.8911 15.838 14.609 15.9212Z" fill="#C1C1C1"/>
</svg>
