<svg width="25" height="28" viewBox="0 0 25 28" fill="none" xmlns="http://www.w3.org/2000/svg">
<path fill-rule="evenodd" clip-rule="evenodd" d="M1.53518 0.230018C0.980077 0.506631 0.581869 0.939964 0.268159 1.60878L0.0350946 2.10573L0.0108114 10.1395C-0.013203 18.1168 -0.0121277 18.1769 0.175148 18.6773C0.433751 19.3685 0.847729 19.8828 1.42372 20.2285L1.90893 20.5197H6.79675H11.6846L15.0892 23.6206C16.9618 25.3261 18.7258 26.9426 19.0091 27.213L19.5243 27.7045V24.1705V20.6366L20.4792 20.5781C21.0043 20.546 21.7718 20.5197 22.1846 20.5197C23.0751 20.5197 23.393 20.4054 23.9624 19.8805C24.3589 19.5151 24.7866 18.8285 24.8323 18.4841C24.844 18.3962 24.8747 20.4413 24.9007 23.0287C24.9267 25.616 24.9493 21.483 24.951 13.8441C24.9526 6.2052 24.9319 0.451702 24.9049 1.0586L24.8559 2.1621L24.7004 1.7224C24.4925 1.13432 23.894 0.471774 23.336 0.212007L22.8846 0.00179211L12.4407 0.000896057L1.99683 0L1.53518 0.230018ZM22.7416 1.81586C22.86 1.8767 23.0415 2.04032 23.1448 2.17948C23.3316 2.43109 23.3327 2.47276 23.3565 10.1544C23.3741 15.806 23.3529 17.9429 23.2777 18.1246C23.2212 18.2611 23.0561 18.4728 22.9109 18.595L22.6468 18.8172H20.3239H18.0011V21.3784C18.0011 22.9276 17.968 23.9279 17.9174 23.9098C17.8713 23.8934 16.6157 22.7711 15.1271 21.4158C12.5823 19.0987 12.396 18.948 12.0075 18.8923C11.7802 18.8596 9.4834 18.8294 6.90338 18.8251L2.21251 18.8172L1.91852 18.5232L1.62452 18.2292L1.55785 15.9159C1.52112 14.6435 1.50902 11.1166 1.53088 8.07814C1.57497 1.94462 1.5592 2.09892 2.16906 1.83369C2.56771 1.6603 22.4054 1.6431 22.7416 1.81586ZM4.44818 5.08441L3.84334 5.11568V5.9181V6.72043H12.4455H21.0476V5.92849V5.13656L17.8071 5.07724C14.6091 5.01873 5.62291 5.02348 4.44818 5.08441ZM3.84334 10.1702V11.0215H12.4455H21.0476V10.1702V9.319H12.4455H3.84334V10.1702ZM3.84334 14.3817V15.233H12.4455H21.0476V14.3817V13.5305H12.4455H3.84334V14.3817Z" fill="#C1C1C1"/>
</svg>
