<svg width="29" height="31" viewBox="0 0 29 31" fill="none" xmlns="http://www.w3.org/2000/svg">
<path fill-rule="evenodd" clip-rule="evenodd" d="M20.029 0.071171C18.3943 0.332836 16.7843 1.17286 15.6535 2.35392L15.1949 2.8329L14.8034 2.69188L14.4117 2.55081H8.30864C1.45229 2.55081 1.88012 2.5236 1.15685 3.00554C0.571748 3.39543 0.180725 3.99748 0.0483396 4.71224C0.00819894 4.92888 -0.00734701 8.81405 0.00321953 15.9772L0.0193729 26.9115L0.160442 27.26C0.434261 27.9368 1.02459 28.515 1.69623 28.7645L2.0371 28.8911L2.06904 29.3568C2.12011 30.0999 2.37656 30.5397 2.93428 30.8406C3.14312 30.9532 3.27508 30.9716 3.87555 30.9716C4.65742 30.9716 4.88532 30.8946 5.2503 30.5073C5.55047 30.1887 5.65443 29.9266 5.68504 29.4112L5.71298 28.9415H8.27718H10.8414L10.8809 29.4083C10.9396 30.1019 11.2193 30.5666 11.7397 30.8355C11.9226 30.93 12.1348 30.968 12.5981 30.9891C13.1567 31.0146 13.2437 31.0034 13.5397 30.8682C14.1873 30.5723 14.4561 30.1542 14.4918 29.3868L14.5148 28.8928L14.8697 28.7637C15.6439 28.482 16.2366 27.8498 16.4738 27.053C16.5557 26.7777 16.5675 25.9329 16.5675 20.3558C16.5675 16.8456 16.5804 13.9737 16.596 13.9737C16.6117 13.9737 16.8098 14.0929 17.0363 14.2386C18.2256 15.0038 19.518 15.4082 20.9703 15.4696C24.3369 15.6119 27.4918 13.4466 28.5801 10.2468C29.506 7.52439 28.8763 4.55935 26.932 2.48694C25.7686 1.24691 24.3767 0.464578 22.7314 0.125952C22.0392 -0.0165153 20.741 -0.0428152 20.029 0.071171ZM22.3139 1.09571C25.7134 1.64595 28.1593 4.67613 27.964 8.09559C27.8168 10.6734 26.1852 12.9461 23.7809 13.9225C22.8452 14.3025 22.473 14.3676 21.2435 14.3668C20.1978 14.366 20.0781 14.3542 19.5128 14.1956C17.5726 13.6513 16.0041 12.3388 15.1692 10.5611C14.0982 8.28035 14.4074 5.59535 15.9751 3.56262C16.3133 3.12401 17.0357 2.46064 17.5374 2.12777C18.9145 1.2143 20.684 0.831927 22.3139 1.09571ZM20.9068 2.18449C20.7814 2.30957 20.7577 2.39137 20.7577 2.69958C20.7577 2.90107 20.7313 3.0659 20.6991 3.0659C20.6668 3.0659 20.4713 2.95682 20.2646 2.8235C19.8425 2.55129 19.6335 2.52311 19.3996 2.70673C19.2386 2.83308 19.187 3.10104 19.278 3.33786C19.2992 3.39295 19.6413 3.6551 20.0382 3.92046L20.76 4.40295L20.7545 5.40089C20.7515 5.94973 20.7301 6.39883 20.707 6.39883C20.6838 6.39883 20.31 6.04244 19.8763 5.60686C19.4426 5.17128 19.0106 4.77411 18.9163 4.72436C18.5714 4.54214 18.1829 4.77393 18.1829 5.16182C18.1829 5.35338 18.2681 5.45833 19.09 6.27993L19.9971 7.18661L18.9351 7.18552L17.8732 7.18449L17.4524 6.54511C16.8429 5.61898 16.6185 5.49027 16.2518 5.85622C16.0135 6.09401 16.0401 6.29599 16.3755 6.79272L16.621 7.15631L16.2754 7.1943C15.8223 7.24406 15.7313 7.28696 15.6191 7.50348C15.508 7.71788 15.5465 7.92373 15.7296 8.09389C15.8333 8.19043 15.9439 8.21679 16.245 8.21679C16.4558 8.21679 16.6283 8.23127 16.6283 8.24896C16.6283 8.26672 16.5053 8.46409 16.355 8.6877C16.1788 8.94973 16.0817 9.16031 16.0817 9.28035C16.0817 9.63807 16.499 9.89422 16.8063 9.72509C16.8921 9.67788 17.1789 9.31914 17.4437 8.92797L17.9251 8.21679H18.9164C19.4615 8.21679 19.9075 8.23539 19.9075 8.25811C19.9075 8.28084 19.5113 8.70036 19.027 9.19042C18.2333 9.99354 18.1465 10.1022 18.1465 10.2922C18.1465 10.561 18.3908 10.8225 18.6419 10.8225C18.8395 10.8225 19.0057 10.6821 20.0175 9.66043C20.4518 9.22194 20.6776 9.03323 20.7091 9.08268C20.7348 9.12304 20.7563 9.58074 20.7568 10.0997L20.7577 11.0434L20.045 11.5238C19.653 11.788 19.2935 12.0743 19.2462 12.1599C19.0744 12.4707 19.322 12.8829 19.6805 12.8829C19.8143 12.8829 20.0105 12.7945 20.2858 12.6102C20.5099 12.4602 20.7077 12.3375 20.7255 12.3375C20.7432 12.3375 20.7577 12.5029 20.7577 12.7051C20.7577 13.1429 20.8134 13.2652 21.0591 13.3667C21.2073 13.428 21.2798 13.428 21.428 13.3667C21.6626 13.2697 21.7416 13.1201 21.7853 12.6896L21.8204 12.3448L22.2152 12.6122C22.6827 12.9288 22.9318 12.961 23.1592 12.7341C23.3405 12.5532 23.3533 12.2899 23.1909 12.0838C23.1264 12.002 22.7853 11.7461 22.4329 11.5151L21.7922 11.0952L21.7912 10.0373L21.7901 8.97936L22.7206 9.90094C23.6756 10.8468 23.7675 10.9054 24.0562 10.7521C24.2551 10.6462 24.3366 10.5117 24.3387 10.2851C24.3404 10.1023 24.2444 9.98366 23.4187 9.14885L22.4968 8.21679H23.539H24.5812L25.0678 8.94167C25.3355 9.34035 25.6075 9.69485 25.6723 9.72945C25.8688 9.83441 26.099 9.80059 26.2563 9.64358C26.4858 9.41458 26.4543 9.16085 26.1348 8.66606L25.8643 8.24708L26.1804 8.23139C26.6597 8.20757 26.7593 8.17019 26.8597 7.97651C26.9871 7.73078 26.9753 7.58414 26.8133 7.39616C26.6967 7.26084 26.6107 7.23024 26.2708 7.20303L25.8669 7.17067L26.1362 6.77023C26.4581 6.29138 26.4773 6.09777 26.2278 5.84877C25.881 5.50269 25.6703 5.62116 25.0921 6.48754L24.6255 7.18661H23.5577H22.49L23.3971 6.27993C24.236 5.44137 24.3042 5.35647 24.3042 5.15098C24.3042 4.9836 24.2629 4.89331 24.1368 4.78508C23.7983 4.49451 23.6796 4.55856 22.6251 5.60159L21.7901 6.42749V5.39234V4.35719L22.4906 3.89162C23.3497 3.32065 23.4597 3.13353 23.151 2.76757C22.9213 2.495 22.6903 2.51506 22.1999 2.85017L21.8061 3.11922L21.7737 2.71576C21.7464 2.37622 21.7157 2.29048 21.5801 2.17401C21.3668 1.99094 21.0965 1.99512 20.9068 2.18449ZM14.5301 3.67891C14.5507 3.69952 14.4468 3.95858 14.2991 4.2546C13.7896 5.2763 13.5424 6.22206 13.4898 7.35065C13.4316 8.59801 13.6517 9.79944 14.1299 10.846C14.2348 11.0756 14.3206 11.2871 14.3206 11.316C14.3206 11.3453 11.3968 11.3617 7.68619 11.353L1.05174 11.3376V8.06529C1.05174 4.87059 1.05477 4.78648 1.17896 4.52027C1.33539 4.18503 1.64061 3.87568 1.96264 3.72594C2.19523 3.61783 2.46613 3.61365 8.34915 3.62728C11.7281 3.63516 14.5096 3.65837 14.5301 3.67891ZM2.38628 6.24151C2.07444 6.37622 2.05374 6.49966 2.05374 8.22157C2.05374 9.97681 2.08744 10.1755 2.39891 10.257C2.63763 10.3194 2.79048 10.287 2.94946 10.1399C3.08513 10.0145 3.0861 10.0012 3.0861 8.24708C3.0861 6.49251 3.08519 6.47972 2.94946 6.35574C2.75854 6.1814 2.59992 6.14922 2.38628 6.24151ZM15.2771 12.6972L15.5352 12.9963L15.5346 19.8327L15.534 26.6691L15.3923 26.9721C15.2251 27.3296 14.8557 27.6818 14.526 27.798C14.3324 27.8662 13.2104 27.8811 8.24791 27.8811H2.20555L1.91145 27.7311C1.58219 27.5633 1.29817 27.2703 1.15042 26.9462C1.06139 26.7509 1.05016 26.0269 1.03534 19.5639L1.01894 12.3981H8.01897L15.019 12.3982L15.2771 12.6972ZM2.2313 13.5847L2.0841 13.741V15.4987V17.2565L2.2545 17.4028C2.47713 17.5938 2.74402 17.5929 2.93701 17.4002L3.0861 17.2515V15.4886V13.7258L2.93701 13.577C2.73248 13.3729 2.42757 13.3762 2.2313 13.5847ZM4.6531 29.3075C4.6174 29.7996 4.49242 29.9242 3.99925 29.9598C3.357 30.0062 3.0861 29.7765 3.0861 29.1859V28.9415H3.88284H4.67958L4.6531 29.3075ZM13.4705 29.2714C13.4705 29.7548 13.309 29.9234 12.8115 29.9594C12.1619 30.0062 11.8915 29.7789 11.8915 29.1859V28.9415H12.681H13.4705V29.2714Z" fill="#C1C1C1"/>
</svg>
