<svg width="25" height="22" viewBox="0 0 25 22" fill="none" xmlns="http://www.w3.org/2000/svg">
<path fill-rule="evenodd" clip-rule="evenodd" d="M5.77943 0.00694112C5.63192 0.0153107 5.50224 0.0277287 5.38284 0.0449227C4.267 0.20559 3.32249 0.588909 2.49719 1.21602C1.73912 1.79204 1.05227 2.62026 0.628067 3.46985C0.284667 4.15759 0.0874156 4.87309 0.0143679 5.69593C-0.00266648 5.88786 -0.00524996 6.55548 0.0103718 6.73076C0.0568897 7.25281 0.142084 7.67527 0.292115 8.1279C0.391519 8.42776 0.505193 8.69627 0.668315 9.01648C0.898782 9.46888 1.07529 9.7275 1.52056 10.2652C1.69274 10.4732 1.76828 10.5708 1.80806 10.637C1.83205 10.6769 1.83299 10.6816 1.83992 10.7987C1.86038 11.1446 1.8726 12.5719 1.88619 16.2034L1.8951 18.5839L1.94389 18.6825C2.0156 18.8274 2.06473 18.8972 2.16829 19.0015C2.29602 19.1301 2.43477 19.22 2.55255 19.2505C2.57676 19.2568 2.63795 19.2655 2.68852 19.27C2.89509 19.2882 4.43214 19.3005 4.57078 19.285C4.70877 19.2696 4.77589 19.236 4.80875 19.166C4.81809 19.146 4.84237 19.0632 4.86268 18.9819C4.9107 18.7898 4.94915 18.6679 5.01406 18.5021C5.3848 17.5554 6.14544 16.8258 7.08628 16.5146C7.29476 16.4456 7.53927 16.3931 7.80014 16.3612C7.95666 16.342 8.37004 16.3422 8.52533 16.3615C9.2954 16.4571 9.95124 16.7827 10.5203 17.3517C10.963 17.7945 11.2228 18.2647 11.3994 18.943C11.4226 19.0321 11.4502 19.1232 11.4607 19.1455C11.4959 19.2202 11.5552 19.2576 11.6716 19.2783C11.7492 19.2921 12.1306 19.2967 12.7669 19.2916C13.484 19.2859 13.608 19.2779 13.7716 19.2268C13.9696 19.1649 14.1584 19.005 14.2846 18.792C14.3546 18.6739 14.3678 18.6154 14.38 18.3678C14.3947 18.0701 14.4018 16.1488 14.4018 12.4886C14.4018 8.77999 14.3948 6.93602 14.3796 6.62906C14.369 6.41524 14.3593 6.36021 14.3163 6.27098C14.2698 6.17434 14.2298 6.11753 14.1501 6.0348C14.0482 5.92909 13.9557 5.86512 13.812 5.80117C13.6599 5.73349 13.6027 5.72619 13.1362 5.71494C12.608 5.7022 12.4909 5.69302 12.4506 5.66119C12.4271 5.64269 12.4071 5.55971 12.3547 5.26435C12.2847 4.87046 12.2126 4.57964 12.1027 4.24793C11.7454 3.17038 11.1401 2.26255 10.293 1.53354C9.3965 0.762108 8.48693 0.30106 7.4602 0.0976572C7.20483 0.0470682 6.99367 0.0202157 6.74257 0.00639528C6.58279 -0.00239886 5.93761 -0.00203497 5.77943 0.00694112ZM6.48573 1.43912C6.86044 1.45183 7.01891 1.46911 7.25918 1.52347C8.20453 1.73735 9.07846 2.23234 9.71364 2.91365C10.3011 3.54378 10.6929 4.2759 10.9009 5.13213C10.9824 5.46756 10.9911 5.57235 10.9906 6.21524C10.9901 6.92371 10.9822 7.00671 10.875 7.42443C10.7144 8.0509 10.4556 8.60023 10.0928 9.08471C9.75519 9.53555 9.32429 9.94475 8.86148 10.254C8.41574 10.5519 7.90694 10.7733 7.35067 10.9115C7.00975 10.9962 6.68686 11.0291 6.1949 11.0292C5.66709 11.0293 5.36544 10.9927 4.94848 10.8778C3.91038 10.5918 2.99163 9.96131 2.35208 9.09608C2.0973 8.7514 1.86312 8.31375 1.69898 7.87551C1.60435 7.62286 1.50428 7.23424 1.4667 6.97336C1.44496 6.82256 1.43909 6.7031 1.43461 6.32138C1.42693 5.66719 1.44572 5.47066 1.55669 5.04395C1.99803 3.34694 3.27519 2.03809 4.93337 1.5835C5.14377 1.52581 5.50093 1.45444 5.65101 1.44008C5.74637 1.43096 6.22883 1.4304 6.48573 1.43912ZM6.1118 2.37812C6.01313 2.40436 5.9319 2.49625 5.88975 2.62935C5.88116 2.65646 5.86909 2.72128 5.86291 2.7734C5.83325 3.02376 5.78929 3.72381 5.75295 4.52464C5.71619 5.33453 5.69748 5.43735 5.55761 5.5977C5.53004 5.62931 5.48611 5.67969 5.45999 5.70967C5.40814 5.76917 5.35309 5.87149 5.33278 5.94611C5.31641 6.00625 5.30946 6.29105 5.32202 6.38689C5.34968 6.59798 5.41956 6.73935 5.57086 6.89035C5.70006 7.01929 5.75814 7.0495 6.05137 7.14025C6.35712 7.23487 6.34534 7.22644 7.22326 7.97917C7.81027 8.48249 7.89161 8.54814 7.98143 8.59116C8.03001 8.61443 8.03181 8.61468 8.1514 8.61468C8.26638 8.61468 8.27429 8.61371 8.31381 8.59472C8.36856 8.56843 8.44491 8.50365 8.50691 8.43089C8.59639 8.3259 8.61946 8.26086 8.6192 8.11432C8.619 8.00624 8.6081 7.95143 8.57575 7.89605C8.54428 7.84215 8.34945 7.61169 7.77439 6.9481C7.41022 6.52786 7.34011 6.44233 7.25671 6.3166C7.17727 6.19681 7.14 6.11391 7.09442 5.95561C7.04293 5.77675 7.01813 5.73448 6.85978 5.55568C6.82139 5.51233 6.79162 5.46891 6.76879 5.42301C6.69355 5.27169 6.67846 5.1419 6.65557 4.44883C6.62595 3.55228 6.58634 2.85574 6.55275 2.64073C6.53821 2.54762 6.48184 2.45748 6.41759 2.42459C6.34519 2.38751 6.17421 2.36153 6.1118 2.37812ZM18.5949 7.65588C16.6666 7.67405 16.3092 7.68113 16.0974 7.70536C15.9229 7.72532 15.8597 7.74979 15.72 7.8514C15.5785 7.95423 15.5256 8.02373 15.4098 8.25873L15.3386 8.40313L15.3308 12.3412C15.3213 17.0492 15.3259 18.2042 15.3548 18.4647C15.3718 18.6175 15.4358 18.7655 15.5477 18.9107C15.6308 19.0185 15.7428 19.108 15.8829 19.1784C15.9839 19.2291 16.1454 19.2848 16.2084 19.2907C16.2479 19.2944 16.2522 19.2931 16.2795 19.269C16.3257 19.2284 16.3759 19.1016 16.4387 18.8672C16.5074 18.6105 16.5703 18.4403 16.6751 18.2268C16.8432 17.8848 17.0438 17.6038 17.3104 17.3367C17.8575 16.7887 18.5592 16.4475 19.3314 16.354C19.49 16.3348 19.8664 16.3347 20.0226 16.3539C20.6513 16.431 21.1966 16.6479 21.6891 17.0165C21.9894 17.2413 22.2693 17.5352 22.4729 17.8396C22.682 18.1521 22.8428 18.5294 22.9499 18.9588C22.9817 19.086 23.0123 19.1744 23.0361 19.2074C23.0641 19.2462 23.1216 19.2748 23.1915 19.2849C23.2622 19.295 23.9315 19.2948 24.0414 19.2846C24.2476 19.2655 24.4174 19.2084 24.5718 19.1062C24.6445 19.058 24.7921 18.9095 24.8384 18.8379C24.8586 18.8066 24.8982 18.7306 24.9263 18.6691L24.9775 18.5571L24.9891 17.0581C25.0019 15.4043 25.0036 13.9412 24.9932 13.5614C24.9876 13.3569 24.9831 13.2945 24.9671 13.1942C24.8956 12.7461 24.7173 12.2475 24.4981 11.8824C24.241 11.4541 22.3812 8.94406 21.8354 8.28869C21.6522 8.06878 21.4668 7.92061 21.2275 7.80293C21.0362 7.7089 20.9309 7.6806 20.7062 7.66298C20.564 7.65182 19.4299 7.64801 18.5949 7.65588ZM20.4486 9.64207C20.5797 9.65156 20.6255 9.66223 20.7251 9.70659C20.8466 9.76067 20.877 9.78791 21.0169 9.96791C21.3112 10.3465 22.7347 12.3434 23.0512 12.8217C23.2406 13.1079 23.3166 13.3014 23.2663 13.3694C23.2531 13.3872 23.2429 13.3917 23.2059 13.396C23.1166 13.4063 20.6271 13.4155 19.6071 13.4092C18.4535 13.4022 18.3716 13.3989 18.336 13.3583C18.2957 13.3124 18.291 13.1219 18.291 11.5221C18.291 9.89184 18.2952 9.73089 18.3397 9.68229C18.3596 9.66046 18.4105 9.649 18.5178 9.6422C18.6556 9.63348 20.3282 9.63336 20.4486 9.64207ZM19.5316 17.4702C19.2708 17.4932 19.0504 17.5451 18.8401 17.633C18.2069 17.8974 17.7116 18.4592 17.5153 19.1356C17.4771 19.2672 17.4639 19.3568 17.4535 19.5539C17.4401 19.8098 17.4607 20.1204 17.503 20.2972C17.6234 20.8012 17.9669 21.2902 18.4174 21.5992C18.7757 21.8449 19.0992 21.9508 19.5704 21.9763C19.8129 21.9895 20.0452 21.9709 20.24 21.9228C20.6313 21.8261 20.9801 21.6279 21.2729 21.3359C21.474 21.1353 21.6316 20.9087 21.7442 20.6581C21.9617 20.1743 21.999 19.6321 21.8498 19.1202C21.7697 18.8453 21.627 18.5706 21.4431 18.3375C21.3725 18.248 21.1812 18.0535 21.0952 17.9837C20.7599 17.7118 20.3669 17.5404 19.9508 17.4848C19.8635 17.4731 19.6018 17.464 19.5316 17.4702ZM7.92856 17.4963C7.71416 17.5118 7.52792 17.5501 7.35717 17.6139C6.8153 17.8164 6.3828 18.1993 6.13779 18.6934C5.95551 19.061 5.89652 19.3132 5.89656 19.7249C5.89661 20.1642 5.9807 20.5146 6.16266 20.8338C6.43393 21.3097 6.86934 21.6761 7.38844 21.8653C7.7465 21.9958 8.11473 22.0319 8.47245 21.9717C8.69657 21.9339 8.93231 21.8559 9.14403 21.7494C9.37785 21.6318 9.56433 21.4945 9.75361 21.3007C10.007 21.0412 10.173 20.767 10.2926 20.4097C10.3648 20.1941 10.3647 20.1948 10.3647 19.7362C10.3646 19.3919 10.3629 19.3329 10.3513 19.27C10.3164 19.0815 10.1849 18.7455 10.0736 18.5607C9.89822 18.2692 9.60638 17.9828 9.29206 17.7937C9.02283 17.6316 8.75306 17.5365 8.46867 17.5035C8.37405 17.4925 8.04227 17.4881 7.92856 17.4963Z" fill="#C4C4C4"/>
</svg>
