<svg width="34" height="34" fill="none" xmlns="http://www.w3.org/2000/svg"><g clip-path="url(#clip0)" fill="#404040"><path d="M14.133 1.881l.588.917a6.624 6.624 0 017.033 0l.588-.917a7.61 7.61 0 00-8.21 0zM11.706 8.3h-1.089a7.57 7.57 0 00.587 2.935l1.005-.42a6.478 6.478 0 01-.503-2.514zM20.75 14.332a6.462 6.462 0 01-2.512.503v1.088a7.553 7.553 0 002.933-.586l-.422-1.005zM24.772 8.3a6.473 6.473 0 01-.502 2.513l1.005.42a7.557 7.557 0 00.586-2.932h-1.089zM18.241 2.855a5.445 5.445 0 100 10.89 5.445 5.445 0 000-10.89zm0 9.8a4.356 4.356 0 110-8.71 4.356 4.356 0 010 8.71z"/><path d="M19.438 8.128l-.653-.218V6.513c.303.106.516.38.544.7h1.09a1.971 1.971 0 00-1.634-1.838v-.34h-1.09v.34a1.971 1.971 0 00-1.633 1.838c.022.588.416 1.096.98 1.263l.654.217v1.396a.817.817 0 01-.545-.698h-1.088a1.971 1.971 0 001.633 1.838v.34h1.089v-.34a1.971 1.971 0 001.633-1.838 1.368 1.368 0 00-.98-1.263zm-1.742-.58l-.31-.105c-.138-.046-.235-.14-.235-.23a.817.817 0 01.545-.7v1.035zm1.089 2.543V9.056l.31.105c.138.046.234.14.234.23a.817.817 0 01-.544.7z"/><path d="M32.782 23.161l-1.793-1.793 1.793-1.793a.545.545 0 000-.77l-7.078-7.078a.544.544 0 00-.77 0l-6.966 6.966-7.51-7.51a.545.545 0 00-.77 0L2.612 18.26a.544.544 0 000 .77L6.58 23H.274v1.09h7.078a.537.537 0 00.215-.045l3.708-1.589h8.056v2.178h-5.99a.544.544 0 00-.228 1.039l7.078 3.267c.178.08.386.06.545-.055l9.43-6.805 1.433 1.434-10.836 9.287h-2.968L7.54 29.024a.548.548 0 00-.189-.033H.273v1.088h6.981l10.254 3.778c.06.022.124.034.188.034h3.267a.54.54 0 00.354-.131l11.434-9.8a.544.544 0 00.03-.799zm-21.62-1.793a.536.536 0 00-.214.044l-.132.055a2.707 2.707 0 015.012-.099h-4.665zm5.83 0a3.795 3.795 0 00-3.652-2.722 3.836 3.836 0 00-3.783 3.362l-1.7.729-4.091-4.091 6.308-6.308 9.03 9.03h-2.113zm3.366 6.45l-4.539-2.094h4.055c.3 0 .545-.244.545-.545v-2.497l2.956 2.957-3.017 2.18zm.112-6.624a2.428 2.428 0 012.399-2.004 2.445 2.445 0 01.446 4.85l-2.845-2.846zm3.729 3.728c.218-.089.427-.2.623-.33l-.553.4-.07-.07zm5.666-3.97l-4.797 3.465a3.539 3.539 0 10-5.482-4.106l-.848-.849 6.58-6.58 6.309 6.308-1.761 1.762z"/></g><defs><clipPath id="clip0"><path fill="#fff" transform="translate(0 .68)" d="M0 0h33.212v33.212H0z"/></clipPath></defs></svg>