<svg width="31" height="31" fill="none" xmlns="http://www.w3.org/2000/svg"><g clip-path="url(#clip0)" fill="#404040"><path d="M25.376 8.9a14.966 14.966 0 00-1.506-2.6.472.472 0 00-.764.555 14.017 14.017 0 011.41 2.435.472.472 0 10.86-.39zM26.365 11.746c-.132-.526-.289-1.049-.468-1.553a.472.472 0 00-.89.316c.17.475.318.969.442 1.466a.472.472 0 10.916-.229z"/><path d="M25.65 5.84a14.465 14.465 0 00-9.83-4.259V.534a.472.472 0 10-.943 0v1.047A14.464 14.464 0 005.048 5.84 14.472 14.472 0 00.781 16.14c0 .261.212.472.472.472h.118a.472.472 0 00.452-.337 2.36 2.36 0 012.25-1.676c1.03 0 1.955.689 2.249 1.676.06.2.243.337.452.337h.338a.472.472 0 00.45-.611 2.347 2.347 0 014.295 0v.14c0 .26.21.471.471.471h.026c.012 0 .024 0 .036-.002l.022.002h.235a.472.472 0 00.453-.337 2.363 2.363 0 011.777-1.628v12.82c0 .049.007.096.021.14a3.27 3.27 0 003.245 2.9 3.27 3.27 0 003.266-3.266.472.472 0 10-.944 0 2.325 2.325 0 01-2.322 2.322 2.325 2.325 0 01-2.322-2.322V14.647c.831.174 1.53.795 1.777 1.628.06.2.244.337.453.337h.234c.012 0 .023-.002.034-.003a.472.472 0 00.522-.47v-.139a2.347 2.347 0 014.342.117v.023c0 .261.212.472.472.472h.269a.472.472 0 00.452-.337 2.361 2.361 0 012.25-1.676c1.03 0 1.955.689 2.249 1.676.06.2.243.337.452.337h.117c.261 0 .472-.211.472-.472 0-3.89-1.515-7.55-4.266-10.3zM6.605 14.85a3.31 3.31 0 00-2.533-1.195c-.854 0-1.657.338-2.255.9C2.45 9.115 6.3 4.644 11.41 3.098c-.851.705-1.634 1.644-2.32 2.8-1.44 2.428-2.308 5.571-2.485 8.952zm5.273-.384a3.278 3.278 0 00-2.167-.811c-.802 0-1.552.29-2.134.786.422-5.84 2.988-10.551 6.27-11.67-.41.737-.771 1.813-1.078 3.224-.5 2.3-.81 5.267-.891 8.47zm3.47-.811a3.31 3.31 0 00-2.535 1.198c.064-3.284.37-6.327.878-8.657.633-2.91 1.361-3.68 1.658-3.68.296 0 1.024.77 1.657 3.68.508 2.33.815 5.373.878 8.657a3.31 3.31 0 00-2.535-1.198zm5.639 0c-.82 0-1.581.297-2.167.81-.08-3.203-.39-6.17-.891-8.47-.307-1.411-.668-2.487-1.078-3.225 3.282 1.12 5.848 5.83 6.27 11.67a3.288 3.288 0 00-2.134-.785zm5.638 0a3.31 3.31 0 00-2.533 1.195c-.176-3.38-1.044-6.524-2.485-8.953-.685-1.155-1.468-2.094-2.32-2.8 5.11 1.547 8.96 6.018 9.594 11.458a3.302 3.302 0 00-2.256-.9z"/></g><defs><clipPath id="clip0"><path fill="#fff" transform="translate(.129 .063)" d="M0 0h30.444v30.444H0z"/></clipPath></defs></svg>