<svg width="32" height="32" fill="none" xmlns="http://www.w3.org/2000/svg"><g clip-path="url(#clip0)" fill="#404040"><path d="M23.07 19.463l-1.073.595a.456.456 0 00.442.798l1.073-.595a.456.456 0 00-.442-.797zM23.07 18.17l-1.073.595a.456.456 0 00.442.798l1.074-.595a.456.456 0 00-.443-.797z"/><path d="M30.638 23.636a.461.461 0 00.068-.239v-4.012a.456.456 0 10-.912 0v3.31l-4.386-1.957v-8.475l4.386-2.43V17.4a.456.456 0 00.912 0v-8.34a.463.463 0 00-.235-.399L16.133.716a.462.462 0 00-.442 0L1.352 8.66a.461.461 0 00-.235.404v14.333c0 .163.093.32.235.4l6.318 3.5a.456.456 0 00.442-.799l-5.518-3.057 4.255-1.897 8.606 4.767v4.256L9.921 27.5a.456.456 0 10-.442.799l6.212 3.44a.462.462 0 00.442 0l6.514-3.609a.456.456 0 10-.442-.798l-5.837 3.235V26.31l8.606-4.767 4.255 1.897-5.216 2.89a.456.456 0 10.442.798l6.016-3.333a.463.463 0 00.167-.16zM15.91 7.507l8.1 4.487-8.1 4.487-8.098-4.487 8.099-4.487zm9.04 3.966l-8.583-4.756V1.89l12.94 7.17-4.356 2.414zm-9.496-4.756l-8.583 4.756-4.358-2.414 12.941-7.17v4.828zM2.03 9.833l4.386 2.43v8.475L2.03 22.695V9.833zm5.299 2.935l3.31 1.835 4.817 2.668v7.997l-8.127-4.502v-7.997zm9.04 4.503l8.128-4.503v7.998l-8.128 4.503v-7.997z"/></g><defs><clipPath id="clip0"><path fill="#fff" transform="translate(.328 .719)" d="M0 0h31.136v31.136H0z"/></clipPath></defs></svg>