<svg width="33" height="33" fill="none" xmlns="http://www.w3.org/2000/svg"><g clip-path="url(#clip0)" fill="#404040"><path d="M23.176.027a1.93 1.93 0 00-1.928 1.929c0 .44.149.847.399 1.173L16.932 9.12a1.92 1.92 0 00-2.09.23l-2.707-2.146A1.93 1.93 0 0010.418 4.4a1.93 1.93 0 00-1.66 2.908L5.813 9.964a1.916 1.916 0 00-1.04-.306 1.93 1.93 0 00-1.93 1.928 1.93 1.93 0 001.93 1.928 1.93 1.93 0 001.69-2.853l2.968-2.677a1.918 1.918 0 002.074-.063l2.772 2.197a1.93 1.93 0 001.787 2.652 1.93 1.93 0 001.928-1.928c0-.406-.126-.783-.341-1.094l4.744-6.03a1.93 1.93 0 002.709-1.763A1.93 1.93 0 0023.176.028zM4.772 12.562a.977.977 0 010-1.951.977.977 0 010 1.95zm5.646-5.258a.977.977 0 010-1.95.977.977 0 010 1.95zm5.646 4.513a.977.977 0 010-1.95.977.977 0 010 1.95zm7.112-8.886a.977.977 0 010-1.95.977.977 0 010 1.95zM29.67 16.801c-.74-.43-1.825-.394-2.578.655l-1.797 2.36v-5.16a.476.476 0 00-.953 0v6.57c0 .455.58.651.855.29l2.657-3.488a.325.325 0 00.009-.012c.433-.606.97-.6 1.33-.39.356.206.631.668.39 1.19l-.004.01-2.753 6.3c-.47.972-1.034 1.43-1.805 2.194-.684.677-.716 1.843-.694 2.816.01.486.022 1.038-.214 1.28-.117.12-.324.18-.613.18h-2.293a.476.476 0 000 .953H23.5c.555 0 .991-.157 1.294-.467.517-.528.5-1.326.485-1.967-.013-.61-.02-1.69.412-2.118.772-.764 1.487-1.362 2-2.473l.005-.01 2.754-6.303c.465-1.015-.04-1.98-.78-2.41z"/><path d="M23.425 5.602h-.002c-1.033 0-1.874.84-1.875 1.873v6.92a1.873 1.873 0 00-2.503.586 1.872 1.872 0 00-2.754.319c-.335-.31-.782-.5-1.273-.5-1.033 0-1.873.841-1.873 1.874v8.083c-.003 2.703 2.004 2.64 2.003 4.361l-.001 1.588c0 1.043.567 1.729 1.516 1.836a.456.456 0 00.054.003h2.266a.476.476 0 000-.953h-2.237c-.447-.059-.646-.333-.646-.886V29.12c.002-2.285-2.005-2.074-2.003-4.361.006-7.296 0-5.5 0-8.084a.922.922 0 011.842 0v2.745a.476.476 0 00.952 0v-3.027a.922.922 0 011.842 0v3.027a.476.476 0 00.953 0v-3.404c0-.508.413-.92.92-.92.508 0 .941.412.941.92v3.404a.476.476 0 10.953 0V7.476c.001-.508.415-.921.923-.921.507 0 .919.414.919.923v4.951a.476.476 0 10.952 0V7.48a1.875 1.875 0 00-1.87-1.877z"/></g><defs><clipPath id="clip0"><path fill="#fff" transform="translate(.477 .027)" d="M0 0h32.52v32.52H0z"/></clipPath></defs></svg>