<svg width="28" height="25" viewBox="0 0 28 25" fill="none" xmlns="http://www.w3.org/2000/svg">
<path fill-rule="evenodd" clip-rule="evenodd" d="M6.47296 0.00788764C6.30775 0.0173985 6.16251 0.0315098 6.02878 0.0510485C4.77904 0.233625 3.72119 0.669214 2.79685 1.38184C1.94782 2.03641 1.17855 2.97756 0.703435 3.94301C0.318827 4.72454 0.0979055 5.5376 0.0160921 6.47265C-0.00298645 6.69075 -0.00587996 7.4494 0.0116164 7.64859C0.0637165 8.24182 0.159134 8.7219 0.327169 9.23625C0.438502 9.577 0.565816 9.88213 0.748513 10.246C1.00664 10.7601 1.20432 11.054 1.70302 11.665C1.89586 11.9013 1.98048 12.0123 2.02502 12.0875C2.0519 12.1328 2.05295 12.1382 2.06071 12.2713C2.08362 12.6644 2.09731 14.2862 2.11254 18.413L2.12251 21.1181L2.17715 21.2301C2.25748 21.3947 2.3125 21.4741 2.42848 21.5926C2.57154 21.7387 2.72694 21.8409 2.85885 21.8756C2.88598 21.8827 2.95451 21.8927 3.01114 21.8977C3.2425 21.9185 4.96399 21.9324 5.11927 21.9148C5.27383 21.8973 5.34899 21.8591 5.3858 21.7795C5.39626 21.7569 5.42345 21.6627 5.4462 21.5703C5.49998 21.352 5.54305 21.2135 5.61574 21.0252C6.03098 19.9493 6.88289 19.1202 7.93663 18.7666C8.17013 18.6882 8.44399 18.6285 8.73615 18.5922C8.91146 18.5705 9.37445 18.5707 9.54837 18.5926C10.4108 18.7013 11.1454 19.0712 11.7827 19.7179C12.2785 20.221 12.5695 20.7554 12.7673 21.5261C12.7933 21.6273 12.8242 21.7309 12.836 21.7563C12.8754 21.8411 12.9419 21.8836 13.0722 21.9071C13.1591 21.9228 13.5863 21.9281 14.299 21.9223C15.1021 21.9158 15.241 21.9067 15.4242 21.8486C15.646 21.7783 15.8574 21.5966 15.9987 21.3546C16.0771 21.2204 16.0919 21.1538 16.1056 20.8725C16.122 20.5342 16.13 18.3509 16.13 14.1916C16.13 9.97726 16.1222 7.88184 16.1052 7.53302C16.0933 7.29004 16.0824 7.22752 16.0343 7.12611C15.9821 7.0163 15.9374 6.95174 15.8481 6.85773C15.734 6.7376 15.6303 6.66491 15.4694 6.59223C15.2991 6.51533 15.2351 6.50703 14.7125 6.49425C14.121 6.47977 13.9898 6.46934 13.9446 6.43318C13.9184 6.41215 13.8959 6.31785 13.8372 5.98222C13.7589 5.53462 13.6782 5.20414 13.555 4.82719C13.1548 3.6027 12.477 2.57109 11.5281 1.74266C10.5241 0.866031 9.50536 0.342113 8.35543 0.110974C8.06941 0.0534866 7.83291 0.0229724 7.55168 0.00726736C7.37273 -0.00272598 6.65012 -0.00231246 6.47296 0.00788764ZM7.26402 1.63536C7.6837 1.6498 7.86118 1.66944 8.13028 1.73121C9.18907 1.97426 10.1679 2.53675 10.8793 3.31096C11.5372 4.02702 11.9761 4.85898 12.209 5.83196C12.3003 6.21313 12.31 6.33222 12.3095 7.06277C12.3089 7.86785 12.3 7.96217 12.18 8.43686C12.0001 9.14875 11.7102 9.77299 11.3039 10.3235C10.9258 10.8359 10.4432 11.3009 9.92486 11.6523C9.42563 11.9908 8.85578 12.2424 8.23275 12.3995C7.85092 12.4957 7.48928 12.5331 6.93829 12.5332C6.34714 12.5333 6.00929 12.4917 5.5423 12.3611C4.37962 12.0361 3.35063 11.3197 2.63433 10.3365C2.34898 9.94477 2.0867 9.44744 1.90286 8.94945C1.79688 8.66235 1.6848 8.22073 1.6427 7.92427C1.61836 7.75291 1.61178 7.61715 1.60676 7.18338C1.59816 6.43999 1.6192 6.21666 1.74349 5.73176C2.23779 3.80334 3.66821 2.31601 5.52538 1.79943C5.76102 1.73388 6.16104 1.65277 6.32913 1.63646C6.43593 1.62609 6.97629 1.62546 7.26402 1.63536ZM6.84522 2.70241C6.7347 2.73223 6.64373 2.83665 6.59652 2.9879C6.5869 3.0187 6.57338 3.09236 6.56646 3.15159C6.53324 3.43609 6.48401 4.2316 6.4433 5.14164C6.40213 6.06197 6.38118 6.1788 6.22452 6.36103C6.19364 6.39694 6.14444 6.4542 6.11519 6.48826C6.05711 6.55588 5.99546 6.67215 5.97271 6.75694C5.95438 6.82529 5.94659 7.14892 5.96066 7.25783C5.99165 7.49771 6.06991 7.65835 6.23936 7.82994C6.38406 7.97647 6.44912 8.0108 6.77754 8.11392C7.11997 8.22144 7.10678 8.21186 8.09005 9.06724C8.74751 9.6392 8.8386 9.7138 8.93921 9.76268C8.99362 9.78912 8.99563 9.78941 9.12957 9.78941C9.25835 9.78941 9.2672 9.7883 9.31147 9.76673C9.37278 9.73685 9.4583 9.66324 9.52774 9.58056C9.62796 9.46125 9.65379 9.38734 9.6535 9.22082C9.65328 9.098 9.64107 9.03572 9.60484 8.97279C9.56959 8.91153 9.35139 8.64965 8.70732 7.89556C8.29945 7.41803 8.22092 7.32083 8.12752 7.17796C8.03854 7.04183 7.9968 6.94763 7.94575 6.76774C7.88808 6.56449 7.8603 6.51646 7.68296 6.31327C7.63995 6.26401 7.60661 6.21467 7.58104 6.16251C7.49678 5.99056 7.47988 5.84307 7.45424 5.05549C7.42106 4.03668 7.3767 3.24516 7.33908 3.00082C7.32279 2.89502 7.25966 2.79259 7.1877 2.75521C7.10661 2.71309 6.91511 2.68356 6.84522 2.70241ZM20.8263 8.69986C18.6666 8.72051 18.2663 8.72856 18.0291 8.75609C17.8337 8.77878 17.7629 8.80658 17.6064 8.92204C17.448 9.0389 17.3887 9.11787 17.259 9.38492L17.1793 9.54901L17.1705 14.0241C17.1599 19.3741 17.165 20.6866 17.1974 20.9827C17.2164 21.1563 17.2881 21.3244 17.4134 21.4894C17.5065 21.612 17.632 21.7136 17.7889 21.7936C17.902 21.8513 18.0828 21.9146 18.1534 21.9212C18.1977 21.9254 18.2025 21.9239 18.2331 21.8966C18.2848 21.8505 18.341 21.7064 18.4113 21.44C18.4883 21.1483 18.5587 20.9549 18.6762 20.7123C18.8644 20.3236 19.089 20.0043 19.3877 19.7008C20.0005 19.0781 20.7863 18.6904 21.6512 18.5841C21.8288 18.5622 22.2504 18.5622 22.4253 18.5839C23.1294 18.6716 23.7402 18.918 24.2917 19.3369C24.6281 19.5924 24.9416 19.9264 25.1697 20.2723C25.4038 20.6274 25.5839 21.0561 25.7039 21.5441C25.7395 21.6887 25.7738 21.7891 25.8004 21.8265C25.8318 21.8707 25.8962 21.9032 25.9745 21.9146C26.0537 21.9261 26.8033 21.9259 26.9263 21.9144C27.1573 21.8926 27.3475 21.8277 27.5205 21.7115C27.6019 21.6569 27.7672 21.4881 27.819 21.4067C27.8417 21.3711 27.886 21.2848 27.9175 21.2148L27.9748 21.0876L27.9878 19.3842C28.0021 17.5049 28.0041 15.8423 27.9924 15.4107C27.9861 15.1783 27.9811 15.1073 27.9632 14.9934C27.883 14.4842 27.6834 13.9176 27.4379 13.5027C27.15 13.016 25.067 10.1637 24.4556 9.41896C24.2505 9.16907 24.0428 9.00069 23.7748 8.86697C23.5606 8.76011 23.4426 8.72796 23.191 8.70794C23.0317 8.69525 21.7615 8.69092 20.8263 8.69986ZM22.9024 10.9569C23.0493 10.9677 23.1005 10.9798 23.2121 11.0302C23.3482 11.0917 23.3823 11.1226 23.539 11.3272C23.8685 11.7574 25.4629 14.0266 25.8174 14.5701C26.0295 14.8953 26.1146 15.1153 26.0583 15.1925C26.0435 15.2127 26.032 15.2178 25.9906 15.2227C25.8906 15.2344 23.1023 15.2449 21.96 15.2378C20.6679 15.2297 20.5762 15.226 20.5364 15.1799C20.4912 15.1277 20.486 14.9113 20.4859 13.0932C20.4859 11.2407 20.4907 11.0578 20.5404 11.0026C20.5628 10.9778 20.6198 10.9648 20.74 10.957C20.8943 10.9471 22.7676 10.947 22.9024 10.9569ZM21.8754 19.8525C21.5833 19.8787 21.3364 19.9377 21.1009 20.0375C20.3917 20.338 19.837 20.9764 19.6171 21.745C19.5744 21.8945 19.5595 21.9964 19.5479 22.2204C19.5329 22.5111 19.556 22.8641 19.6034 23.065C19.7383 23.6378 20.1229 24.1934 20.6274 24.5445C21.0288 24.8238 21.3911 24.944 21.9188 24.9731C22.1904 24.988 22.4507 24.9669 22.6688 24.9123C23.107 24.8024 23.4977 24.5772 23.8256 24.2453C24.0509 24.0173 24.2274 23.7599 24.3536 23.4751C24.5972 22.9254 24.6388 22.3092 24.4718 21.7275C24.3821 21.4151 24.2222 21.1029 24.0163 20.8381C23.9371 20.7363 23.7229 20.5153 23.6266 20.436C23.2511 20.127 22.8109 19.9323 22.3449 19.8691C22.2472 19.8558 21.954 19.8455 21.8754 19.8525ZM8.87998 19.8821C8.63986 19.8998 8.43127 19.9433 8.24003 20.0158C7.63313 20.2459 7.14874 20.681 6.87433 21.2425C6.67017 21.6602 6.6041 21.9469 6.60415 22.4146C6.60421 22.9139 6.69838 23.3121 6.90218 23.6748C7.206 24.2156 7.69366 24.6319 8.27505 24.8469C8.67608 24.9952 9.08849 25.0363 9.48914 24.9678C9.74016 24.9249 10.0042 24.8363 10.2413 24.7152C10.5032 24.5816 10.712 24.4256 10.924 24.2054C11.2079 23.9105 11.3937 23.5988 11.5277 23.1928C11.6086 22.9478 11.6085 22.9487 11.6084 22.4275C11.6084 22.0362 11.6065 21.9692 11.5935 21.8977C11.5544 21.6835 11.4071 21.3017 11.2825 21.0917C11.086 20.7605 10.7591 20.435 10.4071 20.2201C10.1056 20.0359 9.80343 19.9279 9.48491 19.8903C9.37893 19.8778 9.00734 19.8728 8.87998 19.8821Z" fill="#475059"/>
</svg>
