<svg width="60" height="57" viewBox="0 0 60 57" fill="none" xmlns="http://www.w3.org/2000/svg">
<path fill-rule="evenodd" clip-rule="evenodd" d="M46.6143 0.0360672C46.1633 0.106342 45.8518 0.212203 45.3695 0.459025C44.6569 0.823748 43.9983 1.33517 43.6555 1.78989C43.1459 2.46582 39.623 7.44427 34.9815 14.0477C29.8348 21.37 26.671 25.8339 25.9765 26.7534C25.5789 27.2799 25.4231 27.558 25.4487 27.6951C25.4712 27.8154 25.6469 28.039 25.9058 28.2771C26.6204 28.934 27.6665 29.7452 27.7991 29.7452C27.8307 29.7452 27.9021 29.7219 27.9578 29.6934C28.1001 29.6206 28.5839 29.1384 29.0714 28.5836C29.999 27.528 32.9127 24.3334 40.9444 15.566C49.2243 6.52772 48.6468 7.16298 49.0327 6.6688C49.5546 6.00033 50.0194 5.18135 50.2117 4.59142C50.366 4.11773 50.406 3.85357 50.4063 3.30423C50.4065 2.9326 50.396 2.7633 50.3614 2.5775C50.1648 1.52323 49.5765 0.698483 48.7087 0.260797C48.3504 0.0800829 47.8857 -0.00320057 47.2539 9.39491e-05C47.0213 0.00130517 46.7335 0.0174871 46.6143 0.0360672ZM47.4331 0.860157C47.5089 0.889323 47.4673 0.938741 47.229 1.10267C46.1847 1.82128 45.6166 2.3792 45.14 3.15418C45.0356 3.32397 44.9832 3.38807 44.9525 3.38339C44.9292 3.37983 44.6873 3.19311 44.415 2.9685C44.0343 2.65439 43.92 2.54729 43.92 2.50473C43.92 2.39843 44.2743 1.94405 44.5314 1.72075C44.994 1.31872 45.6201 1.01425 46.1578 0.929681C46.5902 0.861707 47.332 0.821252 47.4331 0.860157ZM9.02317 8.28455C6.53848 8.29457 3.88397 8.31427 3.12426 8.32832C1.5739 8.35698 1.65096 8.34743 1.35159 8.54794C1.14448 8.68667 0.624229 9.21607 0.462634 9.45257C0.39156 9.55659 0.258398 9.79925 0.166693 9.99181L0 10.3419V28.2271V46.1123L0.184933 46.4133C0.528079 46.9718 0.734416 47.1821 1.27119 47.5201L1.58813 47.7197H29.5298H57.4716L57.8044 47.5097C58.2635 47.2202 58.5637 46.9181 58.8409 46.4668L59.0373 46.1471L59.0521 44.1536C59.0819 40.154 59.0956 14.9138 59.0689 13.35C59.0255 10.8125 58.9666 10.1106 58.7636 9.70785C58.697 9.57568 58.3824 9.15224 58.213 8.9667C58.0512 8.78948 57.8043 8.62626 57.4145 8.43888L57.0382 8.25797L53.2046 8.2641L49.371 8.27023L47.7895 10.184L46.208 12.0977L49.032 12.1155C50.5852 12.1253 52.6089 12.1403 53.529 12.1487L55.202 12.1641V26.5141V40.8641H29.5216H3.84119V26.5112V12.1582L18.8134 12.1571L33.7855 12.156L34.2808 11.3642C34.7671 10.5867 36.1121 8.45555 36.1989 8.32473L36.2432 8.25812L24.892 8.26224C18.6488 8.26449 11.5079 8.27452 9.02317 8.28455ZM22.578 28.8982C22.1831 28.9606 21.8373 29.1072 21.5131 29.3497C20.9781 29.7498 20.6804 30.2759 20.1238 31.8048C19.6969 32.9779 19.4088 33.5313 19.0061 33.952C18.4256 34.5584 17.8149 34.7545 16.1505 34.8686C15.4155 34.919 15.0749 34.9689 15.0749 35.0259C15.0749 35.0815 15.7456 35.2454 16.3069 35.3269C17.1737 35.4527 18.0288 35.4953 19.363 35.4791C20.9716 35.4595 22.0353 35.3579 23.2525 35.1076C25.2048 34.7063 26.4946 34.1436 27.1245 33.4183C27.2758 33.2442 27.385 33.0585 27.4634 32.8419C27.5207 32.6837 27.5277 32.6296 27.5277 32.3493C27.5278 31.9583 27.48 31.7705 27.2748 31.3561C27.0334 30.8686 26.6504 30.4076 26.1515 30.0041C25.8149 29.7319 25.5396 29.5576 25.0764 29.3234C24.3075 28.9345 24.1634 28.8987 23.3129 28.8851C22.9873 28.8799 22.6567 28.8858 22.578 28.8982ZM24.9748 49.8453L23.4116 49.8518L23.3982 49.9303C23.3909 49.9735 23.325 50.4122 23.2519 50.9052C23.0321 52.3878 22.9399 52.8656 22.7894 53.3005C22.5787 53.9093 22.3099 54.2416 21.5131 54.878C20.9271 55.346 20.6071 55.6908 20.6071 55.8543C20.6071 55.8794 20.628 55.9189 20.6534 55.942C20.6948 55.9796 20.8006 55.9863 21.65 56.0054C22.9177 56.0339 32.7778 56.033 35.4404 56.0041C36.603 55.9915 37.7059 55.9699 37.8912 55.9561C38.4029 55.918 38.4826 55.8842 38.4295 55.7277C38.3558 55.5104 38.0583 55.2024 37.4342 54.6975C36.9321 54.2913 36.7138 54.0751 36.5368 53.8086C36.198 53.2987 36.0444 52.698 35.7662 50.7962C35.6932 50.2965 35.6284 49.8741 35.6222 49.8575C35.6133 49.8334 34.686 49.8284 31.0745 49.8331C28.5795 49.8363 25.8346 49.8418 24.9748 49.8453Z" fill="#005392"/>
</svg>
