<svg width="60" height="58" viewBox="0 0 60 58" fill="none" xmlns="http://www.w3.org/2000/svg">
<path fill-rule="evenodd" clip-rule="evenodd" d="M47.0153 0.216289C46.4846 0.690387 45.6296 1.51245 42.5372 4.52165C39.1965 7.77245 33.955 12.8565 31.8536 14.8843C31.4399 15.2835 31.1014 15.6216 31.1014 15.6357C31.1014 15.6654 32.9262 17.4625 33.0526 17.5572C33.1347 17.6188 33.1392 17.6196 33.1957 17.583C33.4519 17.4169 34.3501 16.556 40.3202 10.7547C45.1241 6.08655 46.9081 4.3698 47.1472 4.18516L47.2101 4.13659L47.3169 4.22216C47.4989 4.36803 49.5397 6.38447 51.0969 7.95702C51.9135 8.78171 53.0881 9.96768 53.7071 10.5925C54.3261 11.2173 54.8326 11.7361 54.8326 11.7454C54.8325 11.7634 52.3769 14.1308 52.3479 14.1409C52.3385 14.1442 51.527 13.331 50.5446 12.3339C49.5622 11.3368 48.7482 10.5208 48.7358 10.5207C48.7143 10.5203 48.1353 11.0619 47.485 11.6906L47.1843 11.9812L48.6396 13.4274C50.1129 14.8914 50.7605 15.5621 50.7605 15.6238C50.7605 15.6786 50.3271 16.1355 49.7759 16.6617L49.2628 17.1515L48.9993 16.8961C48.8544 16.7557 48.4202 16.3332 48.0345 15.9573C47.3122 15.2534 46.9292 14.9072 46.8728 14.9072C46.8103 14.9072 46.5129 15.1699 45.9306 15.7396L45.3424 16.315L46.5187 17.4801L47.695 18.6452L46.6087 19.7201L45.5224 20.7949L44.9105 20.1845C44.574 19.8488 43.756 19.0277 43.0926 18.3598C42.4293 17.692 41.8793 17.1455 41.8703 17.1455C41.8614 17.1455 41.5219 17.4816 41.116 17.8924L40.378 18.6393L42.1759 20.445C43.1647 21.4381 43.9737 22.2587 43.9737 22.2686C43.9737 22.3151 42.4258 23.7796 42.3904 23.7666C42.3801 23.7628 41.8464 23.2474 41.2044 22.6213L40.0371 21.4828L39.5678 21.9309C38.9917 22.4809 38.6727 22.8031 38.6365 22.8715C38.6128 22.9161 38.6166 22.9331 38.664 22.9946C38.8994 23.2997 42.3317 26.6767 42.8819 27.1446C42.9814 27.2292 43.0103 27.2429 43.0623 27.23C43.1026 27.2199 43.4445 26.9003 44.041 26.315C44.8606 25.5107 49.1135 21.3762 54.2563 16.3843C55.8171 14.8692 58.2046 12.5629 58.8248 11.9712L59.0052 11.7992L58.871 11.6577C58.4695 11.2344 56.8984 9.64288 52.8867 5.5958C51.6115 4.30932 50.1258 2.80853 49.5851 2.2607C48.0021 0.656924 47.3369 0 47.2958 0C47.2747 0 47.1485 0.0973221 47.0153 0.216289ZM12.3355 6.92037C8.97452 10.2534 6.86767 12.3665 6.78815 12.4844C6.75506 12.5334 6.76768 12.5489 7.22613 13.0216C7.88635 13.7023 22.9463 28.5996 27.6416 33.2166C34.6821 40.1397 38.3046 43.6668 39.1231 44.3954L39.3512 44.5985L40.6953 45.1788C41.4346 45.498 42.4976 45.9599 43.0575 46.2052C43.6174 46.4506 44.6762 46.9109 45.4103 47.2282C46.1444 47.5455 47.2387 48.0187 47.8422 48.2799C48.4457 48.541 49.255 48.891 49.6407 49.0577C50.0264 49.2244 50.8663 49.5901 51.5071 49.8705C53.0199 50.5324 53.6511 50.7875 53.7762 50.7875C53.8163 50.7875 53.819 50.7768 53.8051 50.6736C53.7968 50.611 53.7304 50.4019 53.6576 50.2091C53.5849 50.0163 53.3317 49.3247 53.0951 48.6722C52.8584 48.0198 52.49 47.0075 52.2763 46.4227C52.0625 45.838 51.4756 44.2269 50.9719 42.8426C50.4682 41.4583 49.9388 40.0078 49.7955 39.6194C49.6521 39.231 49.3009 38.2635 49.015 37.4695C48.7291 36.6754 48.4526 35.9083 48.4006 35.7648L48.306 35.5039L43.7249 30.9525C26.2358 13.5764 22.1667 9.53477 19.2358 6.62916L15.932 3.35376L12.3355 6.92037ZM17.1337 7.99975C18.1395 8.99386 18.7268 9.60111 18.7268 9.6468C18.7268 9.70571 16.378 12.0746 14.3138 14.0976L13.034 15.3518L11.6122 13.9449L10.1904 12.538L10.2647 12.4523C10.5496 12.1242 14.144 8.51604 15.1698 7.52843C15.8488 6.87473 15.9032 6.82752 15.9495 6.85203C15.9768 6.86651 16.5097 7.38298 17.1337 7.99975ZM17.6409 28.7007C16.8633 29.4546 13.1424 33.063 9.37236 36.7193C5.6023 40.3757 1.95269 43.9148 1.26214 44.584C0.571581 45.2532 0.00363913 45.813 4.21232e-05 45.828C-0.00855449 45.8638 1.29797 47.1998 4.55437 50.4853C10.4875 56.4713 11.6681 57.6591 11.6853 57.6591C11.7042 57.6591 12.1696 57.2351 12.6413 56.7881C13.1841 56.2737 13.5769 55.8952 15.1864 54.335C15.7961 53.7441 17.1093 52.475 18.1047 51.5149C19.1001 50.5548 20.4032 49.2956 21.0004 48.7168C22.7953 46.9772 29.979 40.0411 30.6827 39.3682L30.8635 39.1954L30.4783 38.808C30.0537 38.3811 27.2404 35.533 26.8263 35.1108C26.4808 34.7586 26.082 34.403 26.0325 34.403C25.9648 34.403 25.7667 34.5724 25.3647 34.974C24.9164 35.4219 24.6082 35.7774 24.6099 35.8447C24.6107 35.8755 25.0577 36.3415 25.9217 37.212L27.2322 38.5327L26.367 39.3832C25.8912 39.851 25.4434 40.2828 25.3721 40.3427L25.2424 40.4517L25.18 40.4127C25.1458 40.3913 24.2401 39.5037 23.1674 38.4403C22.0948 37.377 21.2082 36.507 21.1973 36.507C21.1623 36.507 19.7966 37.8839 19.7799 37.9361C19.7667 37.9771 19.7905 38.0158 19.9097 38.1476C20.1441 38.4064 20.5634 38.8395 21.7451 40.0435C23.6144 41.9479 23.6224 41.9564 23.596 42.0031C23.543 42.0968 23.1429 42.5124 22.6461 42.9896L22.0975 43.5167L20.7247 42.1718C19.9697 41.4321 19.3436 40.8269 19.3334 40.8269C19.3074 40.8269 17.8445 42.2138 17.8445 42.2385C17.8445 42.2585 18.212 42.6355 19.3377 43.7703C19.8714 44.3084 20.514 44.9994 20.514 45.0354C20.514 45.0438 20.1705 45.3872 19.7505 45.7985C19.0033 46.5303 18.421 47.0718 18.3814 47.0718C18.3016 47.0718 14.8862 43.6949 14.5612 43.2947C14.4904 43.2075 14.4507 43.1772 14.4073 43.1772C14.3293 43.1772 14.1621 43.2913 13.9295 43.5034C13.6011 43.8029 12.8676 44.5297 12.8676 44.5556C12.8676 44.5692 13.7586 45.4906 14.8476 46.6032L16.8277 48.6261L16.0411 49.4046C15.6084 49.8328 15.2477 50.1806 15.2396 50.1775C15.2314 50.1744 14.7341 49.6733 14.1345 49.0639C13.535 48.4546 12.9231 47.8352 12.775 47.6875L12.5056 47.419L11.7591 48.1574C11.3485 48.5635 11.0125 48.9043 11.0125 48.9147C11.0125 48.925 11.5092 49.4287 12.1163 50.0339C13.1775 51.0919 13.6367 51.5729 13.6367 51.6265C13.6367 51.7494 12.2426 53.101 11.803 53.4044L11.6923 53.4808L11.3354 53.135C10.7505 52.5681 5.57096 47.3612 4.36701 46.1298L4.13528 45.8927L5.21552 44.8427C5.80963 44.2652 7.36465 42.7555 8.67108 41.4879C11.5656 38.6793 14.2947 36.0258 16.5076 33.8686C17.4215 32.9777 18.6434 31.7944 19.2229 31.2391C20.7997 29.728 21.1022 29.428 21.1022 29.3751C21.1022 29.3469 20.9851 29.2036 20.8008 29.0065C20.4438 28.6245 19.1142 27.3298 19.0792 27.33C19.0658 27.33 18.4186 27.9469 17.6409 28.7007ZM46.6162 35.5112C46.8946 35.7183 47.094 35.9738 47.2768 36.3578C47.3961 36.6085 47.495 36.874 48.0904 38.5425C48.5625 39.8654 48.9659 40.9768 49.4597 42.3154C49.9211 43.5661 50.0759 44.0072 50.2182 44.4774L50.3349 44.8629L49.2171 45.9689L48.0993 47.0748L47.3204 46.7401C46.8919 46.5561 45.7372 46.058 44.7542 45.6332C43.7713 45.2084 42.4084 44.6228 41.7257 44.3318C40.3018 43.725 40.0829 43.6232 39.8013 43.4368C39.5827 43.2921 39.186 42.927 38.9125 42.6187C38.7698 42.4579 38.7509 42.4273 38.7859 42.4147C38.8423 42.3945 39.5401 42.4245 40.873 42.5045C42.8463 42.6229 43.3281 42.6412 43.4725 42.6029C43.5445 42.5839 43.5415 42.5661 43.3221 41.7223C43.0435 40.6504 42.7653 39.3515 42.8058 39.3115C42.8202 39.2972 43.3591 39.3763 43.993 39.4855C45.5859 39.7601 45.856 39.802 46.1059 39.8136L46.3717 39.8258L46.3722 38.1608C46.3726 36.6424 46.397 35.4827 46.4295 35.4306C46.4511 35.3961 46.4756 35.4066 46.6162 35.5112Z" fill="#005392"/>
</svg>
