<svg width="25" height="25" viewBox="0 0 25 25" fill="none" xmlns="http://www.w3.org/2000/svg">
<path fill-rule="evenodd" clip-rule="evenodd" d="M19.724 0.0160939C19.5332 0.0474519 19.4014 0.0946889 19.1973 0.204826C18.8958 0.367572 18.6171 0.59578 18.472 0.798683C18.2564 1.1003 16.7658 3.32178 14.8018 6.26837C12.624 9.53572 11.2854 11.5276 10.9915 11.9379C10.8233 12.1728 10.7573 12.2969 10.7682 12.3581C10.7777 12.4118 10.852 12.5115 10.9616 12.6178C11.264 12.9109 11.7066 13.2729 11.7627 13.2729C11.7761 13.2729 11.8063 13.2625 11.8299 13.2497C11.89 13.2173 12.0948 13.0021 12.301 12.7546C12.6935 12.2835 13.9264 10.858 17.3249 6.94586C20.8284 2.91279 20.5841 3.19626 20.7473 2.97575C20.9682 2.67746 21.1648 2.31202 21.2462 2.04878C21.3115 1.83741 21.3284 1.71953 21.3285 1.47441C21.3286 1.30858 21.3242 1.23304 21.3095 1.15013C21.2263 0.679693 20.9774 0.311677 20.6102 0.116373C20.4586 0.0357345 20.262 -0.00142816 19.9946 4.19219e-05C19.8962 0.000582391 19.7745 0.00780307 19.724 0.0160939ZM20.0705 0.383818C20.1025 0.396833 20.0849 0.418884 19.9841 0.492031C19.5422 0.812692 19.3019 1.06164 19.1002 1.40746C19.056 1.48322 19.0338 1.51182 19.0209 1.50974C19.011 1.50815 18.9086 1.42483 18.7934 1.3246C18.6323 1.18444 18.584 1.13665 18.584 1.11766C18.584 1.07023 18.7339 0.867474 18.8427 0.767833C19.0384 0.58844 19.3033 0.452577 19.5309 0.414841C19.7138 0.38451 20.0277 0.366459 20.0705 0.383818ZM3.81799 3.69672C2.76664 3.7012 1.64343 3.70999 1.32198 3.71626C0.665967 3.72904 0.698575 3.72478 0.571902 3.81425C0.484267 3.87616 0.264132 4.11239 0.195755 4.21792C0.165682 4.26434 0.109337 4.37261 0.0705332 4.45854L0 4.61476V12.5955V20.5762L0.078251 20.7105C0.223447 20.9597 0.310755 21.0536 0.537882 21.2044L0.671987 21.2934H12.495H24.3181L24.4589 21.1998C24.6532 21.0706 24.7802 20.9358 24.8975 20.7344L24.9806 20.5917L24.9869 19.7022C24.9995 17.9175 25.0053 6.65484 24.9939 5.95703C24.9756 4.82475 24.9507 4.51155 24.8648 4.33183C24.8366 4.27285 24.7035 4.0839 24.6318 4.00112C24.5633 3.92203 24.4589 3.8492 24.2939 3.76559L24.1347 3.68487L22.5126 3.6876L20.8905 3.69033L20.2213 4.54428L19.5521 5.39822L20.747 5.40617C21.4042 5.41055 22.2605 5.41722 22.6499 5.42099L23.3577 5.42785V11.8311V18.2344H12.4915H1.62533V11.8298V5.42524L7.96054 5.42473L14.2958 5.42423L14.5053 5.07094C14.7111 4.724 15.2802 3.77303 15.3169 3.71466L15.3357 3.68493L10.5326 3.68677C7.89092 3.68777 4.86935 3.69225 3.81799 3.69672ZM9.5535 12.8949C9.38639 12.9228 9.24008 12.9882 9.10288 13.0964C8.87649 13.2749 8.75054 13.5097 8.51505 14.1919C8.33438 14.7154 8.21247 14.9623 8.04209 15.15C7.79649 15.4206 7.53804 15.5081 6.83379 15.559C6.52281 15.5815 6.37866 15.6038 6.37866 15.6293C6.37866 15.654 6.66249 15.7272 6.89999 15.7635C7.26676 15.8197 7.62858 15.8387 8.1931 15.8314C8.87378 15.8227 9.32384 15.7774 9.83887 15.6657C10.665 15.4866 11.2107 15.2355 11.4773 14.9119C11.5413 14.8342 11.5875 14.7513 11.6206 14.6547C11.6449 14.5841 11.6479 14.56 11.6479 14.4349C11.6479 14.2604 11.6277 14.1766 11.5408 13.9917C11.4387 13.7742 11.2766 13.5685 11.0655 13.3884C10.9231 13.267 10.8066 13.1892 10.6107 13.0847C10.2853 12.9111 10.2243 12.8952 9.86443 12.8891C9.72669 12.8867 9.58677 12.8894 9.5535 12.8949ZM10.5677 22.2419L9.90622 22.2448L9.90054 22.2799C9.89743 22.2991 9.86957 22.4949 9.83865 22.7149C9.74564 23.3765 9.7066 23.5896 9.64291 23.7837C9.5538 24.0554 9.44004 24.2036 9.10288 24.4876C8.85494 24.6964 8.71954 24.8503 8.71954 24.9233C8.71954 24.9345 8.72836 24.9521 8.73914 24.9624C8.75666 24.9792 8.8014 24.9822 9.1608 24.9907C9.69722 25.0034 13.8694 25.003 14.996 24.9901C15.4879 24.9845 15.9546 24.9748 16.033 24.9687C16.2495 24.9517 16.2832 24.9366 16.2608 24.8667C16.2296 24.7698 16.1037 24.6324 15.8396 24.4071C15.6271 24.2258 15.5348 24.1294 15.4599 24.0104C15.3166 23.7829 15.2515 23.5148 15.1339 22.6662C15.1029 22.4433 15.0755 22.2548 15.0729 22.2474C15.0691 22.2366 14.6767 22.2344 13.1486 22.2365C12.0929 22.2379 10.9314 22.2404 10.5677 22.2419Z" fill="#FF8401"/>
</svg>
