<svg width="59" height="52" viewBox="0 0 59 52" fill="none" xmlns="http://www.w3.org/2000/svg">
<path fill-rule="evenodd" clip-rule="evenodd" d="M13.6373 0.0163199C13.2892 0.0359985 12.9832 0.0651955 12.7015 0.105622C10.0685 0.483383 7.83984 1.38464 5.89243 2.85911C4.10368 4.21343 2.48297 6.16074 1.482 8.15829C0.671708 9.77532 0.206268 11.4576 0.0339029 13.3923C-0.00629189 13.8435 -0.0123879 15.4132 0.0244736 15.8253C0.134238 17.0528 0.335266 18.0461 0.689283 19.1103C0.923839 19.8153 1.19207 20.4467 1.57697 21.1995C2.12079 22.2632 2.53728 22.8713 3.58794 24.1356C3.99422 24.6244 4.17249 24.8541 4.26634 25.0096C4.32296 25.1034 4.32518 25.1146 4.34152 25.3899C4.38979 26.2032 4.41863 29.559 4.45071 38.0974L4.47173 43.6944L4.58684 43.9261C4.75607 44.2668 4.872 44.4311 5.11634 44.6762C5.41774 44.9785 5.74515 45.19 6.02305 45.2617C6.0802 45.2764 6.22458 45.2971 6.3439 45.3076C6.83133 45.3505 10.4582 45.3793 10.7853 45.3429C11.1109 45.3066 11.2693 45.2277 11.3468 45.063C11.3689 45.0161 11.4262 44.8214 11.4741 44.6302C11.5874 44.1785 11.6782 43.8919 11.8313 43.5022C12.7061 41.2761 14.5009 39.5608 16.721 38.829C17.2129 38.6669 17.7899 38.5433 18.4054 38.4683C18.7747 38.4233 19.7502 38.4237 20.1166 38.4691C21.9337 38.6939 23.4812 39.4594 24.8239 40.7974C25.8685 41.8383 26.4816 42.944 26.8983 44.5387C26.9531 44.7481 27.0181 44.9624 27.0429 45.0149C27.126 45.1905 27.2661 45.2783 27.5406 45.327C27.7236 45.3595 28.6238 45.3704 30.1252 45.3584C31.8172 45.3449 32.1099 45.3261 32.4959 45.206C32.9631 45.0605 33.4084 44.6844 33.7062 44.1838C33.8715 43.906 33.9025 43.7684 33.9313 43.1864C33.966 42.4864 33.9828 37.969 33.9828 29.3633C33.9828 20.6435 33.9663 16.3079 33.9305 15.5862C33.9056 15.0835 33.8826 14.9541 33.7812 14.7443C33.6713 14.5171 33.577 14.3835 33.3889 14.189C33.1486 13.9405 32.9302 13.7901 32.5911 13.6397C32.2323 13.4806 32.0974 13.4634 30.9965 13.4369C29.7502 13.407 29.4739 13.3854 29.3787 13.3106C29.3234 13.2671 29.2761 13.072 29.1524 12.3775C28.9874 11.4514 28.8173 10.7676 28.5578 9.98772C27.7147 7.45418 26.2866 5.31971 24.2876 3.60566C22.1722 1.79187 20.026 0.707851 17.6033 0.229611C17.0007 0.110667 16.5024 0.0475312 15.9099 0.0150366C15.5329 -0.0056402 14.0105 -0.00478461 13.6373 0.0163199ZM15.3039 3.38366C16.1881 3.41353 16.562 3.45417 17.129 3.58197C19.3596 4.08485 21.4218 5.24866 22.9206 6.85056C24.3068 8.33212 25.2313 10.0535 25.7221 12.0666C25.9143 12.8553 25.9348 13.1017 25.9337 14.6133C25.9325 16.279 25.9138 16.4741 25.661 17.4563C25.2819 18.9293 24.6712 20.2208 23.8152 21.3599C23.0186 22.42 22.0018 23.3821 20.9098 24.1092C19.858 24.8096 18.6574 25.3302 17.3448 25.6552C16.5404 25.8543 15.7785 25.9316 14.6176 25.9319C13.3722 25.9321 12.6604 25.846 11.6766 25.5759C9.22703 24.9034 7.05913 23.421 5.55004 21.3867C4.94884 20.5763 4.39628 19.5473 4.00896 18.5169C3.78567 17.9229 3.54955 17.0091 3.46085 16.3957C3.40957 16.0412 3.3957 15.7603 3.38513 14.8628C3.36702 13.3247 3.41135 12.8626 3.6732 11.8593C4.71459 7.86932 7.72822 4.79196 11.6409 3.72311C12.1374 3.58748 12.9801 3.41968 13.3343 3.38592C13.5593 3.36448 14.6977 3.36316 15.3039 3.38366ZM14.4216 5.59143C14.1887 5.65313 13.9971 5.86918 13.8976 6.18213C13.8773 6.24585 13.8488 6.39826 13.8343 6.5208C13.7643 7.10945 13.6606 8.75541 13.5748 10.6383C13.4881 12.5425 13.4439 12.7843 13.1139 13.1613C13.0488 13.2356 12.9452 13.3541 12.8835 13.4246C12.7612 13.5645 12.6313 13.805 12.5834 13.9805C12.5447 14.1219 12.5283 14.7915 12.558 15.0168C12.6233 15.5132 12.7881 15.8455 13.1451 16.2006C13.45 16.5037 13.5871 16.5748 14.279 16.7881C15.0004 17.0106 14.9726 16.9908 17.0442 18.7606C18.4293 19.944 18.6212 20.0984 18.8332 20.1995C18.9478 20.2542 18.9521 20.2548 19.2343 20.2548C19.5056 20.2548 19.5242 20.2525 19.6175 20.2079C19.7467 20.1461 19.9268 19.9938 20.0731 19.8227C20.2843 19.5758 20.3387 19.4229 20.3381 19.0784C20.3376 18.8243 20.3119 18.6954 20.2356 18.5652C20.1613 18.4384 19.7016 17.8966 18.3447 16.3363C17.4853 15.3483 17.3199 15.1472 17.1231 14.8516C16.9357 14.5699 16.8477 14.375 16.7402 14.0028C16.6187 13.5823 16.5602 13.4829 16.1865 13.0625C16.0959 12.9606 16.0257 12.8585 15.9718 12.7506C15.7943 12.3948 15.7587 12.0896 15.7047 10.4601C15.6348 8.3521 15.5413 6.71441 15.462 6.20887C15.4277 5.98996 15.2947 5.77802 15.1431 5.70068C14.9723 5.61352 14.5688 5.55243 14.4216 5.59143ZM43.877 18.0005C39.327 18.0432 38.4836 18.0599 37.9839 18.1168C37.5722 18.1638 37.423 18.2213 37.0932 18.4602C36.7595 18.702 36.6347 18.8654 36.3614 19.4179L36.1935 19.7574L36.1749 29.0165C36.1526 40.0861 36.1633 42.8018 36.2316 43.4143C36.2717 43.7735 36.4226 44.1213 36.6867 44.4627C36.8828 44.7163 37.1472 44.9267 37.4778 45.0922C37.7161 45.2115 38.097 45.3425 38.2457 45.3562C38.339 45.3649 38.3492 45.3618 38.4136 45.3053C38.5226 45.2098 38.6411 44.9117 38.7891 44.3605C38.9513 43.757 39.0996 43.3567 39.3471 42.8549C39.7437 42.0507 40.217 41.39 40.8461 40.7621C42.1371 39.4736 43.7927 38.6714 45.6149 38.4514C45.9891 38.4062 46.8773 38.4061 47.2458 38.4512C48.7293 38.6326 50.0161 39.1424 51.1781 40.0091C51.8868 40.5377 52.5472 41.2287 53.0277 41.9445C53.5209 42.6792 53.9004 43.5663 54.1533 44.5759C54.2282 44.8751 54.3005 45.0829 54.3566 45.1603C54.4227 45.2516 54.5583 45.3189 54.7233 45.3425C54.8901 45.3663 56.4695 45.3659 56.7286 45.342C57.2152 45.297 57.6159 45.1627 57.9804 44.9223C58.1519 44.8092 58.5001 44.46 58.6094 44.2915C58.6571 44.218 58.7504 44.0394 58.8168 43.8946L58.9375 43.6315L58.9649 40.1069C58.9952 36.2186 58.9992 32.7786 58.9746 31.8855C58.9614 31.4047 58.9509 31.2579 58.9131 31.0222C58.7442 29.9686 58.3236 28.7962 57.8065 27.9378C57.1998 26.9308 52.8113 21.0293 51.5233 19.4883C51.0911 18.9713 50.6536 18.6229 50.0889 18.3462C49.6376 18.1251 49.389 18.0586 48.859 18.0172C48.5234 17.9909 45.8473 17.982 43.877 18.0005ZM48.2509 22.6704C48.5605 22.6927 48.6684 22.7178 48.9035 22.8221C49.1902 22.9493 49.2619 23.0133 49.5921 23.4365C50.2864 24.3266 53.6454 29.0219 54.3923 30.1462C54.8392 30.8192 55.0186 31.2743 54.8998 31.4341C54.8687 31.4759 54.8444 31.4865 54.7572 31.4965C54.5465 31.5208 48.6722 31.5424 46.2655 31.5277C43.5433 31.5111 43.3502 31.5034 43.2662 31.408C43.171 31.3 43.16 30.8522 43.16 27.0906C43.1599 23.2577 43.1699 22.8792 43.2747 22.765C43.3218 22.7136 43.4419 22.6867 43.6952 22.6707C44.0203 22.6502 47.967 22.6499 48.2509 22.6704ZM46.0872 41.0759C45.4719 41.1301 44.9518 41.2521 44.4556 41.4586C42.9614 42.0804 41.7928 43.4012 41.3296 44.9916C41.2395 45.301 41.2082 45.5116 41.1838 45.9751C41.152 46.5768 41.2008 47.3071 41.3005 47.7228C41.5847 48.9078 42.3951 50.0575 43.4581 50.784C44.3036 51.3617 45.067 51.6106 46.1788 51.6707C46.751 51.7016 47.2992 51.6579 47.7588 51.5448C48.6821 51.3175 49.5051 50.8515 50.1961 50.1648C50.6706 49.6932 51.0425 49.1605 51.3083 48.5713C51.8215 47.4338 51.9093 46.1588 51.5574 44.9554C51.3684 44.309 51.0316 43.663 50.5977 43.1151C50.431 42.9046 49.9797 42.4472 49.7767 42.2832C48.9856 41.6438 48.0583 41.241 47.0765 41.1102C46.8705 41.0827 46.2528 41.0613 46.0872 41.0759ZM18.7084 41.1372C18.2025 41.1737 17.7631 41.2638 17.3602 41.4138C16.0816 41.8899 15.061 42.79 14.4829 43.9518C14.0528 44.8161 13.9136 45.4092 13.9137 46.377C13.9138 47.41 14.1122 48.234 14.5416 48.9845C15.1817 50.1034 16.2091 50.9648 17.434 51.4096C18.2788 51.7165 19.1477 51.8014 19.9918 51.6598C20.5207 51.571 21.0769 51.3876 21.5765 51.1371C22.1282 50.8605 22.5682 50.5378 23.0149 50.0822C23.6129 49.4721 24.0044 48.8272 24.2867 47.9872C24.4571 47.4802 24.4569 47.4821 24.4568 46.4038C24.4567 45.5941 24.4527 45.4555 24.4252 45.3076C24.3428 44.8644 24.0325 44.0744 23.77 43.6399C23.3561 42.9546 22.6675 42.2812 21.9258 41.8364C21.2905 41.4554 20.6539 41.2319 19.9829 41.1541C19.7596 41.1283 18.9767 41.1179 18.7084 41.1372Z" fill="#005392"/>
</svg>
