<?xml version="1.0" encoding="UTF-8"?>
<svg xmlns="http://www.w3.org/2000/svg" xmlns:xlink="http://www.w3.org/1999/xlink" width="15px" height="15px" viewBox="0 0 15 15" version="1.1">
<g id="surface1">
<path style=" stroke:none;fill-rule:nonzero;fill:rgb(0%,0%,0%);fill-opacity:1;" d="M 12.800781 1.554688 C 12.777344 1.554688 12.753906 1.558594 12.730469 1.5625 L 8.75 1.5625 C 8.523438 1.558594 8.316406 1.679688 8.199219 1.871094 C 8.089844 2.066406 8.089844 2.308594 8.199219 2.503906 C 8.316406 2.699219 8.523438 2.816406 8.75 2.8125 L 11.304688 2.8125 L 7.058594 7.058594 C 6.894531 7.214844 6.828125 7.449219 6.886719 7.667969 C 6.941406 7.886719 7.113281 8.058594 7.332031 8.113281 C 7.550781 8.171875 7.785156 8.105469 7.941406 7.941406 L 12.1875 3.695312 L 12.1875 6.25 C 12.183594 6.476562 12.300781 6.683594 12.496094 6.800781 C 12.691406 6.910156 12.933594 6.910156 13.128906 6.800781 C 13.320312 6.683594 13.441406 6.476562 13.4375 6.25 L 13.4375 2.265625 C 13.460938 2.082031 13.40625 1.898438 13.28125 1.761719 C 13.160156 1.625 12.984375 1.550781 12.800781 1.554688 Z M 3.90625 2.5 C 2.621094 2.5 1.5625 3.558594 1.5625 4.84375 L 1.5625 11.09375 C 1.5625 12.378906 2.621094 13.4375 3.90625 13.4375 L 10.15625 13.4375 C 11.441406 13.4375 12.5 12.378906 12.5 11.09375 L 12.5 8.125 C 12.503906 7.898438 12.382812 7.691406 12.191406 7.578125 C 11.996094 7.460938 11.753906 7.460938 11.558594 7.578125 C 11.363281 7.691406 11.246094 7.898438 11.25 8.125 L 11.25 11.09375 C 11.25 11.703125 10.765625 12.1875 10.15625 12.1875 L 3.90625 12.1875 C 3.296875 12.1875 2.8125 11.703125 2.8125 11.09375 L 2.8125 4.84375 C 2.8125 4.234375 3.296875 3.75 3.90625 3.75 L 6.875 3.75 C 7.101562 3.753906 7.308594 3.636719 7.421875 3.441406 C 7.539062 3.246094 7.539062 3.003906 7.421875 2.808594 C 7.308594 2.617188 7.101562 2.496094 6.875 2.5 Z M 3.90625 2.5 "/>
</g>
</svg>
