<?xml version="1.0" encoding="UTF-8"?>
<svg xmlns="http://www.w3.org/2000/svg" xmlns:xlink="http://www.w3.org/1999/xlink" width="300px" height="69px" viewBox="0 0 300 69" version="1.1">
<defs>
<clipPath id="clip1">
  <path d="M 0 0 L 68.917969 0 L 68.917969 69 L 0 69 Z M 0 0 "/>
</clipPath>
<linearGradient id="linear0" gradientUnits="userSpaceOnUse" x1="117.622" y1="0" x2="117.622" y2="235.243" gradientTransform="matrix(0.292969,0,0,0.293617,0,0)">
<stop offset="0" style="stop-color:rgb(98.039216%,8.235294%,29.803922%);stop-opacity:1;"/>
<stop offset="1" style="stop-color:rgb(100%,0%,12.156863%);stop-opacity:1;"/>
</linearGradient>
<linearGradient id="linear1" gradientUnits="userSpaceOnUse" x1="90.7704" y1="-0.000000163319" x2="90.7704" y2="132.118" gradientTransform="matrix(0.292969,0,0,0.293617,0,0)">
<stop offset="0" style="stop-color:rgb(0%,63.921569%,100%);stop-opacity:1;"/>
<stop offset="1" style="stop-color:rgb(7.843137%,55.686275%,100%);stop-opacity:1;"/>
</linearGradient>
</defs>
<g id="surface1">
<g clip-path="url(#clip1)" clip-rule="nonzero">
<path style=" stroke:none;fill-rule:nonzero;fill:url(#linear0);" d="M 53.8125 0 L 15.105469 0 C 6.761719 0 0 6.777344 0 15.140625 L 0 53.933594 C 0 62.292969 6.761719 69.070312 15.105469 69.070312 L 53.8125 69.070312 C 62.15625 69.070312 68.917969 62.292969 68.917969 53.933594 L 68.917969 15.140625 C 68.917969 6.777344 62.15625 0 53.8125 0 Z M 53.8125 0 "/>
</g>
<path style=" stroke:none;fill-rule:nonzero;fill:rgb(100%,100%,100%);fill-opacity:1;" d="M 9.441406 37.925781 C 9.441406 45.28125 15.410156 51.289062 23.195312 51.289062 C 24.628906 51.289062 25.875 51.027344 26.707031 50.6875 C 27.691406 51.589844 29.089844 52.753906 30.183594 53.539062 C 33.054688 55.566406 36.191406 56.769531 39.628906 56.769531 C 41.332031 56.769531 42.917969 56.46875 43.9375 56.207031 L 43.9375 52.191406 C 42.953125 52.453125 41.933594 52.527344 40.953125 52.527344 C 38.875 52.527344 36.71875 51.925781 34.378906 50.574219 C 33.433594 49.972656 32.5625 49.335938 31.65625 48.585938 C 34.226562 46.707031 37.023438 42.992188 37.023438 37.925781 C 37.023438 30.566406 31.054688 24.601562 23.195312 24.601562 C 15.410156 24.601562 9.441406 30.566406 9.441406 37.925781 Z M 14.957031 37.925781 C 14.957031 33.121094 18.660156 29.21875 23.195312 29.21875 C 27.765625 29.21875 31.507812 33.121094 31.507812 37.925781 C 31.507812 42.730469 27.765625 46.632812 23.195312 46.632812 C 18.660156 46.632812 14.957031 42.730469 14.957031 37.925781 Z M 14.957031 37.925781 "/>
<path style=" stroke:none;fill-rule:nonzero;fill:rgb(100%,100%,100%);fill-opacity:1;" d="M 43.832031 41.003906 L 45.078125 41.003906 C 45.308594 41.003906 45.535156 41.003906 45.796875 40.964844 C 47.382812 44.15625 50.671875 48.773438 52.335938 50.800781 L 59.476562 50.800781 C 56.226562 47.835938 53.394531 43.40625 50.445312 40.101562 C 53.164062 39.238281 55.546875 37.175781 55.546875 33.121094 C 55.546875 28.464844 52.144531 25.085938 45.949219 25.085938 L 38.203125 25.085938 C 38.316406 26.214844 38.390625 29.253906 38.390625 31.808594 L 38.390625 44.15625 C 38.390625 46.707031 38.316406 49.636719 38.203125 50.800781 L 43.984375 50.800781 C 43.871094 49.636719 43.832031 46.707031 43.832031 44.15625 Z M 43.832031 29.367188 L 45.683594 29.367188 C 48.59375 29.367188 50.066406 31.242188 50.066406 33.269531 C 50.066406 35.523438 48.367188 37.136719 45.910156 37.136719 L 43.832031 37.136719 Z M 43.832031 29.367188 "/>
<path style=" stroke:none;fill-rule:nonzero;fill:url(#linear1);" d="M 46.964844 0 C 46.964844 0 24.308594 12.0625 23.601562 38.792969 C 6.5 28.054688 5.859375 9.820312 6.308594 2.835938 C 6.863281 2.429688 7.707031 1.789062 10.0625 0.84375 C 12.148438 0.0664062 14.527344 0 14.527344 0 Z M 46.964844 0 "/>
<path style=" stroke:none;fill-rule:nonzero;fill:rgb(0%,0%,0%);fill-opacity:1;" d="M 93.242188 34.292969 C 93.242188 42.320312 99.683594 48.871094 108.078125 48.871094 C 109.628906 48.871094 110.972656 48.585938 111.871094 48.21875 C 112.929688 49.199219 114.4375 50.46875 115.621094 51.328125 C 118.71875 53.539062 122.101562 54.851562 125.8125 54.851562 C 127.644531 54.851562 129.355469 54.523438 130.457031 54.238281 L 130.457031 49.855469 C 129.398438 50.140625 128.296875 50.222656 127.238281 50.222656 C 124.996094 50.222656 122.671875 49.570312 120.144531 48.09375 C 119.125 47.4375 118.1875 46.742188 117.210938 45.925781 C 119.980469 43.875 123 39.824219 123 34.292969 C 123 26.269531 116.558594 19.757812 108.078125 19.757812 C 99.683594 19.757812 93.242188 26.269531 93.242188 34.292969 Z M 99.195312 34.292969 C 99.195312 29.054688 103.1875 24.792969 108.078125 24.792969 C 113.011719 24.792969 117.046875 29.054688 117.046875 34.292969 C 117.046875 39.535156 113.011719 43.792969 108.078125 43.792969 C 103.1875 43.792969 99.195312 39.535156 99.195312 34.292969 Z M 99.195312 34.292969 "/>
<path style=" stroke:none;fill-rule:nonzero;fill:rgb(0%,0%,0%);fill-opacity:1;" d="M 132.714844 40.109375 L 132.714844 33.476562 C 132.714844 32.371094 132.792969 30.527344 132.875 29.339844 L 126.4375 29.339844 C 126.109375 30.324219 125.578125 31.753906 125.089844 32.574219 L 127.089844 32.574219 L 127.089844 40.804688 C 127.089844 45.964844 129.859375 48.707031 133.773438 48.707031 C 136.257812 48.707031 137.972656 47.847656 139.316406 45.84375 C 139.355469 46.90625 139.601562 47.808594 139.886719 48.339844 L 145.347656 48.339844 C 144.902344 47.398438 144.695312 46.085938 144.695312 44.082031 L 144.695312 33.476562 C 144.695312 32.371094 144.738281 30.527344 144.859375 29.339844 L 138.949219 29.339844 C 139.070312 30.527344 139.113281 32.371094 139.113281 33.476562 L 139.113281 40.070312 C 139.113281 43.015625 137.480469 44.203125 135.933594 44.203125 C 134.507812 44.203125 132.714844 43.261719 132.714844 40.109375 Z M 132.714844 40.109375 "/>
<path style=" stroke:none;fill-rule:nonzero;fill:rgb(0%,0%,0%);fill-opacity:1;" d="M 155.394531 33.476562 C 155.394531 32 155.4375 30.242188 155.519531 29.339844 L 149.117188 29.339844 C 148.832031 30.324219 148.261719 31.835938 147.773438 32.574219 L 149.769531 32.574219 L 149.769531 44.164062 C 149.769531 45.597656 149.6875 47.480469 149.609375 48.339844 L 155.519531 48.339844 C 155.4375 47.5625 155.394531 45.679688 155.394531 44.164062 Z M 149.484375 23.523438 C 149.484375 25.246094 150.832031 26.636719 152.542969 26.636719 C 154.253906 26.636719 155.597656 25.246094 155.597656 23.523438 C 155.597656 21.765625 154.253906 20.371094 152.542969 20.371094 C 150.832031 20.371094 149.484375 21.765625 149.484375 23.523438 Z M 149.484375 23.523438 "/>
<path style=" stroke:none;fill-rule:nonzero;fill:rgb(0%,0%,0%);fill-opacity:1;" d="M 164.34375 38.878906 C 164.34375 36.097656 166.503906 33.804688 169.238281 33.804688 C 171.191406 33.804688 172.253906 34.457031 173.191406 35.359375 L 173.191406 29.421875 C 172.050781 29.378906 170.703125 28.972656 169.113281 28.972656 C 163.164062 28.972656 158.84375 33.394531 158.84375 38.878906 C 158.84375 44.246094 163.121094 48.625 169.113281 48.625 C 171.152344 48.625 171.925781 48.339844 173.355469 48.175781 L 173.355469 42.15625 C 172.457031 43.097656 171.273438 43.835938 169.238281 43.835938 C 166.503906 43.835938 164.34375 41.582031 164.34375 38.878906 Z M 164.34375 38.878906 "/>
<path style=" stroke:none;fill-rule:nonzero;fill:rgb(0%,0%,0%);fill-opacity:1;" d="M 182.71875 22.417969 C 182.71875 21.109375 182.757812 19.226562 182.882812 18.285156 L 176.402344 18.285156 C 176.15625 19.183594 175.542969 20.699219 175.136719 21.519531 L 177.132812 21.519531 L 177.132812 44.203125 C 177.132812 45.554688 177.09375 47.4375 176.972656 48.339844 L 182.882812 48.339844 C 182.800781 47.4375 182.71875 45.679688 182.71875 44.203125 L 182.71875 40.027344 C 187.691406 46.085938 188.832031 47.4375 189.445312 48.339844 L 196.496094 48.339844 C 194.375 46.167969 193.355469 45.0625 187.730469 38.019531 C 192.175781 31.960938 193.234375 30.691406 194.375 29.339844 L 188.464844 29.339844 C 187.773438 30.566406 187.160156 31.511719 182.71875 37.53125 Z M 182.71875 22.417969 "/>
<path style=" stroke:none;fill-rule:nonzero;fill:rgb(0%,0%,0%);fill-opacity:1;" d="M 213.050781 37.652344 L 214.394531 37.652344 C 214.640625 37.652344 214.882812 37.652344 215.167969 37.613281 C 216.878906 41.09375 220.425781 46.128906 222.21875 48.339844 L 229.925781 48.339844 C 226.417969 45.105469 223.363281 40.273438 220.183594 36.667969 C 223.117188 35.726562 225.683594 33.476562 225.683594 29.054688 C 225.683594 23.976562 222.015625 20.289062 215.332031 20.289062 L 206.976562 20.289062 C 207.097656 21.519531 207.179688 24.835938 207.179688 27.621094 L 207.179688 41.09375 C 207.179688 43.875 207.097656 47.070312 206.976562 48.339844 L 213.210938 48.339844 C 213.089844 47.070312 213.050781 43.875 213.050781 41.09375 Z M 213.050781 24.957031 L 215.046875 24.957031 C 218.183594 24.957031 219.773438 27.003906 219.773438 29.21875 C 219.773438 31.675781 217.941406 33.433594 215.289062 33.433594 L 213.050781 33.433594 Z M 213.050781 24.957031 "/>
<path style=" stroke:none;fill-rule:nonzero;fill:rgb(0%,0%,0%);fill-opacity:1;" d="M 247.71875 39.90625 C 247.800781 39.660156 247.839844 39.003906 247.839844 38.472656 C 247.839844 33.84375 244.417969 29.011719 238.792969 29.011719 C 233.617188 29.011719 229.621094 33.3125 229.621094 38.878906 C 229.621094 44.410156 233.859375 48.667969 239.730469 48.667969 C 242.867188 48.667969 244.417969 47.847656 245.761719 47.765625 L 245.761719 43.015625 C 244.214844 43.957031 242.828125 44.246094 240.667969 44.246094 C 237.773438 44.246094 235.777344 42.320312 235.328125 39.90625 Z M 238.792969 33.066406 C 240.75 33.066406 241.808594 34.582031 242.054688 36.097656 L 235.246094 36.097656 C 235.777344 34.292969 236.957031 33.066406 238.792969 33.066406 Z M 238.792969 33.066406 "/>
<path style=" stroke:none;fill-rule:nonzero;fill:rgb(0%,0%,0%);fill-opacity:1;" d="M 255.953125 34.292969 C 255.953125 33.515625 256.441406 32.859375 257.828125 32.859375 C 258.96875 32.859375 261.414062 33.558594 262.3125 34.828125 L 262.3125 29.707031 C 261.292969 29.625 259.621094 28.972656 257.542969 28.972656 C 252.9375 28.972656 250.367188 31.140625 250.367188 34.746094 C 250.367188 40.601562 257.5 40.847656 257.5 43.261719 C 257.5 44.164062 256.808594 44.738281 255.625 44.738281 C 253.953125 44.738281 251.101562 43.507812 250 42.117188 L 250 47.726562 C 251.101562 47.847656 253.628906 48.832031 255.992188 48.832031 C 260.679688 48.832031 263.125 46.332031 263.125 42.851562 C 263.125 36.792969 255.953125 36.585938 255.953125 34.292969 Z M 255.953125 34.292969 "/>
<path style=" stroke:none;fill-rule:nonzero;fill:rgb(0%,0%,0%);fill-opacity:1;" d="M 267.425781 24.261719 C 267.507812 25.246094 267.550781 26.597656 267.550781 27.949219 L 267.550781 29.339844 L 264.820312 29.339844 L 264.820312 33.96875 L 267.550781 33.96875 L 267.550781 41.378906 C 267.550781 46.539062 270.6875 48.667969 274.316406 48.667969 C 275.785156 48.667969 276.84375 48.421875 277.617188 48.421875 L 277.617188 43.589844 C 277.332031 43.875 276.476562 44 275.90625 44 C 274.273438 44 273.132812 43.015625 273.132812 40.273438 L 273.132812 33.96875 L 278.1875 33.96875 L 278.1875 29.339844 L 273.132812 29.339844 L 273.132812 27.949219 C 273.132812 26.554688 273.175781 25.246094 273.257812 24.261719 Z M 267.425781 24.261719 "/>
<path style=" stroke:none;fill-rule:nonzero;fill:rgb(0%,0%,0%);fill-opacity:1;" d="M 279.945312 38.839844 C 279.945312 44.246094 284.429688 48.625 289.972656 48.625 C 295.476562 48.625 300 44.246094 300 38.839844 C 300 33.351562 295.476562 28.972656 289.972656 28.972656 C 284.429688 28.972656 279.945312 33.394531 279.945312 38.839844 Z M 285.285156 38.839844 C 285.285156 36.054688 287.324219 33.84375 289.972656 33.84375 C 292.539062 33.84375 294.660156 36.054688 294.660156 38.839844 C 294.660156 41.582031 292.539062 43.753906 289.972656 43.753906 C 287.324219 43.753906 285.285156 41.582031 285.285156 38.839844 Z M 285.285156 38.839844 "/>
</g>
</svg>
