<svg width="54" height="47" viewBox="0 0 54 47" fill="none" xmlns="http://www.w3.org/2000/svg">
<path d="M40.0617 0.42295C39.7239 0.298545 39.3361 0.398069 39.0984 0.671758L0.212349 45.5569C-0.0128598 45.8181 -0.0629062 46.1789 0.0747213 46.4899C0.212349 46.8009 0.525138 47 0.875463 47H36.5835C38.8231 47 40.6373 45.1961 40.6373 42.9693V1.23158C40.6373 0.870806 40.3996 0.547354 40.0617 0.42295ZM36.5835 45.2583H2.78974L38.8857 3.58282V8.94465H36.1581V9.81549V10.6863H38.8731V12.739H36.1581V13.6098V14.4807H38.8731V16.5333H36.1581V17.4042V18.275H38.8731V20.3277H36.1581V21.1985V22.0693H38.8731V24.122H36.1581V24.9928V25.8637H38.8731V27.9163H36.1581V28.7872V29.658H38.8731V31.7107H36.1581V32.5815V33.4523H38.8731V35.505H36.1581V36.3758V37.2467H38.8731V39.2993H36.1581V40.1702V41.041H38.8731V42.9817C38.8857 44.2258 37.8472 45.2583 36.5835 45.2583Z" fill="#ff9800"/>
<path d="M33.431 17.0434C33.0806 16.919 32.6928 17.0185 32.4551 17.3046L13.9629 39.3989C13.7502 39.6601 13.7002 40.0209 13.8378 40.3195C13.9879 40.6305 14.2882 40.8171 14.626 40.8171H33.1182C33.3559 40.8171 33.5686 40.73 33.7312 40.5558C33.8939 40.3941 33.994 40.1702 33.994 39.9463V17.852C34.0065 17.4912 33.7813 17.1678 33.431 17.0434ZM32.2549 39.0879H16.5028L32.2549 20.2655V39.0879Z" fill="#ff9800"/>
<path d="M53.1242 0H44.1158C43.6279 0 43.24 0.385654 43.24 0.870831V27.8666C43.24 28.2025 43.4277 28.4886 43.7029 28.6379L47.8693 37.6572C48.0069 37.9682 48.3197 38.1673 48.67 38.1673C49.0079 38.1673 49.3206 37.9682 49.4708 37.6572L53.5245 28.6503C53.8123 28.5011 54 28.2149 54 27.879V0.870831C54 0.385654 53.5996 0 53.1242 0ZM50.9972 1.74166H52.2484V26.9958H50.9972V1.74166ZM49.2456 26.9958H47.9944V1.74166H49.2456V26.9958ZM46.2428 26.9958H44.9916V1.74166H46.2428V26.9958ZM50.284 31.549L46.981 31.5614L45.6923 28.7872L51.5352 28.7623L50.284 31.549ZM47.7942 33.3031H49.5083L48.6575 35.1816L47.7942 33.3031Z" fill="#ff9800"/>
</svg>
