<svg width="54" height="47" viewBox="0 0 54 47" fill="none" xmlns="http://www.w3.org/2000/svg">
<path d="M54 8.26167C54 8.2382 54 8.21473 54 8.19126C54 8.17953 54 8.16779 54 8.15605C54 8.13258 53.9884 8.10911 53.9884 8.08564C53.9884 8.07391 53.9884 8.06217 53.9768 8.05044C53.9652 8.01523 53.9536 7.99176 53.942 7.95655C53.942 7.95655 53.942 7.94482 53.9304 7.94482C53.9188 7.92135 53.9072 7.89788 53.884 7.87441C53.8724 7.86267 53.8724 7.85094 53.8608 7.85094C53.8492 7.82747 53.8376 7.81573 53.8144 7.80399C53.8027 7.79226 53.7911 7.78052 53.7911 7.78052C53.7795 7.76879 53.7563 7.75705 53.7447 7.73358C53.7331 7.72185 53.7215 7.72185 53.7099 7.71011C53.6983 7.69838 53.6751 7.68664 53.6519 7.67491C53.6403 7.66317 53.6287 7.66317 53.6171 7.65144C53.5939 7.6397 53.5707 7.62796 53.5591 7.62796C53.5475 7.62796 53.5475 7.61623 53.5359 7.61623H53.5243C53.5011 7.60449 53.4779 7.60449 53.4547 7.59276C53.4431 7.59276 53.4315 7.59276 53.4315 7.58102C53.3966 7.58102 53.3618 7.56929 53.327 7.56929H46.4813V0.70412V0.692385C46.4813 0.668914 46.4813 0.645443 46.4813 0.621973C46.4813 0.610237 46.4813 0.598502 46.4813 0.586767C46.4813 0.563296 46.4697 0.539825 46.4697 0.516355C46.4697 0.504619 46.4697 0.492884 46.4581 0.481149C46.4465 0.445943 46.4349 0.422472 46.4233 0.387266C46.4233 0.387266 46.4233 0.375531 46.4117 0.375531C46.4001 0.35206 46.3885 0.328589 46.3653 0.305119C46.3537 0.293383 46.3537 0.281648 46.3421 0.281648C46.3305 0.258177 46.3189 0.246442 46.2957 0.234707C46.2841 0.222971 46.2725 0.211236 46.2725 0.211236C46.2608 0.199501 46.2376 0.187765 46.226 0.164295C46.2144 0.152559 46.2028 0.152559 46.1912 0.140824C46.1796 0.129089 46.1564 0.117353 46.1332 0.105618C46.1216 0.0938826 46.11 0.0938826 46.0984 0.0821473C46.0752 0.070412 46.052 0.0586767 46.0404 0.0586767C46.0288 0.0586767 46.0288 0.0469413 46.0172 0.0469413H46.0056C45.9824 0.035206 45.9592 0.035206 45.936 0.0234707C45.9244 0.0234707 45.9128 0.0234707 45.9128 0.0117353C45.8315 0 45.7967 0 45.7619 0H30.4461C30.2256 0 30.0168 0.105618 29.8775 0.293383L24.633 7.56929H22.6605C22.4401 7.56929 22.2312 7.67491 22.092 7.86267L0.127632 38.3745C0.127632 38.3745 0.127632 38.3745 0.127632 38.3863C0.116029 38.4097 0.0928234 38.4332 0.0812205 38.4567C0.0696175 38.4801 0.0580146 38.5036 0.0464117 38.5271C0.0464117 38.5388 0.0464117 38.5388 0.0348088 38.5506C0.0232058 38.574 0.0232058 38.5975 0.0116029 38.621V38.6327C0.0116029 38.6679 0 38.6914 0 38.7266C0 38.7383 0 38.7383 0 38.7501C0 38.7618 0 38.7735 0 38.7853V46.2959C0 46.6831 0.313279 47 0.696175 47H16.012H31.3279C31.3279 47 31.3279 47 31.3395 47C31.3627 47 31.3859 47 31.4091 47C31.4207 47 31.4207 47 31.4323 47C31.4555 47 31.4671 47 31.4903 46.9883C31.5019 46.9883 31.5019 46.9883 31.5135 46.9883C31.5367 46.9883 31.5483 46.9765 31.5716 46.9765C31.5832 46.9765 31.5832 46.9765 31.5948 46.9648C31.6064 46.9531 31.6296 46.9531 31.6412 46.9413C31.6528 46.9413 31.6528 46.9296 31.6644 46.9296C31.6876 46.9179 31.6992 46.9061 31.7108 46.8944C31.7108 46.8944 31.7224 46.8944 31.7224 46.8826C31.7456 46.8709 31.7688 46.8592 31.7804 46.8357L31.792 46.824C31.8036 46.8122 31.8152 46.8005 31.8268 46.7888C31.8384 46.777 31.8384 46.777 31.85 46.7653C31.8616 46.7536 31.8732 46.7418 31.8848 46.7184L31.8964 46.7066L53.5127 16.6876C53.7911 16.5938 54 16.3356 54 16.0187V8.27341C54 8.26167 54 8.26167 54 8.26167ZM52.6077 15.5493L32.0241 44.1366V39.02L52.6077 10.4327V15.5493ZM24.4358 45.5918H21.8715C21.8251 44.4769 21.9295 43.3973 22.1964 42.3528C22.5213 41.0737 23.0202 40.0996 23.3683 39.4894H26.9884C26.4315 41.6487 25.6889 43.0569 25.1319 44.1131C24.8303 44.6764 24.5866 45.1458 24.4358 45.5918ZM11.0692 44.3478C11.162 44.8759 11.2316 45.2749 11.1968 45.5918H7.75075C7.73915 44.606 7.85518 43.632 8.08724 42.7049C8.49334 41.1441 9.1315 40.0292 9.47959 39.4894H11.0112C10.6167 41.7895 10.8835 43.3034 11.0692 44.3478ZM12.1483 24.0809C12.3455 24.034 12.5892 23.9753 12.8908 23.8814L7.91319 30.7935C7.91319 30.7935 7.91319 30.7935 7.91319 30.8052C7.90159 30.8287 7.87838 30.8522 7.86678 30.8757C7.85518 30.8991 7.84358 30.9226 7.83197 30.9461C7.83197 30.9578 7.83197 30.9578 7.82037 30.9695C7.80877 30.993 7.80877 31.0165 7.79716 31.0399V31.0517C7.78556 31.0752 7.78556 31.1104 7.78556 31.1338C7.78556 31.1456 7.78556 31.1456 7.78556 31.1573C7.78556 31.169 7.78556 31.1808 7.78556 31.1925V33.9973C6.46283 35.6519 5.29093 36.9898 4.57155 37.7878C4.47873 37.8816 4.39751 37.9755 4.32789 38.0577H4.15385H2.06532L12.1483 24.0809ZM23.6236 8.97753L14.2832 21.9568C14.0047 22.0624 13.7379 22.1563 13.4826 22.2385L23.0318 8.97753H23.6236ZM26.3618 7.56929L30.7942 1.40824H33.985C32.3489 2.82821 29.7383 5.15181 28.0675 6.97079C27.8934 7.15855 27.7078 7.35805 27.5105 7.56929C27.2901 7.79226 27.058 8.02697 26.8144 8.27341C26.5823 8.49638 26.3386 8.73109 26.095 8.97753C25.3872 9.65818 24.6214 10.374 23.8556 11.0782L25.364 8.97753L25.8745 8.27341L26.3618 7.56929ZM39.7168 1.40824C38.6029 2.24145 37.4194 3.08639 36.1779 3.96654C34.5651 5.1166 32.8827 6.32534 31.2467 7.56929C30.945 7.80399 30.6317 8.0387 30.33 8.27341C30.0284 8.50811 29.7383 8.74282 29.4482 8.97753C29.2278 9.15356 29.0189 9.32959 28.8101 9.50562C27.8238 10.3271 26.8724 11.172 25.9789 12.0287C25.8745 12.1343 25.7585 12.24 25.6541 12.3573C24.633 13.3783 23.6932 14.4227 22.9042 15.5141C22.3472 16.2769 21.8483 17.0514 21.4422 17.8377C21.245 18.2015 21.0477 18.577 20.8389 18.9408C20.8156 18.976 20.7924 19.0112 20.7808 19.0464C20.688 19.2107 20.5952 19.375 20.5024 19.5393C19.5741 21.1236 18.5183 22.6727 17.4856 24.0926C15.3043 27.0734 13.1577 29.4792 12.2063 30.5119H12.1251H10.4078H9.83928L13.645 25.231L15.1534 23.1303L16.511 21.2409L16.859 20.7598L20.0382 16.3473C20.804 15.6784 25.3756 11.6884 28.0791 8.97753C28.3227 8.73109 28.5548 8.49638 28.7636 8.27341C28.8797 8.15605 28.9841 8.0387 29.0769 7.93308C29.1814 7.81573 29.2974 7.69838 29.4134 7.56929C31.6296 5.23396 35.2381 2.1593 36.1315 1.40824H39.7168ZM44.3928 1.40824L42.8032 3.61448L42.7916 3.60275C41.4456 4.57678 40.6218 5.19875 39.5776 5.98502C38.9858 6.43096 38.3245 6.92384 37.4658 7.56929C37.1758 7.79226 36.8625 8.01523 36.5144 8.27341C36.2127 8.49638 35.8994 8.73109 35.5514 8.97753C35.1801 9.24744 34.774 9.54082 34.3447 9.85768C33.6601 10.3506 32.9871 10.9021 32.2793 11.5476C31.9428 11.8527 31.6064 12.1695 31.2583 12.5216C29.309 14.4579 27.0928 17.0866 24.1457 20.9593C24.0297 21.1119 23.9252 21.2527 23.8092 21.4052C22.7069 22.8487 21.7323 24.0926 20.8621 25.1723C18.6691 27.8597 17.1027 29.5026 15.7684 30.5001H15.1534H14.0976C15.2927 29.1623 16.9287 27.2142 18.5879 24.9493C19.783 23.3181 20.9897 21.5226 22.0339 19.6684C22.2544 19.2694 22.4749 18.8704 22.6837 18.4714C23.0318 17.8025 23.4495 17.1336 23.9136 16.4881C24.633 15.4789 25.4916 14.4931 26.4431 13.5426C26.6519 13.3313 26.8608 13.1318 27.0696 12.9206C27.905 12.1109 28.8101 11.3246 29.7383 10.5501C29.8891 10.4327 30.0284 10.3036 30.1792 10.1863C30.6897 9.77553 31.2003 9.36479 31.7224 8.96579C32.0241 8.73109 32.3373 8.49638 32.6506 8.26167C32.9639 8.02697 33.2772 7.79226 33.6021 7.55755C34.7392 6.72434 35.8878 5.90287 37.0017 5.10487C38.8002 3.81398 40.5058 2.60524 42.049 1.3965H44.3928V1.40824ZM51.9347 8.97753L47.9433 14.5166C46.8062 15.3381 45.8664 15.9718 44.7873 16.7111C43.1977 17.7908 41.3992 19.023 38.4173 21.2057C37.7791 21.6752 37.2454 21.8629 36.7 21.9803L42.2927 14.2115C43.0004 13.6951 43.7082 13.2022 44.3928 12.6976C46.2028 11.4067 47.9085 10.1863 49.4517 8.97753H51.9347ZM24.8999 22.2737C25.0043 22.1328 25.1087 21.992 25.2248 21.8512C25.8165 21.0767 26.3734 20.3608 26.9072 19.6801C27.0928 19.4454 27.2785 19.2107 27.4641 18.976C27.5337 18.8939 27.5917 18.8117 27.6614 18.7296C29.4714 16.4647 30.9682 14.7748 32.3373 13.4252C32.6854 13.0732 33.0335 12.7563 33.37 12.4512C33.985 11.8996 34.5767 11.4185 35.1685 10.9843C35.853 10.4914 36.4564 10.0454 36.9901 9.64644C37.6399 9.16529 38.1852 8.75456 38.6725 8.4025C38.7422 8.35556 38.8118 8.29688 38.8698 8.24994C39.2179 7.99176 39.5196 7.75705 39.8096 7.54582C39.9257 7.46367 40.0301 7.38152 40.1345 7.29938L39.9605 7.54582L39.4499 8.24994L38.9394 8.95406L35.7254 13.4252L35.563 13.6482L34.89 14.587C34.4723 14.8687 34.0546 15.162 33.6485 15.4789C32.8595 16.0891 32.0821 16.7815 31.3163 17.5208C30.8406 17.9785 30.3648 18.4597 29.9007 18.9643C29.4598 19.4337 29.0189 19.9266 28.578 20.4195C28.1255 20.9358 27.6846 21.4522 27.2437 21.9803C26.269 23.1538 25.3176 24.3391 24.4125 25.4774C23.0202 27.2142 21.7207 28.8572 20.5836 30.0659C20.456 30.2067 20.3167 30.3476 20.1775 30.4884H18.9592H17.9265C19.052 29.4439 20.3283 28.024 21.9411 26.029C22.8229 24.9728 23.7976 23.7171 24.8999 22.2737ZM9.16631 34.5253V32.2252V31.9201H9.39837H10.8951C10.4078 32.5538 9.83928 33.3753 9.30554 34.361C9.25913 34.4432 9.21272 34.5253 9.16631 34.6192V34.5253ZM15.838 31.9201H15.9772L16.0468 32.0257C16.0933 31.9905 16.1513 31.9553 16.1977 31.9201H16.3949H18.0541H19.4581C19.3073 32.4834 19.1564 32.9998 18.9824 33.4692C18.5183 34.7953 18.0077 35.7693 17.59 36.5438C17.5552 36.6025 17.5204 36.6729 17.4972 36.7316C17.2419 37.2127 17.0331 37.6235 16.9055 38.0225H16.569H15.7104H14.3412C14.3296 37.8816 14.3296 37.7408 14.3296 37.6C14.318 36.6377 14.434 35.6871 14.6661 34.7835C14.6893 34.6896 14.7125 34.584 14.7473 34.4901C15.0606 33.3518 15.5015 32.4834 15.838 31.9201ZM28.3343 22.8722C29.0537 22.0037 29.7963 21.1588 30.5389 20.3373C30.8406 20.0087 31.1422 19.6919 31.4439 19.3868L30.771 20.3139L23.4263 30.5119H22.8229H22.0688C23.113 29.3383 24.2617 27.8949 25.4684 26.381C26.3966 25.231 27.3481 24.0457 28.3343 22.8722ZM23.0898 36.2504V37.8934V38.0342H22.9622H21.5582H19.6786H18.4022C18.5183 37.7878 18.6575 37.5179 18.8199 37.2127C19.2376 36.4265 19.7482 35.4524 20.2239 34.1381C20.4443 33.5278 20.6532 32.8472 20.8505 32.0727C20.8621 32.0257 20.8737 31.9788 20.8853 31.9318H20.9549H21.8135H23.0898V34.0325V36.2504ZM14.2484 31.9201C13.9235 32.5655 13.5754 33.4105 13.3086 34.4315C13.0881 35.3116 12.9605 36.2152 12.9373 37.1306C12.9257 37.424 12.9257 37.7174 12.9373 38.0107H12.2759H9.56081H9.32875C10.0713 35.1004 11.9626 32.7533 12.7052 31.9084H14.2252H14.2484V31.9201ZM7.77396 37.776C7.70434 37.8347 7.63472 37.8934 7.5651 37.9521L7.66953 38.0811H6.19596C6.66008 37.5531 7.19381 36.9428 7.77396 36.2504V37.776ZM25.1087 38.0811L35.4585 23.7171C35.8066 23.6115 36.1199 23.5411 36.4448 23.4824C37.2454 23.3298 38.1388 23.1421 39.2295 22.3558C42.1418 20.2317 43.9171 19.0112 45.4719 17.9551L42.4899 22.0976L42.4783 22.0859C36.4448 25.9703 31.3975 31.4155 27.8818 37.8347C27.8354 37.9051 27.7426 38.0107 27.6266 38.1046H25.1087V38.0811ZM39.9605 25.6065L30.9798 38.0811H29.3438C32.0589 33.2462 35.6906 28.998 39.9605 25.6065ZM44.8685 10.6439L45.9592 9.13009C46.052 9.09488 46.1332 9.04794 46.2144 8.98926H47.1543C46.4233 9.51735 45.6575 10.0806 44.8685 10.6439ZM45.0658 7.56929V7.98002L44.8569 8.27341L44.3464 8.97753L41.3064 13.1905L38.5565 17.0045L34.5767 22.5201L30.945 27.5546L29.3554 29.7725L24.4822 36.5673V35.9453V34.5253V32.2252V31.4507L28.9609 25.231L31.8268 21.2409L32.7899 19.9031L34.4491 17.603L40.6566 8.97753L41.1672 8.27341L41.6777 7.56929L45.0658 2.86342V7.56929ZM1.39235 39.4894H3.00516C2.50623 40.1818 1.92609 41.0737 1.39235 42.1181V39.4894ZM16.7082 39.4894H18.9824C18.8315 39.994 18.6343 40.6277 18.437 41.2497C17.9961 41.4022 17.3348 41.7543 16.7082 42.5758V39.4894ZM1.55479 45.5918C2.25097 42.8222 3.9566 40.4986 4.7688 39.5011C4.7804 39.5011 4.80361 39.4894 4.81521 39.4894H7.86678C7.49549 40.17 7.05458 41.1441 6.7529 42.3528C6.48603 43.3973 6.3584 44.4886 6.37 45.5918H1.55479ZM12.4383 44.1014C12.2527 43.0687 12.009 41.6722 12.4267 39.4894H15.3159V45.5918H12.5892C12.6124 45.1223 12.5312 44.6412 12.4383 44.1014ZM16.8706 45.5918C17.5552 42.834 18.8896 42.564 19.0288 42.5523C19.3305 42.5523 19.5509 42.3528 19.6437 42.0712C19.7482 41.7308 20.1775 40.393 20.4327 39.5011H21.7903C21.4654 40.1466 21.1173 40.9915 20.8505 42.0125C20.5604 43.1625 20.4327 44.3713 20.4792 45.6035H16.8706V45.5918ZM26.3618 44.7703C26.9884 43.5968 27.8238 42.0007 28.4272 39.4894H30.6317V45.5918H25.9441C26.0602 45.3453 26.1994 45.0754 26.3618 44.7703Z" fill="#ff9800"/>
</svg>
