<svg width="54" height="52" viewBox="0 0 54 52" fill="none" xmlns="http://www.w3.org/2000/svg">
<path d="M30.2036 10.7586C27.1832 10.7586 24.712 8.33793 24.712 5.37931C24.712 2.42069 27.1832 0 30.2036 0C33.2239 0 35.6951 2.42069 35.6951 5.37931C35.6951 8.33793 33.2239 10.7586 30.2036 10.7586ZM30.2036 1.7931C28.19 1.7931 26.5425 3.4069 26.5425 5.37931C26.5425 7.35173 28.19 8.96552 30.2036 8.96552C32.2171 8.96552 33.8646 7.35173 33.8646 5.37931C33.8646 3.4069 32.2171 1.7931 30.2036 1.7931Z" fill="#ff9800"/>
<path d="M31.1185 6.27612H29.288V12.552H31.1185V6.27612Z" fill="#ff9800"/>
<path d="M31.1185 15.2412H29.288V17.9309H31.1185V15.2412Z" fill="#ff9800"/>
<path d="M31.1185 38.5515H29.288V42.1377H31.1185V38.5515Z" fill="#ff9800"/>
<path d="M24.1419 16.6139L22.5566 17.5105L23.4719 19.0633L25.0571 18.1668L24.1419 16.6139Z" fill="#ff9800"/>
<path d="M18.7828 21.1694L17.8677 22.7224L19.4531 23.6188L20.3682 22.0658L18.7828 21.1694Z" fill="#ff9800"/>
<path d="M20.1357 27.7932H16.4747V29.5863H20.1357V27.7932Z" fill="#ff9800"/>
<path d="M43.932 27.7932H40.2709V29.5863H43.932V27.7932Z" fill="#ff9800"/>
<path d="M19.46 33.7285L17.8753 34.626L18.7915 36.1783L20.3761 35.2808L19.46 33.7285Z" fill="#ff9800"/>
<path d="M41.6171 21.2015L40.0317 22.0979L40.9468 23.6509L42.5322 22.7545L41.6171 21.2015Z" fill="#ff9800"/>
<path d="M23.4446 38.3255L22.53 39.8789L24.1158 40.7747L25.0303 39.2214L23.4446 38.3255Z" fill="#ff9800"/>
<path d="M36.297 16.6048L35.3812 18.1575L36.9663 19.0546L37.8821 17.5019L36.297 16.6048Z" fill="#ff9800"/>
<path d="M32.0338 5.37939H28.3728V7.1725H32.0338V5.37939Z" fill="#ff9800"/>
<path d="M43.9323 52.0003C38.3492 52.0003 33.8645 47.6072 33.8645 42.1382C33.8645 36.6692 38.3492 32.2761 43.9323 32.2761C49.5153 32.2761 54.0001 36.6692 54.0001 42.1382C54.0001 47.6072 49.5153 52.0003 43.9323 52.0003ZM43.9323 34.0692C39.356 34.0692 35.695 37.6554 35.695 42.1382C35.695 46.621 39.356 50.2072 43.9323 50.2072C48.5086 50.2072 52.1696 46.621 52.1696 42.1382C52.1696 37.6554 48.5086 34.0692 43.9323 34.0692Z" fill="#ff9800"/>
<path d="M43.0168 46.6206C42.7422 46.6206 42.5592 46.5309 42.3761 46.3516L38.7151 42.7654L39.9964 41.5102L42.9253 44.3792L47.7761 38.0137L49.2405 39.0895L43.749 46.2619C43.5659 46.4413 43.3829 46.6206 43.0168 46.6206Z" fill="#ff9800"/>
<path d="M30.2032 30.4829C30.1117 30.4829 29.9286 30.4829 29.8371 30.3932C29.471 30.3036 29.288 29.9449 29.288 29.5863V17.9312H31.1185V27.4346L35.0541 23.5794L36.3354 24.8346L30.8439 30.2139C30.6608 30.3932 30.4778 30.4829 30.2032 30.4829Z" fill="#ff9800"/>
<path d="M30.2035 45.7242C24.8035 45.7242 19.8612 43.3035 16.4747 39.1794L17.9391 38.1035C20.9595 41.7794 25.3527 43.9311 30.2035 43.9311C30.8442 43.9311 31.3934 43.9311 31.9425 43.8414L32.1256 45.6346C31.5764 45.7242 30.8442 45.7242 30.2035 45.7242Z" fill="#ff9800"/>
<path d="M47.5017 30.5723L45.6712 30.393C45.7627 29.855 45.7627 29.2274 45.7627 28.6895C45.7627 20.2619 38.8068 13.4481 30.2034 13.4481C24.2543 13.4481 18.9458 16.6757 16.2915 21.8757C16.1085 22.1447 15.8339 22.4137 15.4678 22.4137H8.2373V20.6205H14.9187C17.939 15.0619 23.7966 11.655 30.2034 11.655C39.8136 11.655 47.5932 19.2757 47.5932 28.6895C47.5932 29.3171 47.5932 29.9447 47.5017 30.5723Z" fill="#ff9800"/>
<path d="M13.7288 29.586H8.2373V27.7929H12.8136C12.9051 26.5377 13.0882 25.1929 13.4543 24.0273L15.1932 24.5653C14.8271 25.8204 14.6441 27.2549 14.6441 28.6894C14.6441 29.2273 14.278 29.586 13.7288 29.586Z" fill="#ff9800"/>
<path d="M9.15253 36.7588V34.9657H14.0034C13.5457 33.8898 13.1796 32.7243 12.9966 31.5588L14.8271 31.2898C15.1017 32.7243 15.5593 34.1588 16.2 35.5036C16.383 35.7725 16.2915 36.1312 16.2 36.4001C16.0169 36.6691 15.7424 36.8484 15.3763 36.8484L9.15253 36.7588Z" fill="#ff9800"/>
<path d="M6.49857 20.6206H4.57654V22.4137H6.49857V20.6206Z" fill="#ff9800"/>
<path d="M6.40653 27.7932H3.66077V29.5863H6.40653V27.7932Z" fill="#ff9800"/>
<path d="M7.3223 34.9653H4.57654V36.7584H7.3223V34.9653Z" fill="#ff9800"/>
<path d="M1.83051 27.7932H0V29.5863H1.83051V27.7932Z" fill="#ff9800"/>
<path d="M46.9528 17.9308C46.6782 17.9308 46.4952 17.8412 46.3121 17.6619L41.4613 12.9102C41.0952 12.5515 41.0952 12.0136 41.4613 11.655L43.9325 9.2343C44.1155 9.05499 44.2986 8.96533 44.5732 8.96533C44.8477 8.96533 45.0308 9.05499 45.2138 9.2343L50.0647 13.986C50.4308 14.3446 50.4308 14.8826 50.0647 15.2412L47.5935 17.6619C47.502 17.8412 47.2274 17.9308 46.9528 17.9308ZM43.3833 12.2826L46.9528 15.7791L48.1426 14.6136L44.5732 11.1171L43.3833 12.2826Z" fill="#ff9800"/>
<path d="M13.4542 17.9308C13.1796 17.9308 12.9966 17.8412 12.8135 17.6619L10.3423 15.2412C9.97622 14.8826 9.97622 14.3446 10.3423 13.986L15.1932 9.2343C15.5593 8.87568 16.1084 8.87568 16.4745 9.2343L18.9457 11.655C19.3118 12.0136 19.3118 12.5515 18.9457 12.9102L14.0949 17.6619C13.9118 17.8412 13.6372 17.9308 13.4542 17.9308ZM12.2644 14.6136L13.4542 15.7791L17.0237 12.2826L15.8339 11.1171L12.2644 14.6136Z" fill="#ff9800"/>
<path d="M43.912 13.9972L41.19 16.656L42.4825 17.9257L45.2045 15.2669L43.912 13.9972Z" fill="#ff9800"/>
<path d="M16.4887 13.996L15.1964 15.2659L17.9187 17.9243L19.2111 16.6544L16.4887 13.996Z" fill="#ff9800"/>
</svg>
