<svg width="54" height="47" viewBox="0 0 54 47" fill="none" xmlns="http://www.w3.org/2000/svg">
<path d="M49.9053 32.2838H48.6555L49.9053 31.8127C51.9739 31.0317 52.922 28.9364 52.017 27.1635L48.5549 20.3448C47.9085 19.0554 46.4288 18.2247 44.8055 18.2247C44.2452 18.2247 43.685 18.3239 43.1678 18.5223L43.0098 18.5843L43.2109 18.4107C43.9579 17.7288 44.3602 16.8238 44.3171 15.8816C44.2883 14.9393 43.8286 14.0591 43.0242 13.4144L36.7321 8.30652C35.9707 7.68663 34.9795 7.35189 33.9308 7.35189C32.8103 7.35189 31.7185 7.76101 30.9428 8.46769L30.4256 8.9388L30.7129 8.25692C31.4887 6.42205 30.3825 4.38882 28.2564 3.73173L20.1543 1.17779C19.7089 1.04141 19.2349 0.967027 18.7608 0.967027C17.8845 0.967027 17.0657 1.21498 16.3761 1.62411C15.6579 0.644685 14.3793 0 12.9284 0L4.30909 0.0123978C2.0537 0.0123978 0.214915 1.59931 0.214915 3.54577L0.286742 38.086L0.243646 38.1728C-0.115492 39.0158 -0.0723958 39.8961 0.286742 40.6771C0.301108 42.1649 1.37852 43.4294 2.8869 43.9377C3.26041 45.5619 4.91244 46.7892 6.90925 46.7892H7.49823C7.94357 46.9256 8.40326 47 8.89169 47C9.36575 47 9.83981 46.9256 10.2851 46.7892H15.9452H23.4152H27.6531H35.1231H39.361H46.831H49.8909C52.1463 46.7892 53.9851 45.2023 53.9851 43.2559V35.8172C53.9994 33.8583 52.1606 32.2838 49.9053 32.2838ZM52.1319 43.2559C52.1319 44.3097 51.1263 45.1775 49.9053 45.1775H47.7792V33.8955H49.9053C51.1263 33.8955 52.1319 34.7634 52.1319 35.8172V43.2559ZM2.08243 3.54577C2.08243 2.49195 3.07365 1.62411 4.30909 1.62411L12.9428 1.61171C13.9484 1.61171 14.7959 2.19441 15.0689 2.97547C15.1263 3.14904 15.1694 3.335 15.1694 3.53337V5.0583V5.34344V5.38064H15.0401H14.2644H14.0489L2.0968 5.39304L2.08243 3.54577ZM18.7608 2.57874C19.0194 2.57874 19.278 2.61593 19.5222 2.69032L27.6243 5.23186C28.7736 5.5914 29.3769 6.6948 28.9603 7.69902L28.2277 9.43471L17.0369 5.92614V3.53337C17.0369 3.45898 17.0369 3.3846 17.0226 3.31021C17.4392 2.85149 18.0713 2.57874 18.7608 2.57874ZM35.4535 9.47191L41.7313 14.5674C42.1622 14.9145 42.4065 15.398 42.4352 15.9064C42.4496 16.4147 42.2341 16.9106 41.8318 17.2825L40.3666 18.6339L30.8422 10.8977L32.3075 9.55869C32.7385 9.17436 33.3131 8.9512 33.9308 8.9512C34.4911 8.9512 35.0369 9.13717 35.4535 9.47191ZM46.831 20.9771L50.2931 27.7958C50.7816 28.7629 50.2788 29.9035 49.1439 30.325L47.1902 31.0688L41.9468 20.7291L43.9005 19.9852C44.1878 19.8736 44.4895 19.8241 44.7911 19.8241C45.6818 19.8241 46.4719 20.2828 46.831 20.9771ZM45.8973 45.1775H40.2947V35.4329L44.3889 33.8831H45.8973V45.1775ZM34.1894 45.1775H28.5868V39.8713L34.1894 37.7513V45.1775ZM22.4815 45.1775H16.8789V44.2973L22.4815 42.1773V45.1775ZM2.11116 13.4516L10.6586 13.4392H11.6499H12.6411H13.661H15.1838V13.9227V15.4848H13.2444H11.7792H10.7879H9.79672L2.11116 15.4972V13.4516ZM13.3594 6.97995H14.3506H15.1694V7.40148V9.76945V11.8151H13.9771H13.3019H12.3107H11.3195L2.0968 11.8275L2.08243 6.99235L13.3594 6.97995ZM39.088 19.8117L38.6283 20.2332L36.9907 21.7333L35.353 23.2334L35.2381 23.345L35.1806 23.3078L34.448 22.7127L33.7153 22.1176L27.1503 16.7742L28.2708 14.1211L28.831 12.7697L29.5637 12.0878L39.088 19.8117ZM2.12553 23.5558H6.39209H7.38331H8.37453H11.5924H14.3219H14.4799H15.1838V23.8285V24.0889V24.6964V25.2667V25.6014H14.8103H14.7385H13.5318H12.2532H11.1758H8.44636H7.49823H6.50701H5.51579H2.11116L2.12553 23.5558ZM33.7584 24.684L32.3362 25.9858L31.4743 25.2915L30.9715 24.8824L30.2389 24.2873L29.5062 23.6922L25.5701 20.4935L25.685 20.2332L26.4607 18.3983L31.8622 22.7871L32.5948 23.3822L33.3274 23.9773L33.4424 24.0765L33.9595 24.4856L33.7584 24.684ZM18.531 41.0119L19.9244 39.7349L22.4958 37.3793L22.7113 37.181L23.4296 38.5943L24.0473 39.8217L23.4296 40.0572L22.4958 40.4044L18.9188 41.7557L18.531 41.0119ZM17.08 33.8955V33.0897V32.2838V30.139V29.6803V29.2588V29.1472L17.2524 29.1968L18.2149 29.4943L18.5166 29.5935L18.9045 29.7175L19.6084 29.9406L19.5653 30.0646L19.3929 30.4614L19.3354 30.5853L19.0338 31.292L18.6172 32.2962L18.2724 33.1021L17.9276 33.9079L17.6834 34.503L17.08 34.3171V33.8955ZM2.11116 17.1089L9.10717 17.0965H10.0984H11.0896H12.8997H15.1694V17.8156L15.1838 21.9317H11.9228H9.19337H9.04971H8.05849H7.34021H7.06727L2.12553 21.9441L2.11116 17.1089ZM18.258 25.6262L20.4703 26.3205L21.0449 26.4941L20.9587 26.7048L20.8582 26.9404L20.614 27.5355L20.4272 27.9942L20.2692 28.3785L20.2548 28.4157L19.7377 28.2545L18.4591 27.8578L17.08 27.4239V25.2543L18.258 25.6262ZM21.8781 35.5816L19.1918 38.0488L18.4448 37.4413L19.9388 33.8955L19.9531 33.8707L20.2836 33.0897L20.4416 32.7178L20.5421 32.4822L21.2891 33.0897L21.9069 33.598L22.2804 33.8955L22.5102 34.0815L23.0561 34.5278L22.5964 34.9494L22.4958 35.0361L21.8781 35.5816ZM21.6914 24.9815L19.2636 24.2253L17.0657 23.5434V23.531V22.3532V21.1754V18.3859L19.3354 19.0926L20.2979 19.3901L21.2604 19.6877L22.2804 20.01L23.6164 20.4315L23.4009 20.9275L23.1567 21.5226L21.6914 24.9815ZM17.6547 39.301L17.7552 39.0778L17.9276 39.2142L17.7265 39.4002L17.5685 39.5489L17.6547 39.301ZM24.4065 16.799L24.5357 16.8362L25.0529 16.9974L24.9667 17.1957L24.2341 18.919L23.2572 18.6091L22.6251 18.4107L21.6626 18.1132L20.7002 17.8156L17.0226 16.6626V14.493L22.4671 16.1915L23.4296 16.4891L24.4065 16.799ZM24.349 33.3128L24.3203 33.35L23.9899 33.0897L22.9986 32.2838L21.7057 31.2424L21.2029 30.8333L21.3322 30.5233L21.6626 29.7299L22.0792 28.7381L23.6738 30.0274L25.412 31.4408L25.9292 31.8623L25.7281 32.0483L25.4839 32.2838L25.0385 32.693L24.6076 33.0897L24.349 33.3128ZM27.2221 30.6845L25.254 29.0852L23.5445 27.6966L23.5158 27.6719L22.7975 27.0892L23.2285 26.0477L23.5014 25.3907L24.8662 22.13L27.6243 24.374L28.357 24.9691L29.0896 25.5642L29.8941 26.2213L31.029 27.1511L30.5693 27.5727L28.2708 29.6803L27.2221 30.6845ZM16.8789 42.5244L17.1375 42.2888L17.2093 42.4128L16.8933 42.5368L16.8646 42.5492L16.8789 42.5244ZM43.9867 32.2838L41.8606 33.0897L40.3522 33.66L40.0649 33.0897L39.6626 32.2838L35.9707 25.0187L39.7345 21.5721L40.2516 21.3738L45.495 31.7135L43.9867 32.2838ZM27.1934 11.8895L26.3889 13.7987L25.685 15.4848L24.8374 15.2245L23.8749 14.9269L17.0369 12.7821V12.6209V9.90583V7.63703L27.5956 10.9472L27.1934 11.8895ZM2.12553 27.2131H4.85498H5.8462H6.83742H10.5006H10.8598H11.7792H13.0577H13.5749H14.0058H15.1982V27.7214V28.1802V28.5769V29.11V29.9902V30.8705V32.0483H13.9484H12.9284H12.0665H11.9085H11.7792H10.4144H9.86854H9.72489H9.06408H7.77118H7.38331H7.1391H6.49265H5.21412H4.81188H4.43838H3.82066H2.82944H2.13989L2.12553 27.2131ZM24.349 36.4247L24.0904 35.904L24.349 35.6684L24.6076 35.4329L25.843 34.2923L26.7049 36.0032L27.6387 37.838L27.9116 38.3587L27.6387 38.4579L26.7049 38.8051L25.7424 39.177L24.349 36.4247ZM34.5916 35.842L34.2037 35.9908L29.6355 37.7141L28.5868 35.656L27.6818 33.8831L27.6531 33.8088L27.2796 33.0773L27.2508 33.0029L28.0553 32.2714L29.1614 31.2548L31.4312 29.172L32.997 32.259L33.3993 33.0649L33.8015 33.8707L34.1894 34.627L34.764 35.7552L34.5916 35.842ZM36.0569 34.3047L35.8414 33.8831L35.4392 33.0773L35.0369 32.2714L32.8246 27.9074L33.0689 27.6719L34.5772 26.2833L37.6227 32.2714L38.025 33.0773L38.4272 33.8707V33.8831L38.6427 34.2923L38.4272 34.3791L36.4735 35.1229L36.0569 34.3047ZM15.0114 45.004V45.1775H14.5517L15.0114 45.004ZM2.16863 40.9003C2.15426 40.8259 2.15426 40.7391 2.15426 40.6647V40.33V39.7721V39.0406V38.3835V36.0528V36.0404V34.8874V34.5526V33.6972V33.6848H3.14548H3.24604H3.46152H3.66264H4.1367H4.75442H4.98427H5.4727H6.03295H7.79991H9.5525H11.0465H12.2676H12.3969H12.7273H13.7472H13.7616H14.7672H14.997H15.1982V33.7468V33.9327V34.5526V34.6022V34.8502V35.4577V35.9536V36.5487V37.057V38.5571V40.3672V40.6647C15.1982 40.9623 15.1263 41.235 14.9827 41.4954C14.8821 41.6937 14.7385 41.8673 14.5517 42.0285C14.523 42.0533 14.5086 42.0657 14.4799 42.0781C14.0633 42.4128 13.5318 42.5864 12.9715 42.5864L7.71372 42.5988H6.92361H5.94676H5.55889H4.9699H4.92681H4.62513H4.33782V42.7104V43.2559V43.4046V43.2559V42.7104V42.5988C4.29472 42.5988 4.23726 42.5988 4.19416 42.5864C4.09361 42.5864 3.99305 42.574 3.89249 42.5492C3.82066 42.5368 3.7632 42.5244 3.70574 42.512C3.3466 42.4252 3.03056 42.2516 2.77198 42.0285C2.68578 41.9541 2.61396 41.8797 2.54213 41.7929C2.36974 41.5202 2.22609 41.2226 2.16863 40.9003ZM24.349 41.4706L26.7193 40.5779V45.1775H24.349V41.4706ZM36.0569 37.0446L38.4272 36.1519V45.1899H36.0569V37.0446Z" fill="#ff9800"/>
<path d="M6.62272 40.7392C6.76638 40.8383 6.91004 40.9375 7.06806 41.0243C7.22608 41.1111 7.39846 41.1731 7.57085 41.2351C7.91562 41.3466 8.28913 41.4086 8.69136 41.4086C9.19415 41.4086 9.66822 41.3095 10.0992 41.1235C10.3003 41.0367 10.5014 40.9251 10.6738 40.8011C10.7025 40.7764 10.7313 40.764 10.76 40.7392C10.7744 40.7268 10.7887 40.7144 10.8031 40.7144C11.4495 40.2185 11.8518 39.487 11.8518 38.6811C11.8518 37.181 10.4296 35.9536 8.69136 35.9536C6.95313 35.9536 5.53094 37.181 5.53094 38.6811C5.53094 39.3506 5.81826 39.9705 6.27795 40.4416C6.37851 40.5532 6.49343 40.6524 6.62272 40.7392ZM9.95553 38.4332C9.96989 38.4952 9.98426 38.5571 9.98426 38.6191C9.98426 38.6439 9.98426 38.6687 9.98426 38.6811C9.98426 38.7183 9.98426 38.7555 9.98426 38.7927C9.94116 39.1398 9.71131 39.4498 9.38091 39.6234C9.36654 39.6234 9.36654 39.6358 9.35217 39.6358C9.32344 39.6482 9.29471 39.6606 9.26598 39.6729C9.23725 39.6853 9.20852 39.6977 9.17979 39.7101C9.03613 39.7597 8.87811 39.7845 8.70573 39.7845V39.8465V39.9457V40.0449V40.0945V40.5904V40.0945V40.0449V39.9457V39.8465V39.7845C8.5908 39.7845 8.46151 39.7721 8.36095 39.7473C8.31786 39.7349 8.26039 39.7225 8.2173 39.7101C8.15984 39.6977 8.11674 39.6729 8.07364 39.6482C8.03055 39.6234 7.98745 39.5986 7.94435 39.5738C7.62831 39.3754 7.42719 39.0407 7.42719 38.6811C7.42719 38.6687 7.42719 38.6439 7.42719 38.6315V38.6191C7.42719 38.6067 7.42719 38.5943 7.42719 38.5943C7.42719 38.5447 7.44156 38.4828 7.45593 38.4332C7.58522 37.9373 8.10237 37.5653 8.72009 37.5653C9.28035 37.5653 9.76877 37.8877 9.94116 38.3216C9.9268 38.3588 9.94116 38.396 9.95553 38.4332Z" fill="#ff9800"/>
</svg>
